Bodoni-06-Fatface-Italic.ufo
<glyph name="exclam" format="2">
	<advance width="877"/>
	<unicode hex="0021"/>
	<outline>
		<contour>
			<point x="479" y="616" type="curve"/>
			<point x="518" y="616" type="line"/>
			<point x="608" y="936"/>
			<point x="896" y="1062"/>
			<point x="896" y="1318" type="curve" smooth="yes"/>
			<point x="896" y="1420"/>
			<point x="812" y="1516"/>
			<point x="682" y="1516" type="curve" smooth="yes"/>
			<point x="543" y="1516"/>
			<point x="400" y="1370"/>
			<point x="400" y="1198" type="curve" smooth="yes"/>
			<point x="400" y="946"/>
			<point x="540" y="916"/>
		</contour>
		<contour>
			<point x="408" y="-20" type="curve" smooth="yes"/>
			<point x="540" y="-20"/>
			<point x="648" y="89"/>
			<point x="648" y="221" type="curve" smooth="yes"/>
			<point x="648" y="353"/>
			<point x="540" y="460"/>
			<point x="408" y="460" type="curve" smooth="yes"/>
			<point x="276" y="460"/>
			<point x="168" y="353"/>
			<point x="168" y="221" type="curve" smooth="yes"/>
			<point x="168" y="89"/>
			<point x="276" y="-20"/>
		</contour>
	</outline>
</glyph>
<glyph name="dollar" format="2">
	<advance width="1289"/>
	<unicode hex="0024"/>
	<outline>
		<contour>
			<point x="560" y="-29" type="curve" smooth="yes"/>
			<point x="872" y="-29"/>
			<point x="1229" y="221"/>
			<point x="1229" y="560" type="curve" smooth="yes"/>
			<point x="1229" y="1100"/>
			<point x="613" y="926"/>
			<point x="613" y="1266" type="curve" smooth="yes"/>
			<point x="613" y="1394"/>
			<point x="738" y="1451"/>
			<point x="900" y="1451" type="curve" smooth="yes"/>
			<point x="1078" y="1451"/>
			<point x="1235" y="1350"/>
			<point x="1235" y="1220" type="curve"/>
			<point x="1308" y="1220" type="line"/>
			<point x="1308" y="1290"/>
			<point x="1209" y="1379"/>
			<point x="1115" y="1379" type="curve" smooth="yes"/>
			<point x="1017" y="1379"/>
			<point x="923" y="1298"/>
			<point x="923" y="1188" type="curve" smooth="yes"/>
			<point x="923" y="1060"/>
			<point x="1019" y="996"/>
			<point x="1110" y="996" type="curve" smooth="yes"/>
			<point x="1228" y="996"/>
			<point x="1310" y="1088"/>
			<point x="1310" y="1220" type="curve" smooth="yes"/>
			<point x="1310" y="1382"/>
			<point x="1110" y="1520"/>
			<point x="894" y="1520" type="curve" smooth="yes"/>
			<point x="592" y="1520"/>
			<point x="260" y="1280"/>
			<point x="260" y="990" type="curve" smooth="yes"/>
			<point x="260" y="470"/>
			<point x="895" y="608"/>
			<point x="895" y="268" type="curve" smooth="yes"/>
			<point x="895" y="110"/>
			<point x="712" y="33"/>
			<point x="550" y="33" type="curve" smooth="yes"/>
			<point x="251" y="33"/>
			<point x="136" y="242"/>
			<point x="136" y="350" type="curve"/>
			<point x="63" y="350" type="line"/>
			<point x="63" y="250"/>
			<point x="158" y="191"/>
			<point x="253" y="191" type="curve" smooth="yes"/>
			<point x="351" y="191"/>
			<point x="448" y="272"/>
			<point x="448" y="382" type="curve" smooth="yes"/>
			<point x="448" y="500"/>
			<point x="351" y="574"/>
			<point x="260" y="574" type="curve" smooth="yes"/>
			<point x="142" y="574"/>
			<point x="61" y="472"/>
			<point x="61" y="350" type="curve" smooth="yes"/>
			<point x="61" y="220"/>
			<point x="208" y="-29"/>
		</contour>
		<contour>
			<point x="365" y="-160" type="line"/>
			<point x="439" y="-160" type="line"/>
			<point x="854" y="1660" type="line"/>
			<point x="780" y="1660" type="line"/>
		</contour>
		<contour>
			<point x="498" y="-160" type="line"/>
			<point x="572" y="-160" type="line"/>
			<point x="987" y="1660" type="line"/>
			<point x="913" y="1660" type="line"/>
		</contour>
	</outline>
</glyph>
<glyph name="quotesingle" format="2">
	<advance width="627"/>
	<unicode hex="0027"/>
	<outline>
		<contour>
			<point x="361" y="836" type="curve"/>
			<point x="435" y="836" type="line"/>
			<point x="496" y="1036"/>
			<point x="674" y="1127"/>
			<point x="712" y="1277" type="curve" smooth="yes"/>
			<point x="716" y="1291"/>
			<point x="718" y="1317"/>
			<point x="718" y="1338" type="curve" smooth="yes"/>
			<point x="718" y="1436"/>
			<point x="628" y="1520"/>
			<point x="510" y="1520" type="curve" smooth="yes"/>
			<point x="371" y="1520"/>
			<point x="270" y="1436"/>
			<point x="270" y="1318" type="curve" smooth="yes"/>
			<point x="270" y="1306"/>
			<point x="269" y="1285"/>
			<point x="271" y="1271" type="curve" smooth="yes"/>
			<point x="292" y="1121"/>
			<point x="413" y="1036"/>
		</contour>
	</outline>
</glyph>
<glyph name="parenleft" format="2">
  <advance width="769"/>
  <unicode hex="0028"/>
  <outline>
    <contour>
      <point x="607" y="-277" type="curve"/>
      <point x="572" y="-340" type="line"/>
      <point x="345" y="-240"/>
      <point x="170" y="24"/>
      <point x="170" y="370" type="curve" smooth="yes"/>
      <point x="170" y="956"/>
      <point x="625" y="1440"/>
      <point x="1012" y="1600" type="curve"/>
      <point x="1049" y="1529" type="line"/>
      <point x="740" y="1289"/>
      <point x="527" y="472"/>
      <point x="527" y="29" type="curve" smooth="yes"/>
      <point x="527" y="-116"/>
      <point x="575" y="-216"/>
    </contour>
  </outline>
</glyph>
<glyph name="plus" format="2">
	<advance width="1059"/>
	<unicode hex="002B"/>
	<outline>
		<contour>
			<point x="461" y="221" type="line"/>
			<point x="539" y="221" type="line"/>
			<point x="729" y="1040" type="line"/>
			<point x="651" y="1040" type="line"/>
		</contour>
		<contour>
			<point x="186" y="596" type="line"/>
			<point x="1006" y="596" type="line"/>
			<point x="1006" y="668" type="line"/>
			<point x="186" y="668" type="line"/>
		</contour>
	</outline>
</glyph>
<glyph name="comma" format="2">
  <advance width="695"/>
  <unicode hex="002C"/>
  <outline>
    <contour>
      <point x="81" y="212" type="curve" smooth="yes"/>
      <point x="81" y="338"/>
      <point x="199" y="456"/>
      <point x="335" y="456" type="curve" smooth="yes"/>
      <point x="473" y="456"/>
      <point x="594" y="347"/>
      <point x="594" y="182" type="curve" smooth="yes"/>
      <point x="594" y="-148"/>
      <point x="246" y="-312"/>
      <point x="-64" y="-312" type="curve"/>
      <point x="-64" y="-238" type="line"/>
      <point x="178" y="-238"/>
      <point x="519" y="-118"/>
      <point x="519" y="182" type="curve"/>
      <point x="592" y="182" type="line"/>
      <point x="592" y="42"/>
      <point x="443.854" y="-20"/>
      <point x="336" y="-20" type="curve" smooth="yes"/>
      <point x="180" y="-20"/>
      <point x="81" y="81"/>
    </contour>
  </outline>
</glyph>
<glyph name="slash" format="2">
	<advance width="1039"/>
	<unicode hex="002F"/>
	<outline>
		<contour>
			<point x="-61" y="-300" type="line"/>
			<point x="34" y="-300" type="line"/>
			<point x="1240" y="1561" type="line"/>
			<point x="1146" y="1561" type="line"/>
		</contour>
	</outline>
</glyph>
<glyph name="zero" format="2">
	<advance width="1399"/>
	<unicode hex="0030"/>
	<outline>
		<contour>
			<point x="624" y="-20" type="curve" smooth="yes"/>
			<point x="1046" y="-20"/>
			<point x="1445" y="454"/>
			<point x="1445" y="1032" type="curve" smooth="yes"/>
			<point x="1445" y="1290"/>
			<point x="1260" y="1520"/>
			<point x="964" y="1520" type="curve" smooth="yes"/>
			<point x="542" y="1520"/>
			<point x="143" y="1046"/>
			<point x="143" y="468" type="curve" smooth="yes"/>
			<point x="143" y="210"/>
			<point x="328" y="-20"/>
		</contour>
		<contour>
			<point x="624" y="47" type="curve" smooth="yes"/>
			<point x="550" y="47"/>
			<point x="538" y="110"/>
			<point x="538" y="221" type="curve" smooth="yes"/>
			<point x="538" y="543"/>
			<point x="741" y="1453"/>
			<point x="964" y="1453" type="curve" smooth="yes"/>
			<point x="1038" y="1453"/>
			<point x="1050" y="1390"/>
			<point x="1050" y="1279" type="curve" smooth="yes"/>
			<point x="1050" y="997"/>
			<point x="847" y="47"/>
		</contour>
	</outline>
</glyph>
<glyph name="one" format="2">
  <advance width="1109"/>
  <unicode hex="0031"/>
  <outline>
    <contour>
      <point x="-65" y="73" type="line"/>
      <point x="805" y="73" type="line"/>
      <point x="805" y="0" type="line"/>
      <point x="-65" y="0" type="line"/>
    </contour>
    <contour>
      <point x="463" y="1427" type="line"/>
      <point x="244" y="1427" type="line"/>
      <point x="244" y="1500" type="line"/>
      <point x="910" y="1500" type="line"/>
      <point x="570" y="0" type="line"/>
      <point x="141" y="0" type="line"/>
    </contour>
  </outline>
</glyph>
<glyph name="two" format="2">
	<advance width="1319"/>
	<unicode hex="0032"/>
	<outline>
		<contour>
			<point x="-80" y="0" type="line"/>
			<point x="1068" y="0" type="line"/>
			<point x="1202" y="570" type="line"/>
			<point x="1128" y="570" type="line"/>
			<point x="1093" y="420" type="line"/>
			<point x="353" y="420" type="line"/>
			<point x="698" y="631" type="line" smooth="yes"/>
			<point x="898.307" y="753.507"/>
			<point x="1293" y="941"/>
			<point x="1293" y="1211" type="curve" smooth="yes"/>
			<point x="1293" y="1421"/>
			<point x="1082" y="1520"/>
			<point x="840" y="1520" type="curve" smooth="yes"/>
			<point x="491" y="1520"/>
			<point x="192" y="1298"/>
			<point x="192" y="1064" type="curve" smooth="yes"/>
			<point x="192" y="910"/>
			<point x="300" y="824"/>
			<point x="420" y="824" type="curve" smooth="yes"/>
			<point x="560" y="824"/>
			<point x="662" y="932"/>
			<point x="662" y="1062" type="curve" smooth="yes"/>
			<point x="662" y="1192"/>
			<point x="567" y="1264"/>
			<point x="438" y="1264" type="curve" smooth="yes"/>
			<point x="322" y="1264"/>
			<point x="194" y="1164"/>
			<point x="194" y="1064" type="curve"/>
			<point x="262" y="1064" type="line"/>
			<point x="262" y="1234"/>
			<point x="432" y="1385"/>
			<point x="640" y="1385" type="curve" smooth="yes"/>
			<point x="782" y="1385"/>
			<point x="850" y="1343"/>
			<point x="850" y="1210" type="curve" smooth="yes"/>
			<point x="850" y="992"/>
			<point x="717.517" y="719.935"/>
			<point x="477" y="572" type="curve" smooth="yes"/>
			<point x="-14" y="270" type="line"/>
		</contour>
	</outline>
</glyph>
<glyph name="three" format="2">
  <advance width="1261"/>
  <unicode hex="0033"/>
  <outline>
    <contour>
      <point x="1162" y="470" type="curve" smooth="yes"/>
      <point x="1162" y="140"/>
      <point x="774" y="-20"/>
      <point x="442" y="-20" type="curve" smooth="yes"/>
      <point x="158" y="-20"/>
      <point x="0" y="193"/>
      <point x="0" y="368" type="curve" smooth="yes"/>
      <point x="0" y="500"/>
      <point x="100" y="596"/>
      <point x="220" y="596" type="curve" smooth="yes"/>
      <point x="331" y="596"/>
      <point x="427" y="507"/>
      <point x="427" y="385" type="curve" smooth="yes"/>
      <point x="427" y="271"/>
      <point x="323" y="180"/>
      <point x="214" y="180" type="curve" smooth="yes"/>
      <point x="106" y="180"/>
      <point x="2" y="268"/>
      <point x="2" y="368" type="curve"/>
      <point x="75" y="368" type="line"/>
      <point x="75" y="198"/>
      <point x="226" y="49"/>
      <point x="402" y="49" type="curve" smooth="yes"/>
      <point x="660" y="49"/>
      <point x="740" y="312"/>
      <point x="740" y="530" type="curve" smooth="yes"/>
      <point x="740" y="678"/>
      <point x="714" y="775"/>
      <point x="496" y="775" type="curve"/>
      <point x="496" y="820" type="line"/>
      <point x="928" y="820"/>
      <point x="1162" y="691"/>
    </contour>
    <contour>
      <point x="496" y="802" type="curve"/>
      <point x="496" y="847" type="line"/>
      <point x="784" y="847"/>
      <point x="860" y="1134"/>
      <point x="860" y="1262" type="curve" smooth="yes"/>
      <point x="860" y="1390"/>
      <point x="830" y="1448"/>
      <point x="692" y="1448" type="curve" smooth="yes"/>
      <point x="559" y="1448"/>
      <point x="354" y="1370"/>
      <point x="354" y="1200" type="curve"/>
      <point x="281" y="1200" type="line"/>
      <point x="281" y="1310"/>
      <point x="394" y="1393"/>
      <point x="495" y="1393" type="curve" smooth="yes"/>
      <point x="604" y="1393"/>
      <point x="708" y="1307"/>
      <point x="708" y="1187" type="curve" smooth="yes"/>
      <point x="708" y="1057"/>
      <point x="595" y="976"/>
      <point x="495" y="976" type="curve" smooth="yes"/>
      <point x="384" y="976"/>
      <point x="279" y="1068"/>
      <point x="279" y="1200" type="curve" smooth="yes"/>
      <point x="279" y="1405"/>
      <point x="548" y="1518"/>
      <point x="752" y="1518" type="curve" smooth="yes"/>
      <point x="975" y="1518"/>
      <point x="1282" y="1433"/>
      <point x="1282" y="1212" type="curve" smooth="yes"/>
      <point x="1282" y="1012"/>
      <point x="958" y="802"/>
    </contour>
  </outline>
</glyph>
<glyph name="four" format="2">
	<advance width="1451"/>
	<unicode hex="0034"/>
	<outline>
		<contour>
			<point x="600" y="0" type="line"/>
			<point x="1029" y="0" type="line"/>
			<point x="1432" y="1500" type="line"/>
			<point x="1052" y="1500" type="line"/>
			<point x="55" y="394" type="line"/>
			<point x="1350" y="394" type="line"/>
			<point x="1350" y="467" type="line"/>
			<point x="227" y="467" type="line"/>
			<point x="906" y="1218" type="line"/>
		</contour>
		<contour>
			<point x="430" y="0" type="line"/>
			<point x="1200" y="0" type="line"/>
			<point x="1200" y="73" type="line"/>
			<point x="430" y="73" type="line"/>
		</contour>
	</outline>
</glyph>
<glyph name="six" format="2">
	<advance width="1319"/>
	<unicode hex="0036"/>
	<outline>
		<contour>
			<point x="568" y="-20" type="curve" smooth="yes"/>
			<point x="910" y="-20"/>
			<point x="1279" y="220"/>
			<point x="1279" y="600" type="curve" smooth="yes"/>
			<point x="1279" y="879"/>
			<point x="1052" y="990"/>
			<point x="850" y="990" type="curve" smooth="yes"/>
			<point x="528" y="990"/>
			<point x="428" y="394"/>
			<point x="428" y="160" type="curve"/>
			<point x="506" y="160" type="line"/>
			<point x="506" y="381"/>
			<point x="633" y="889"/>
			<point x="779" y="889" type="curve" smooth="yes"/>
			<point x="827" y="889"/>
			<point x="840" y="853"/>
			<point x="840" y="746" type="curve" smooth="yes"/>
			<point x="840" y="538"/>
			<point x="723" y="53"/>
			<point x="582" y="53" type="curve" smooth="yes"/>
			<point x="530" y="53"/>
			<point x="506" y="72"/>
			<point x="506" y="160" type="curve"/>
			<point x="510" y="480" type="line"/>
			<point x="510" y="744"/>
			<point x="862" y="1453"/>
			<point x="1330" y="1453" type="curve"/>
			<point x="1330" y="1520" type="line"/>
			<point x="644" y="1520"/>
			<point x="100" y="945"/>
			<point x="100" y="439" type="curve" smooth="yes"/>
			<point x="100" y="119"/>
			<point x="306" y="-20"/>
		</contour>
	</outline>
</glyph>
<glyph name="seven" format="2">
  <advance width="1215"/>
  <unicode hex="0037"/>
  <outline>
    <contour>
      <point x="271" y="212" type="curve" smooth="yes"/>
      <point x="271" y="410"/>
      <point x="490" y="536"/>
      <point x="678" y="729" type="curve" smooth="yes"/>
      <point x="808" y="863"/>
      <point x="859" y="920"/>
      <point x="981" y="1070" type="curve"/>
      <point x="338" y="1070" type="line"/>
      <point x="305" y="920" type="line"/>
      <point x="230" y="920" type="line"/>
      <point x="361" y="1500" type="line"/>
      <point x="1433" y="1500" type="line"/>
      <point x="1433" y="1500"/>
      <point x="1080" y="1053"/>
      <point x="851" y="805" type="curve" smooth="yes"/>
      <point x="699" y="641"/>
      <point x="633" y="594"/>
      <point x="633" y="504" type="curve" smooth="yes"/>
      <point x="633" y="418"/>
      <point x="752" y="348"/>
      <point x="752" y="216" type="curve" smooth="yes"/>
      <point x="752" y="82"/>
      <point x="652" y="-20"/>
      <point x="504" y="-20" type="curve" smooth="yes"/>
      <point x="376" y="-20"/>
      <point x="271" y="54"/>
    </contour>
  </outline>
</glyph>
<glyph name="eight" format="2">
	<advance width="1339"/>
	<unicode hex="0038"/>
	<outline>
		<contour>
			<point x="590" y="-20" type="curve" smooth="yes"/>
			<point x="992" y="-20"/>
			<point x="1200" y="220"/>
			<point x="1200" y="460" type="curve" smooth="yes"/>
			<point x="1200" y="660"/>
			<point x="1012" y="779"/>
			<point x="670" y="779" type="curve" smooth="yes"/>
			<point x="268" y="779"/>
			<point x="61" y="540"/>
			<point x="61" y="300" type="curve" smooth="yes"/>
			<point x="61" y="100"/>
			<point x="248" y="-20"/>
		</contour>
		<contour>
			<point x="529" y="53" type="curve" smooth="yes"/>
			<point x="470" y="53"/>
			<point x="460" y="105"/>
			<point x="460" y="193" type="curve" smooth="yes"/>
			<point x="460" y="381"/>
			<point x="571" y="733"/>
			<point x="710" y="733" type="curve" smooth="yes"/>
			<point x="769" y="733"/>
			<point x="779" y="672"/>
			<point x="779" y="584" type="curve" smooth="yes"/>
			<point x="779" y="396"/>
			<point x="668" y="53"/>
		</contour>
		<contour>
			<point x="704" y="807" type="curve" smooth="yes"/>
			<point x="662" y="807"/>
			<point x="660" y="868"/>
			<point x="660" y="916" type="curve" smooth="yes"/>
			<point x="660" y="1104"/>
			<point x="788" y="1447"/>
			<point x="866" y="1447" type="curve" smooth="yes"/>
			<point x="918" y="1447"/>
			<point x="920" y="1374"/>
			<point x="920" y="1347" type="curve" smooth="yes"/>
			<point x="920" y="1159"/>
			<point x="822" y="807"/>
		</contour>
		<contour>
			<point x="710" y="760" type="curve" smooth="yes"/>
			<point x="992" y="760"/>
			<point x="1340" y="929"/>
			<point x="1340" y="1189" type="curve" smooth="yes"/>
			<point x="1340" y="1349"/>
			<point x="1172" y="1520"/>
			<point x="870" y="1520" type="curve" smooth="yes"/>
			<point x="528" y="1520"/>
			<point x="240" y="1290"/>
			<point x="240" y="1050" type="curve" smooth="yes"/>
			<point x="240" y="890"/>
			<point x="468" y="760"/>
		</contour>
	</outline>
</glyph>
<glyph name="less" format="2">
	<advance width="1119"/>
	<unicode hex="003C"/>
	<outline>
		<contour>
			<point x="221" y="742" type="line"/>
			<point x="1180" y="1152" type="line"/>
			<point x="1180" y="1233" type="line"/>
			<point x="221" y="823" type="line"/>
		</contour>
		<contour>
			<point x="1000" y="316" type="line"/>
			<point x="1000" y="402" type="line"/>
			<point x="221" y="812" type="line"/>
			<point x="221" y="727" type="line"/>
		</contour>
	</outline>
</glyph>
<glyph name="A" format="2">
	<advance width="1639"/>
	<unicode hex="0041"/>
	<anchor x="1126" y="0" name="cedilla"/>
	<anchor x="546" y="0" name="bottom"/>
	<anchor x="1014" y="1500" name="top"/>
	<outline>
		<contour>
			<point x="14" y="0" type="line"/>
			<point x="98" y="0" type="line"/>
			<point x="788" y="1200" type="line"/>
			<point x="910" y="0" type="line"/>
			<point x="1359" y="0" type="line"/>
			<point x="1170" y="1529" type="line"/>
			<point x="896" y="1529" type="line"/>
		</contour>
		<contour>
			<point x="-100" y="0" type="line"/>
			<point x="340" y="0" type="line"/>
			<point x="340" y="73" type="line"/>
			<point x="-100" y="73" type="line"/>
		</contour>
		<contour>
			<point x="680" y="0" type="line"/>
			<point x="1500" y="0" type="line"/>
			<point x="1500" y="73" type="line"/>
			<point x="680" y="73" type="line"/>
		</contour>
		<contour>
			<point x="359" y="453" type="line"/>
			<point x="1020" y="453" type="line"/>
			<point x="1020" y="526" type="line"/>
			<point x="359" y="526" type="line"/>
		</contour>
	</outline>
</glyph>
<glyph name="B" format="2">
	<advance width="1479"/>
	<unicode hex="0042"/>
	<anchor x="804" y="1500" name="top"/>
	<anchor x="506" y="0" name="bottom"/>
	<outline>
		<contour>
			<point x="80" y="0" type="line"/>
			<point x="510" y="0" type="line"/>
			<point x="859" y="1500" type="line"/>
			<point x="430" y="1500" type="line"/>
		</contour>
		<contour>
			<point x="-100" y="0" type="line"/>
			<point x="641" y="0" type="line" smooth="yes"/>
			<point x="1002" y="0"/>
			<point x="1380" y="139"/>
			<point x="1380" y="439" type="curve" smooth="yes"/>
			<point x="1380" y="699"/>
			<point x="1094" y="779"/>
			<point x="812" y="779" type="curve" smooth="yes"/>
			<point x="540" y="779" type="line"/>
			<point x="540" y="733" type="line"/>
			<point x="752" y="733" type="line" smooth="yes"/>
			<point x="863" y="733"/>
			<point x="920" y="698"/>
			<point x="920" y="520" type="curve" smooth="yes"/>
			<point x="920" y="222"/>
			<point x="784" y="73"/>
			<point x="641" y="73" type="curve" smooth="yes"/>
			<point x="-100" y="73" type="line"/>
		</contour>
		<contour>
			<point x="540" y="760" type="line"/>
			<point x="779" y="760" type="line" smooth="yes"/>
			<point x="1101" y="760"/>
			<point x="1490" y="891"/>
			<point x="1490" y="1170" type="curve" smooth="yes"/>
			<point x="1490" y="1410"/>
			<point x="1291" y="1500"/>
			<point x="930" y="1500" type="curve" smooth="yes"/>
			<point x="250" y="1500" type="line"/>
			<point x="250" y="1427" type="line"/>
			<point x="920" y="1427" type="line" smooth="yes"/>
			<point x="1012" y="1427"/>
			<point x="1050" y="1388"/>
			<point x="1050" y="1270" type="curve" smooth="yes"/>
			<point x="1050" y="1012"/>
			<point x="931" y="807"/>
			<point x="779" y="807" type="curve" smooth="yes"/>
			<point x="540" y="807" type="line"/>
		</contour>
	</outline>
</glyph>
<glyph name="D" format="2">
	<advance width="1639"/>
	<unicode hex="0044"/>
	<anchor x="613" y="0" name="cedilla"/>
	<anchor x="613" y="0" name="bottom"/>
	<anchor x="904" y="1500" name="top"/>
	<outline>
		<contour>
			<point x="-80" y="0" type="line"/>
			<point x="730" y="0" type="line" smooth="yes"/>
			<point x="1276" y="0"/>
			<point x="1641" y="464"/>
			<point x="1641" y="950" type="curve" smooth="yes"/>
			<point x="1641" y="1337"/>
			<point x="1355" y="1500"/>
			<point x="1029" y="1500" type="curve" smooth="yes"/>
			<point x="240" y="1500" type="line"/>
			<point x="240" y="1427" type="line"/>
			<point x="971" y="1427" type="line" smooth="yes"/>
			<point x="1159" y="1427"/>
			<point x="1182" y="1314"/>
			<point x="1182" y="1130" type="curve" smooth="yes"/>
			<point x="1182" y="806"/>
			<point x="1018" y="73"/>
			<point x="650" y="73" type="curve" smooth="yes"/>
			<point x="-80" y="73" type="line"/>
		</contour>
		<contour>
			<point x="100" y="0" type="line"/>
			<point x="529" y="0" type="line"/>
			<point x="870" y="1500" type="line"/>
			<point x="439" y="1500" type="line"/>
		</contour>
	</outline>
</glyph>
<glyph name="F" format="2">
  <advance width="1291"/>
  <unicode hex="0046"/>
  <anchor x="286" y="0" name="bottom"/>
  <anchor x="894" y="1500" name="top"/>
  <outline>
    <contour>
      <point x="678" y="709" type="curve" smooth="yes"/>
      <point x="607" y="709" type="line"/>
      <point x="607" y="783" type="line"/>
      <point x="678" y="783" type="line" smooth="yes"/>
      <point x="810" y="783"/>
      <point x="930" y="891"/>
      <point x="1016" y="1025" type="curve"/>
      <point x="1090" y="1025" type="line"/>
      <point x="959" y="456" type="line"/>
      <point x="887" y="456" type="line"/>
      <point x="858" y="590"/>
      <point x="812" y="709"/>
    </contour>
    <contour>
      <point x="-100" y="73" type="line"/>
      <point x="700" y="73" type="line"/>
      <point x="700" y="0" type="line"/>
      <point x="-100" y="0" type="line"/>
    </contour>
    <contour>
      <point x="418" y="1500" type="line"/>
      <point x="848" y="1500" type="line"/>
      <point x="500" y="0" type="line"/>
      <point x="70" y="0" type="line"/>
    </contour>
    <contour>
      <point x="238" y="1500" type="line"/>
      <point x="1461" y="1500" type="line"/>
      <point x="1365" y="1090" type="line"/>
      <point x="1292" y="1090" type="line"/>
      <point x="1282" y="1304"/>
      <point x="1192" y="1427"/>
      <point x="958" y="1427" type="curve" smooth="yes"/>
      <point x="238" y="1427" type="line"/>
    </contour>
  </outline>
</glyph>
<glyph name="F" format="2">
	<advance width="1291"/>
	<unicode hex="0046"/>
	<anchor x="894" y="1500" name="top"/>
	<anchor x="286" y="0" name="bottom"/>
	<outline>
		<contour>
			<point x="70" y="0" type="line"/>
			<point x="500" y="0" type="line"/>
			<point x="848" y="1500" type="line"/>
			<point x="418" y="1500" type="line"/>
		</contour>
		<contour>
			<point x="-100" y="0" type="line"/>
			<point x="700" y="0" type="line"/>
			<point x="700" y="73" type="line"/>
			<point x="-100" y="73" type="line"/>
		</contour>
		<contour>
			<point x="887" y="456" type="curve"/>
			<point x="959" y="456" type="line"/>
			<point x="1090" y="1025" type="line"/>
			<point x="1016" y="1025" type="line"/>
			<point x="930" y="891"/>
			<point x="810" y="783"/>
			<point x="678" y="783" type="curve" smooth="yes"/>
			<point x="607" y="783" type="line"/>
			<point x="607" y="709" type="line"/>
			<point x="678" y="709" type="line" smooth="yes"/>
			<point x="812" y="709"/>
			<point x="858" y="590"/>
		</contour>
		<contour>
			<point x="1292" y="1090" type="curve"/>
			<point x="1365" y="1090" type="line"/>
			<point x="1461" y="1500" type="line"/>
			<point x="238" y="1500" type="line"/>
			<point x="238" y="1427" type="line"/>
			<point x="958" y="1427" type="line" smooth="yes"/>
			<point x="1192" y="1427"/>
			<point x="1282" y="1304"/>
		</contour>
	</outline>
</glyph>
<glyph name="G" format="2">
  <advance width="1665"/>
  <unicode hex="0047"/>
  <anchor x="716" y="0" name="cedilla"/>
  <anchor x="717" y="0" name="bottom"/>
  <anchor x="1076" y="1500" name="top"/>
  <outline>
    <contour>
      <point x="1057" y="561" type="line"/>
      <point x="1504" y="561" type="line"/>
      <point x="1443" y="330" type="line"/>
      <point x="1353" y="204"/>
      <point x="1036" y="-20"/>
      <point x="710" y="-20" type="curve" smooth="yes"/>
      <point x="364" y="-20"/>
      <point x="100" y="144"/>
      <point x="100" y="510" type="curve" smooth="yes"/>
      <point x="100" y="1096"/>
      <point x="584" y="1520"/>
      <point x="1070" y="1520" type="curve" smooth="yes"/>
      <point x="1351" y="1520"/>
      <point x="1549" y="1315"/>
      <point x="1559" y="1029" type="curve"/>
      <point x="1518" y="1029" type="line"/>
      <point x="1463" y="1293"/>
      <point x="1318" y="1427"/>
      <point x="1150" y="1427" type="curve" smooth="yes"/>
      <point x="761" y="1427"/>
      <point x="540" y="795"/>
      <point x="540" y="391" type="curve" smooth="yes"/>
      <point x="540" y="187"/>
      <point x="582" y="54"/>
      <point x="730" y="54" type="curve" smooth="yes"/>
      <point x="837" y="54"/>
      <point x="905" y="126"/>
      <point x="975" y="250" type="curve"/>
    </contour>
    <contour>
      <point x="840" y="606" type="line"/>
      <point x="1580" y="606" type="line"/>
      <point x="1580" y="533" type="line"/>
      <point x="840" y="533" type="line"/>
    </contour>
    <contour>
      <point x="1637" y="1500" type="line"/>
      <point x="1699" y="1500" type="line"/>
      <point x="1592" y="1029" type="line"/>
      <point x="1518" y="1029" type="line"/>
      <point x="1496" y="1191" type="line"/>
      <point x="1455" y="1256"/>
      <point x="1417" y="1318"/>
      <point x="1378" y="1380" type="curve"/>
    </contour>
  </outline>
</glyph>
<glyph name="H" format="2">
  <advance width="1669"/>
  <unicode hex="0048"/>
  <anchor x="278" y="0" name="cedilla"/>
  <anchor x="721" y="0" name="bottom"/>
  <anchor x="1049" y="1500" name="top"/>
  <outline>
    <contour>
      <point x="770" y="73" type="line"/>
      <point x="1529" y="73" type="line"/>
      <point x="1529" y="0" type="line"/>
      <point x="770" y="0" type="line"/>
    </contour>
    <contour>
      <point x="1100" y="1500" type="line"/>
      <point x="1859" y="1500" type="line"/>
      <point x="1859" y="1427" type="line"/>
      <point x="1100" y="1427" type="line"/>
    </contour>
    <contour>
      <point x="1260" y="1500" type="line"/>
      <point x="1689" y="1500" type="line"/>
      <point x="1350" y="0" type="line"/>
      <point x="920" y="0" type="line"/>
    </contour>
    <contour>
      <point x="-90" y="73" type="line"/>
      <point x="670" y="73" type="line"/>
      <point x="670" y="0" type="line"/>
      <point x="-90" y="0" type="line"/>
    </contour>
    <contour>
      <point x="240" y="1500" type="line"/>
      <point x="1000" y="1500" type="line"/>
      <point x="1000" y="1427" type="line"/>
      <point x="240" y="1427" type="line"/>
    </contour>
    <contour>
      <point x="420" y="1500" type="line"/>
      <point x="850" y="1500" type="line"/>
      <point x="510" y="0" type="line"/>
      <point x="80" y="0" type="line"/>
    </contour>
    <contour>
      <point x="404" y="776" type="line"/>
      <point x="1124" y="776" type="line"/>
      <point x="1124" y="703" type="line"/>
      <point x="404" y="703" type="line"/>
    </contour>
  </outline>
</glyph>
<glyph name="J" format="2">
  <advance width="1251"/>
  <unicode hex="004A"/>
  <anchor x="946" y="1500" name="top"/>
  <anchor x="308" y="0" name="bottom"/>
  <outline>
    <contour>
      <point x="544" y="1500" type="line"/>
      <point x="1442" y="1500" type="line"/>
      <point x="1442" y="1427" type="line"/>
      <point x="544" y="1427" type="line"/>
    </contour>
    <contour>
      <point x="814" y="1500" type="line"/>
      <point x="1242" y="1500" type="line"/>
      <point x="982" y="340" type="line"/>
      <point x="832" y="109"/>
      <point x="596" y="-61"/>
      <point x="338" y="-61" type="curve" smooth="yes"/>
      <point x="114" y="-61"/>
      <point x="-64" y="55"/>
      <point x="-64" y="255" type="curve" smooth="yes"/>
      <point x="-64" y="399"/>
      <point x="54" y="500"/>
      <point x="175" y="500" type="curve" smooth="yes"/>
      <point x="285" y="500"/>
      <point x="413" y="410"/>
      <point x="413" y="268" type="curve" smooth="yes"/>
      <point x="413" y="142"/>
      <point x="294" y="43"/>
      <point x="175" y="43" type="curve" smooth="yes"/>
      <point x="64" y="43"/>
      <point x="-62" y="145"/>
      <point x="-62" y="255" type="curve"/>
      <point x="11" y="255" type="line"/>
      <point x="13" y="74"/>
      <point x="210" y="14"/>
      <point x="299" y="14" type="curve" smooth="yes"/>
      <point x="412" y="14"/>
      <point x="492.428" y="114.764"/>
      <point x="554" y="380" type="curve" smooth="yes"/>
    </contour>
  </outline>
</glyph>
<glyph name="K" format="2">
	<advance width="1693"/>
	<unicode hex="004B"/>
	<anchor x="288" y="0" name="cedilla"/>
	<anchor x="710" y="0" name="bottom"/>
	<anchor x="1026" y="1500" name="top"/>
	<outline>
		<contour>
			<point x="309" y="434" type="line"/>
			<point x="424" y="434" type="line"/>
			<point x="1691" y="1496" type="line"/>
			<point x="1586" y="1496" type="line"/>
		</contour>
		<contour>
			<point x="-90" y="0" type="line"/>
			<point x="670" y="0" type="line"/>
			<point x="670" y="73" type="line"/>
			<point x="-90" y="73" type="line"/>
		</contour>
		<contour>
			<point x="764" y="0" type="line"/>
			<point x="1576" y="0" type="line"/>
			<point x="1576" y="73" type="line"/>
			<point x="764" y="73" type="line"/>
		</contour>
		<contour>
			<point x="80" y="0" type="line"/>
			<point x="510" y="0" type="line"/>
			<point x="850" y="1500" type="line"/>
			<point x="420" y="1500" type="line"/>
		</contour>
		<contour>
			<point x="941" y="0" type="line"/>
			<point x="1420" y="0" type="line"/>
			<point x="1048" y="1025" type="line"/>
			<point x="686" y="740" type="line"/>
		</contour>
		<contour>
			<point x="240" y="1427" type="line"/>
			<point x="1040" y="1427" type="line"/>
			<point x="1040" y="1500" type="line"/>
			<point x="240" y="1500" type="line"/>
		</contour>
		<contour>
			<point x="1334" y="1427" type="line"/>
			<point x="1814" y="1427" type="line"/>
			<point x="1814" y="1500" type="line"/>
			<point x="1334" y="1500" type="line"/>
		</contour>
	</outline>
</glyph>
<glyph name="L" format="2">
  <advance width="1336"/>
  <unicode hex="004C"/>
  <anchor x="516" y="0" name="cedilla"/>
  <anchor x="516" y="0" name="bottom"/>
  <anchor x="614" y="1500" name="top"/>
  <outline>
    <contour>
      <point x="418" y="1500" type="line"/>
      <point x="848" y="1500" type="line"/>
      <point x="500" y="0" type="line"/>
      <point x="70" y="0" type="line"/>
    </contour>
    <contour>
      <point x="238" y="1500" type="line"/>
      <point x="1027" y="1500" type="line"/>
      <point x="1027" y="1427" type="line"/>
      <point x="238" y="1427" type="line"/>
    </contour>
    <contour>
      <point x="1174" y="0" type="line"/>
      <point x="-100" y="0" type="line"/>
      <point x="-100" y="73" type="line"/>
      <point x="590" y="73" type="line" smooth="yes"/>
      <point x="904" y="73"/>
      <point x="1086" y="196"/>
      <point x="1204" y="450" type="curve"/>
      <point x="1277" y="450" type="line"/>
    </contour>
  </outline>
</glyph>
<glyph name="N" format="2">
	<advance width="1572"/>
	<unicode hex="004E"/>
	<anchor x="966" y="1500" name="top"/>
	<anchor x="656" y="0" name="bottom"/>
	<outline>
		<contour>
			<point x="1157" y="-20" type="line"/>
			<point x="1260" y="-20" type="line"/>
			<point x="1606" y="1500" type="line"/>
			<point x="1529" y="1500" type="line"/>
			<point x="1352" y="718" type="line"/>
			<point x="983" y="1500" type="line"/>
			<point x="473" y="1500" type="line"/>
		</contour>
		<contour>
			<point x="-80" y="0" type="line"/>
			<point x="404" y="0" type="line"/>
			<point x="404" y="73" type="line"/>
			<point x="-80" y="73" type="line"/>
		</contour>
		<contour>
			<point x="109" y="0" type="line"/>
			<point x="188" y="0" type="line"/>
			<point x="527" y="1500" type="line"/>
			<point x="240" y="1500" type="line"/>
			<point x="240" y="1427" type="line"/>
			<point x="438" y="1427" type="line"/>
		</contour>
		<contour>
			<point x="1289" y="1427" type="line"/>
			<point x="1797" y="1427" type="line"/>
			<point x="1797" y="1500" type="line"/>
			<point x="1289" y="1500" type="line"/>
		</contour>
	</outline>
</glyph>
<glyph name="O" format="2">
  <advance width="1579"/>
  <unicode hex="004F"/>
  <anchor x="656" y="0" name="bottom"/>
  <anchor x="1006" y="1500" name="top"/>
  <outline>
    <contour>
      <point x="670" y="-20" type="curve" smooth="yes"/>
      <point x="304" y="-20"/>
      <point x="100" y="184"/>
      <point x="100" y="510" type="curve" smooth="yes"/>
      <point x="100" y="1136"/>
      <point x="584" y="1520"/>
      <point x="1010" y="1520" type="curve" smooth="yes"/>
      <point x="1356" y="1520"/>
      <point x="1580" y="1316"/>
      <point x="1580" y="990" type="curve" smooth="yes"/>
      <point x="1580" y="364"/>
      <point x="1115" y="-20"/>
    </contour>
    <contour>
      <point x="1010" y="1453" type="curve" smooth="yes"/>
      <point x="762" y="1453"/>
      <point x="520" y="734"/>
      <point x="520" y="270" type="curve" smooth="yes"/>
      <point x="520" y="66"/>
      <point x="563" y="49"/>
      <point x="670" y="49" type="curve" smooth="yes"/>
      <point x="938" y="49"/>
      <point x="1160" y="766"/>
      <point x="1160" y="1230" type="curve" smooth="yes"/>
      <point x="1160" y="1394"/>
      <point x="1117" y="1453"/>
    </contour>
  </outline>
</glyph>
<glyph name="P" format="2">
	<advance width="1469"/>
	<unicode hex="0050"/>
	<anchor x="836" y="1500" name="top"/>
	<anchor x="279" y="0" name="bottom"/>
	<outline>
		<contour>
			<point x="70" y="0" type="line"/>
			<point x="500" y="0" type="line"/>
			<point x="850" y="1500" type="line"/>
			<point x="420" y="1500" type="line"/>
		</contour>
		<contour>
			<point x="-90" y="0" type="line"/>
			<point x="700" y="0" type="line"/>
			<point x="700" y="73" type="line"/>
			<point x="-90" y="73" type="line"/>
		</contour>
		<contour>
			<point x="630" y="627" type="line"/>
			<point x="850" y="627" type="line" smooth="yes"/>
			<point x="1252" y="627"/>
			<point x="1529" y="864"/>
			<point x="1529" y="1164" type="curve" smooth="yes"/>
			<point x="1529" y="1404"/>
			<point x="1312" y="1500"/>
			<point x="1050" y="1500" type="curve" smooth="yes"/>
			<point x="240" y="1500" type="line"/>
			<point x="240" y="1427" type="line"/>
			<point x="950" y="1427" type="line" smooth="yes"/>
			<point x="1042" y="1427"/>
			<point x="1074" y="1361"/>
			<point x="1074" y="1243" type="curve" smooth="yes"/>
			<point x="1074" y="1025"/>
			<point x="982" y="700"/>
			<point x="750" y="700" type="curve" smooth="yes"/>
			<point x="630" y="700" type="line"/>
		</contour>
	</outline>
</glyph>
<glyph name="Q" format="2">
  <advance width="1519"/>
  <unicode hex="0051"/>
  <anchor x="1011" y="1500" name="top"/>
  <outline>
    <contour>
      <point x="1061" y="-427" type="curve"/>
      <point x="1061" y="-500" type="line"/>
      <point x="555" y="-500"/>
      <point x="339" y="-326"/>
      <point x="439" y="20" type="curve"/>
      <point x="591" y="-7"/>
      <point x="748" y="-5"/>
      <point x="910" y="20" type="curve"/>
      <point x="810" y="-343"/>
      <point x="913" y="-427"/>
    </contour>
    <contour>
      <point x="1010" y="1453" type="curve" smooth="yes"/>
      <point x="762" y="1453"/>
      <point x="520" y="734"/>
      <point x="520" y="270" type="curve" smooth="yes"/>
      <point x="520" y="66"/>
      <point x="563" y="47"/>
      <point x="670" y="47" type="curve" smooth="yes"/>
      <point x="938" y="47"/>
      <point x="1160" y="766"/>
      <point x="1160" y="1230" type="curve" smooth="yes"/>
      <point x="1160" y="1394"/>
      <point x="1117" y="1453"/>
    </contour>
    <contour>
      <point x="670" y="-20" type="curve" smooth="yes"/>
      <point x="304" y="-20"/>
      <point x="100" y="184"/>
      <point x="100" y="510" type="curve" smooth="yes"/>
      <point x="100" y="1136"/>
      <point x="584" y="1520"/>
      <point x="1010" y="1520" type="curve" smooth="yes"/>
      <point x="1356" y="1520"/>
      <point x="1580" y="1316"/>
      <point x="1580" y="990" type="curve" smooth="yes"/>
      <point x="1580" y="364"/>
      <point x="1115" y="-20"/>
    </contour>
  </outline>
</glyph>
<glyph name="R" format="2">
	<advance width="1639"/>
	<unicode hex="0052"/>
	<anchor x="316" y="0" name="cedilla"/>
	<anchor x="746" y="0" name="bottom"/>
	<anchor x="916" y="1500" name="top"/>
	<outline>
		<contour>
			<point x="109" y="0" type="line"/>
			<point x="540" y="0" type="line"/>
			<point x="891" y="1500" type="line"/>
			<point x="460" y="1500" type="line"/>
		</contour>
		<contour>
			<point x="-70" y="0" type="line"/>
			<point x="760" y="0" type="line"/>
			<point x="760" y="73" type="line"/>
			<point x="-70" y="73" type="line"/>
		</contour>
		<contour>
			<point x="1189" y="-20" type="curve" smooth="yes"/>
			<point x="1300" y="-20"/>
			<point x="1399" y="-4"/>
			<point x="1471" y="23" type="curve"/>
			<point x="1448" y="96" type="line"/>
			<point x="1421" y="84"/>
			<point x="1402" y="72"/>
			<point x="1360" y="72" type="curve" smooth="yes"/>
			<point x="1154" y="72"/>
			<point x="1677" y="770"/>
			<point x="891" y="770" type="curve" smooth="yes"/>
			<point x="660" y="770" type="line"/>
			<point x="660" y="733" type="line"/>
			<point x="750" y="733" type="line" smooth="yes"/>
			<point x="1242" y="733"/>
			<point x="543" y="-20"/>
		</contour>
		<contour>
			<point x="660" y="764" type="line"/>
			<point x="870" y="764" type="line" smooth="yes"/>
			<point x="1272" y="764"/>
			<point x="1561" y="921"/>
			<point x="1561" y="1200" type="curve" smooth="yes"/>
			<point x="1561" y="1421"/>
			<point x="1332" y="1500"/>
			<point x="1070" y="1500" type="curve" smooth="yes"/>
			<point x="260" y="1500" type="line"/>
			<point x="260" y="1427" type="line"/>
			<point x="930" y="1427" type="line" smooth="yes"/>
			<point x="1090" y="1427"/>
			<point x="1130" y="1377"/>
			<point x="1130" y="1279" type="curve" smooth="yes"/>
			<point x="1130" y="1121"/>
			<point x="1062" y="807"/>
			<point x="770" y="807" type="curve" smooth="yes"/>
			<point x="660" y="807" type="line"/>
		</contour>
	</outline>
</glyph>
<glyph name="S" format="2">
  <advance width="1261"/>
  <unicode hex="0053"/>
  <anchor x="535" y="0" name="cedilla"/>
  <anchor x="538" y="0" name="bottom"/>
  <anchor x="806" y="1500" name="top"/>
  <outline>
    <contour>
      <point x="1139" y="1223" type="line"/>
      <point x="1105" y="1281"/>
      <point x="1073" y="1327"/>
      <point x="1032" y="1410" type="curve"/>
      <point x="1302" y="1520" type="line"/>
      <point x="1365" y="1520" type="line"/>
      <point x="1251" y="1029" type="line"/>
      <point x="1178" y="1029" type="line"/>
    </contour>
    <contour>
      <point x="1251" y="1029" type="curve"/>
      <point x="1178" y="1029" type="line"/>
      <point x="1117" y="1247"/>
      <point x="1008" y="1441"/>
      <point x="800" y="1441" type="curve" smooth="yes"/>
      <point x="668" y="1441"/>
      <point x="546" y="1368"/>
      <point x="546" y="1250" type="curve" smooth="yes"/>
      <point x="546" y="980"/>
      <point x="1186" y="1041"/>
      <point x="1186" y="561" type="curve" smooth="yes"/>
      <point x="1186" y="282"/>
      <point x="918" y="-29"/>
      <point x="557" y="-29" type="curve" smooth="yes"/>
      <point x="245" y="-29"/>
      <point x="94" y="270"/>
      <point x="33" y="510" type="curve"/>
      <point x="105" y="510" type="line"/>
      <point x="166" y="312"/>
      <point x="278" y="51"/>
      <point x="536" y="51" type="curve" smooth="yes"/>
      <point x="727" y="51"/>
      <point x="836" y="150"/>
      <point x="836" y="289" type="curve" smooth="yes"/>
      <point x="836" y="639"/>
      <point x="206" y="490"/>
      <point x="206" y="990" type="curve" smooth="yes"/>
      <point x="206" y="1330"/>
      <point x="517" y="1520"/>
      <point x="779" y="1520" type="curve" smooth="yes"/>
      <point x="1035" y="1520"/>
      <point x="1190" y="1291"/>
    </contour>
    <contour>
      <point x="-20" y="-20" type="line"/>
      <point x="-83" y="-20" type="line"/>
      <point x="33" y="510" type="line"/>
      <point x="105" y="510" type="line"/>
      <point x="162" y="262" type="line"/>
      <point x="201" y="191"/>
      <point x="230" y="147"/>
      <point x="260" y="98" type="curve"/>
    </contour>
  </outline>
</glyph>
<glyph name="T" format="2">
	<advance width="1509"/>
	<unicode hex="0054"/>
	<anchor x="626" y="0" name="cedilla"/>
	<anchor x="625" y="0" name="bottom"/>
	<anchor x="965" y="1500" name="top"/>
	<outline>
		<contour>
			<point x="420" y="0" type="line"/>
			<point x="850" y="0" type="line"/>
			<point x="1197" y="1500" type="line"/>
			<point x="768" y="1500" type="line"/>
		</contour>
		<contour>
			<point x="219" y="0" type="line"/>
			<point x="1090" y="0" type="line"/>
			<point x="1090" y="73" type="line"/>
			<point x="219" y="73" type="line"/>
		</contour>
		<contour>
			<point x="141" y="990" type="line"/>
			<point x="213" y="990" type="line"/>
			<point x="331" y="1242"/>
			<point x="504" y="1427"/>
			<point x="697" y="1427" type="curve" smooth="yes"/>
			<point x="1247" y="1427" type="line" smooth="yes"/>
			<point x="1440" y="1427"/>
			<point x="1521" y="1244"/>
			<point x="1523" y="990" type="curve"/>
			<point x="1596" y="990" type="line"/>
			<point x="1711" y="1500" type="line"/>
			<point x="254" y="1500" type="line"/>
		</contour>
	</outline>
</glyph>
<glyph name="U" format="2">
	<advance width="1506"/>
	<unicode hex="0055"/>
	<anchor x="696" y="0" name="cedilla"/>
	<anchor x="696" y="0" name="bottom"/>
	<anchor x="1066" y="1500" name="top"/>
	<outline>
		<contour>
			<point x="664" y="-29" type="curve" smooth="yes"/>
			<point x="980" y="-29"/>
			<point x="1225" y="146"/>
			<point x="1297" y="460" type="curve" smooth="yes"/>
			<point x="1537" y="1500" type="line"/>
			<point x="1464" y="1500" type="line"/>
			<point x="1225" y="460" type="line" smooth="yes"/>
			<point x="1159" y="172"/>
			<point x="952" y="73"/>
			<point x="784" y="73" type="curve" smooth="yes"/>
			<point x="555" y="73"/>
			<point x="554" y="230"/>
			<point x="613" y="480" type="curve" smooth="yes"/>
			<point x="854" y="1500" type="line"/>
			<point x="424" y="1500" type="line"/>
			<point x="184" y="460" type="line" smooth="yes"/>
			<point x="108" y="132"/>
			<point x="338" y="-29"/>
		</contour>
		<contour>
			<point x="234" y="1427" type="line"/>
			<point x="1044" y="1427" type="line"/>
			<point x="1044" y="1500" type="line"/>
			<point x="234" y="1500" type="line"/>
		</contour>
		<contour>
			<point x="1273" y="1427" type="line"/>
			<point x="1697" y="1427" type="line"/>
			<point x="1697" y="1500" type="line"/>
			<point x="1273" y="1500" type="line"/>
		</contour>
	</outline>
</glyph>
<glyph name="V" format="2">
	<advance width="1663"/>
	<unicode hex="0056"/>
	<anchor x="1106" y="1500" name="top"/>
	<anchor x="702" y="0" name="bottom"/>
	<outline>
		<contour>
			<point x="561" y="-29" type="line"/>
			<point x="833" y="-29" type="line"/>
			<point x="1715" y="1500" type="line"/>
			<point x="1632" y="1500" type="line"/>
			<point x="941" y="300" type="line"/>
			<point x="820" y="1500" type="line"/>
			<point x="370" y="1500" type="line"/>
		</contour>
		<contour>
			<point x="230" y="1427" type="line"/>
			<point x="1050" y="1427" type="line"/>
			<point x="1050" y="1500" type="line"/>
			<point x="230" y="1500" type="line"/>
		</contour>
		<contour>
			<point x="1391" y="1427" type="line"/>
			<point x="1863" y="1427" type="line"/>
			<point x="1863" y="1500" type="line"/>
			<point x="1391" y="1500" type="line"/>
		</contour>
	</outline>
</glyph>
<glyph name="X" format="2">
  <advance width="1692"/>
  <unicode hex="0058"/>
  <anchor x="596" y="0" name="bottom"/>
  <anchor x="1146" y="1500" name="top"/>
  <outline>
    <contour>
      <point x="961" y="754" type="line"/>
      <point x="861" y="754" type="line"/>
      <point x="1557" y="1496" type="line"/>
      <point x="1645" y="1496" type="line"/>
    </contour>
    <contour>
      <point x="151" y="0" type="line"/>
      <point x="57" y="0" type="line"/>
      <point x="870" y="834" type="line"/>
      <point x="963" y="834" type="line"/>
    </contour>
    <contour>
      <point x="783" y="73" type="line"/>
      <point x="1583" y="73" type="line"/>
      <point x="1583" y="0" type="line"/>
      <point x="783" y="0" type="line"/>
    </contour>
    <contour>
      <point x="-109" y="73" type="line"/>
      <point x="370" y="73" type="line"/>
      <point x="370" y="0" type="line"/>
      <point x="-109" y="0" type="line"/>
    </contour>
    <contour>
      <point x="1100" y="1427" type="line"/>
      <point x="300" y="1427" type="line"/>
      <point x="300" y="1500" type="line"/>
      <point x="1100" y="1500" type="line"/>
    </contour>
    <contour>
      <point x="1779" y="1427" type="line"/>
      <point x="1340" y="1427" type="line"/>
      <point x="1340" y="1500" type="line"/>
      <point x="1779" y="1500" type="line"/>
    </contour>
    <contour>
      <point x="1445" y="0" type="line"/>
      <point x="975" y="0" type="line"/>
      <point x="439" y="1500" type="line"/>
      <point x="902" y="1500" type="line"/>
    </contour>
  </outline>
</glyph>
<glyph name="Y" format="2">
  <advance width="1559"/>
  <unicode hex="0059"/>
  <anchor x="683" y="0" name="bottom"/>
  <anchor x="1086" y="1500" name="top"/>
  <outline>
    <contour>
      <point x="1760" y="1427" type="line"/>
      <point x="1340" y="1427" type="line"/>
      <point x="1340" y="1500" type="line"/>
      <point x="1760" y="1500" type="line"/>
    </contour>
    <contour>
      <point x="1070" y="1427" type="line"/>
      <point x="230" y="1427" type="line"/>
      <point x="230" y="1500" type="line"/>
      <point x="1070" y="1500" type="line"/>
    </contour>
    <contour>
      <point x="279" y="73" type="line"/>
      <point x="1090" y="73" type="line"/>
      <point x="1090" y="0" type="line"/>
      <point x="279" y="0" type="line"/>
    </contour>
    <contour>
      <point x="1072" y="830" type="line"/>
      <point x="1555" y="1496" type="line"/>
      <point x="1645" y="1496" type="line"/>
      <point x="1046" y="688" type="line"/>
      <point x="891" y="0" type="line"/>
      <point x="460" y="0" type="line"/>
      <point x="630" y="754" type="line"/>
      <point x="370" y="1500" type="line"/>
      <point x="870" y="1500" type="line"/>
    </contour>
  </outline>
</glyph>
<glyph name="Z" format="2">
  <advance width="1327"/>
  <unicode hex="005A"/>
  <anchor x="456" y="0" name="bottom"/>
  <anchor x="796" y="1500" name="top"/>
  <outline>
    <contour>
      <point x="928" y="1427" type="line"/>
      <point x="738" y="1427" type="line" smooth="yes"/>
      <point x="465" y="1427"/>
      <point x="344" y="1314"/>
      <point x="214" y="1100" type="curve"/>
      <point x="141" y="1100" type="line"/>
      <point x="234" y="1500" type="line"/>
      <point x="1458" y="1500" type="line"/>
      <point x="1458" y="1427" type="line"/>
      <point x="420" y="73" type="line"/>
      <point x="670" y="73" type="line" smooth="yes"/>
      <point x="943" y="73"/>
      <point x="1044" y="187"/>
      <point x="1202" y="439" type="curve"/>
      <point x="1275" y="439" type="line"/>
      <point x="1174" y="0" type="line"/>
      <point x="-109" y="0" type="line"/>
      <point x="-109" y="73" type="line"/>
    </contour>
  </outline>
</glyph>
<glyph name="bracketleft" format="2">
	<advance width="809"/>
	<unicode hex="005B"/>
	<outline>
		<contour>
			<point x="-20" y="-300" type="line"/>
			<point x="600" y="-300" type="line"/>
			<point x="600" y="-227" type="line"/>
			<point x="377" y="-227" type="line"/>
			<point x="763" y="1486" type="line"/>
			<point x="1020" y="1486" type="line"/>
			<point x="1020" y="1561" type="line"/>
			<point x="400" y="1561" type="line"/>
		</contour>
	</outline>
</glyph>
<glyph name="asciicircum" format="2">
	<advance width="1089"/>
	<unicode hex="005E"/>
	<outline>
		<contour>
			<point x="469" y="1211" type="line"/>
			<point x="816" y="1445" type="line"/>
			<point x="1065" y="1216" type="line"/>
			<point x="1109" y="1260" type="line"/>
			<point x="891" y="1540" type="line"/>
			<point x="760" y="1540" type="line"/>
			<point x="420" y="1260" type="line"/>
		</contour>
	</outline>
</glyph>
<glyph name="a" format="2">
  <advance width="1227"/>
  <unicode hex="0061"/>
  <anchor x="793" y="0" name="cedilla"/>
  <anchor x="316" y="0" name="bottom"/>
  <anchor x="686" y="920" name="top"/>
  <outline>
    <contour>
      <point x="688" y="727" type="curve" smooth="yes"/>
      <point x="688" y="772"/>
      <point x="673" y="807"/>
      <point x="643" y="807" type="curve" smooth="yes"/>
      <point x="563" y="807"/>
      <point x="413" y="407"/>
      <point x="413" y="197" type="curve" smooth="yes"/>
      <point x="413" y="152"/>
      <point x="428" y="117"/>
      <point x="458" y="117" type="curve" smooth="yes"/>
      <point x="538" y="117"/>
      <point x="688" y="517"/>
    </contour>
    <contour>
      <point x="744" y="703" type="curve" smooth="yes"/>
      <point x="744" y="577"/>
      <point x="635" y="-20"/>
      <point x="313" y="-20" type="curve" smooth="yes"/>
      <point x="114" y="-20"/>
      <point x="40" y="110"/>
      <point x="40" y="305" type="curve" smooth="yes"/>
      <point x="40" y="611"/>
      <point x="291" y="940"/>
      <point x="547" y="940" type="curve" smooth="yes"/>
      <point x="639" y="940"/>
      <point x="744" y="887"/>
    </contour>
    <contour>
      <point x="1227" y="306" type="line"/>
      <point x="1116" y="56"/>
      <point x="981" y="-20"/>
      <point x="838" y="-20" type="curve" smooth="yes"/>
      <point x="671" y="-20"/>
      <point x="596" y="36"/>
      <point x="596" y="166" type="curve" smooth="yes"/>
      <point x="596" y="188"/>
      <point x="597.479" y="206.095"/>
      <point x="600" y="220" type="curve" smooth="yes"/>
      <point x="631" y="363" type="line"/>
      <point x="688" y="525" type="line"/>
      <point x="720" y="728" type="line"/>
      <point x="766" y="920" type="line"/>
      <point x="1135" y="920" type="line"/>
      <point x="930" y="150" type="line" smooth="yes"/>
      <point x="927.071" y="138.981"/>
      <point x="926" y="130"/>
      <point x="926" y="121" type="curve" smooth="yes"/>
      <point x="926" y="108"/>
      <point x="933" y="96"/>
      <point x="951" y="96" type="curve" smooth="yes"/>
      <point x="1002" y="96"/>
      <point x="1074" y="158"/>
      <point x="1156" y="330" type="curve"/>
    </contour>
  </outline>
</glyph>
<glyph name="b" format="2">
  <advance width="1090"/>
  <unicode hex="0062"/>
  <anchor x="396" y="0" name="bottom"/>
  <anchor x="826" y="920" name="top"/>
  <outline>
    <contour>
      <point x="339" y="1427" type="line"/>
      <point x="190" y="1427" type="line"/>
      <point x="190" y="1500" type="line"/>
      <point x="717" y="1500" type="line"/>
      <point x="343" y="109" type="line"/>
      <point x="352" y="78"/>
      <point x="366" y="53"/>
      <point x="393" y="53" type="curve" smooth="yes"/>
      <point x="499" y="53"/>
      <point x="668" y="510"/>
      <point x="668" y="728" type="curve" smooth="yes"/>
      <point x="668" y="771"/>
      <point x="653" y="807"/>
      <point x="623" y="807" type="curve" smooth="yes"/>
      <point x="551" y="807"/>
      <point x="461" y="549"/>
      <point x="410" y="360" type="curve"/>
      <point x="346" y="360" type="line"/>
      <point x="460" y="714"/>
      <point x="534" y="938"/>
      <point x="766" y="938" type="curve" smooth="yes"/>
      <point x="960" y="938"/>
      <point x="1045" y="811"/>
      <point x="1045" y="615" type="curve" smooth="yes"/>
      <point x="1045" y="303"/>
      <point x="779" y="-20"/>
      <point x="461" y="-20" type="curve" smooth="yes"/>
      <point x="299" y="-20"/>
      <point x="120" y="74"/>
      <point x="20" y="240" type="curve"/>
    </contour>
  </outline>
</glyph>
<glyph name="c" format="2">
  <advance width="1035"/>
  <unicode hex="0063"/>
  <anchor x="401" y="0" name="cedilla"/>
  <anchor x="401" y="0" name="bottom"/>
  <anchor x="701" y="920" name="top"/>
  <outline>
    <contour>
      <point x="970" y="690" type="line"/>
      <point x="970" y="788"/>
      <point x="863" y="859"/>
      <point x="756" y="859" type="curve" smooth="yes"/>
      <point x="538" y="859"/>
      <point x="409" y="381"/>
      <point x="409" y="163" type="curve" smooth="yes"/>
      <point x="409" y="93"/>
      <point x="448" y="71"/>
      <point x="501" y="71" type="curve" smooth="yes"/>
      <point x="596" y="71"/>
      <point x="760" y="181"/>
      <point x="845" y="303" type="curve"/>
      <point x="909" y="259" type="line"/>
      <point x="800" y="128"/>
      <point x="649" y="-20"/>
      <point x="397" y="-20" type="curve" smooth="yes"/>
      <point x="155" y="-20"/>
      <point x="40" y="90"/>
      <point x="40" y="260" type="curve" smooth="yes"/>
      <point x="40" y="600"/>
      <point x="341" y="940"/>
      <point x="703" y="940" type="curve" smooth="yes"/>
      <point x="897" y="940"/>
      <point x="1035" y="828"/>
      <point x="1035" y="690" type="curve" smooth="yes"/>
      <point x="1035" y="579"/>
      <point x="950" y="496"/>
      <point x="842" y="496" type="curve" smooth="yes"/>
      <point x="742" y="496"/>
      <point x="653" y="550"/>
      <point x="653" y="660" type="curve" smooth="yes"/>
      <point x="653" y="765"/>
      <point x="736" y="826"/>
      <point x="827" y="826" type="curve" smooth="yes"/>
      <point x="904" y="826"/>
      <point x="1033" y="780"/>
      <point x="1033" y="690" type="curve"/>
    </contour>
  </outline>
</glyph>
<glyph name="c" format="2">
	<advance width="1067"/>
	<unicode hex="0063"/>
	<anchor x="401" y="0" name="cedilla"/>
	<anchor x="401" y="0" name="bottom"/>
	<anchor x="701" y="920" name="top"/>
	<outline>
		<contour>
			<point x="413" y="-20" type="curve" smooth="yes"/>
			<point x="595" y="-20"/>
			<point x="761" y="78"/>
			<point x="873" y="237" type="curve"/>
			<point x="796" y="237" type="line"/>
			<point x="731" y="165"/>
			<point x="652" y="104"/>
			<point x="567" y="104" type="curve" smooth="yes"/>
			<point x="484" y="104"/>
			<point x="447" y="141"/>
			<point x="447" y="280" type="curve" smooth="yes"/>
			<point x="447" y="538"/>
			<point x="567" y="865"/>
			<point x="740" y="865" type="curve" smooth="yes"/>
			<point x="889" y="865"/>
			<point x="966" y="746"/>
			<point x="966" y="666" type="curve"/>
			<point x="1039" y="666" type="line"/>
			<point x="1039" y="786"/>
			<point x="930" y="872"/>
			<point x="833" y="872" type="curve" smooth="yes"/>
			<point x="732" y="872"/>
			<point x="619" y="784"/>
			<point x="619" y="664" type="curve" smooth="yes"/>
			<point x="619" y="534"/>
			<point x="743" y="452"/>
			<point x="833" y="452" type="curve" smooth="yes"/>
			<point x="934" y="452"/>
			<point x="1041" y="544"/>
			<point x="1041" y="666" type="curve" smooth="yes"/>
			<point x="1041" y="786"/>
			<point x="933" y="940"/>
			<point x="699" y="940" type="curve" smooth="yes"/>
			<point x="427" y="940"/>
			<point x="41" y="730"/>
			<point x="41" y="320" type="curve" smooth="yes"/>
			<point x="41" y="70"/>
			<point x="211" y="-20"/>
		</contour>
	</outline>
</glyph>
<glyph name="d" format="2">
  <advance width="1227"/>
  <unicode hex="0064"/>
  <anchor x="776" y="0" name="cedilla"/>
  <anchor x="436" y="0" name="bottom"/>
  <anchor x="496" y="920" name="top"/>
  <outline>
    <contour>
      <point x="1227" y="306" type="line"/>
      <point x="1116" y="56"/>
      <point x="982" y="-20"/>
      <point x="838" y="-20" type="curve" smooth="yes"/>
      <point x="674" y="-20"/>
      <point x="596" y="36"/>
      <point x="596" y="166" type="curve" smooth="yes"/>
      <point x="596" y="176"/>
      <point x="596.218" y="199.142"/>
      <point x="600" y="220" type="curve" smooth="yes"/>
      <point x="631" y="363" type="line"/>
      <point x="710" y="525" type="line"/>
      <point x="701" y="648" type="line"/>
      <point x="910" y="1427" type="line"/>
      <point x="754" y="1427" type="line"/>
      <point x="754" y="1500" type="line"/>
      <point x="1290" y="1500" type="line"/>
      <point x="930" y="150" type="line" smooth="yes"/>
      <point x="926.816" y="138.049"/>
      <point x="926" y="130"/>
      <point x="926" y="121" type="curve" smooth="yes"/>
      <point x="926" y="105"/>
      <point x="935" y="96"/>
      <point x="951" y="96" type="curve" smooth="yes"/>
      <point x="1002" y="96"/>
      <point x="1074" y="158"/>
      <point x="1156" y="330" type="curve"/>
    </contour>
    <contour>
      <point x="688" y="728" type="curve" smooth="yes"/>
      <point x="688" y="772"/>
      <point x="673" y="807"/>
      <point x="643" y="807" type="curve" smooth="yes"/>
      <point x="563" y="807"/>
      <point x="413" y="407"/>
      <point x="413" y="197" type="curve" smooth="yes"/>
      <point x="413" y="152"/>
      <point x="429" y="117"/>
      <point x="458" y="117" type="curve" smooth="yes"/>
      <point x="538" y="117"/>
      <point x="688" y="520"/>
    </contour>
    <contour>
      <point x="744" y="703" type="curve" smooth="yes"/>
      <point x="744" y="587"/>
      <point x="636" y="-20"/>
      <point x="314" y="-20" type="curve" smooth="yes"/>
      <point x="115" y="-20"/>
      <point x="40" y="110"/>
      <point x="40" y="305" type="curve" smooth="yes"/>
      <point x="40" y="611"/>
      <point x="291" y="940"/>
      <point x="547" y="940" type="curve" smooth="yes"/>
      <point x="639" y="940"/>
      <point x="744" y="887"/>
    </contour>
  </outline>
</glyph>
<glyph name="e" format="2">
	<advance width="1127"/>
	<unicode hex="0065"/>
	<anchor x="636" y="50" name="cedilla"/>
	<anchor x="485" y="0" name="bottom"/>
	<anchor x="715" y="920" name="top"/>
	<outline>
		<contour>
			<point x="458" y="-20" type="curve" smooth="yes"/>
			<point x="681" y="-20"/>
			<point x="881" y="132"/>
			<point x="979" y="286" type="curve"/>
			<point x="902" y="286" type="line"/>
			<point x="806" y="161"/>
			<point x="664" y="85"/>
			<point x="578" y="85" type="curve" smooth="yes"/>
			<point x="500" y="85"/>
			<point x="448" y="127"/>
			<point x="448" y="215" type="curve" smooth="yes"/>
			<point x="448" y="503"/>
			<point x="612" y="872"/>
			<point x="710" y="872" type="curve" smooth="yes"/>
			<point x="750" y="872"/>
			<point x="771" y="839"/>
			<point x="771" y="794" type="curve" smooth="yes"/>
			<point x="771" y="526"/>
			<point x="508" y="431"/>
			<point x="430" y="431" type="curve"/>
			<point x="430" y="377" type="line"/>
			<point x="653" y="377"/>
			<point x="1088" y="465"/>
			<point x="1088" y="725" type="curve" smooth="yes"/>
			<point x="1088" y="870"/>
			<point x="906" y="939"/>
			<point x="702" y="939" type="curve" smooth="yes"/>
			<point x="380" y="939"/>
			<point x="40" y="666"/>
			<point x="40" y="300" type="curve" smooth="yes"/>
			<point x="40" y="60"/>
			<point x="235" y="-20"/>
		</contour>
	</outline>
</glyph>
<glyph name="g" format="2">
  <advance width="1270"/>
  <unicode hex="0067"/>
  <anchor x="326" y="-500" name="cedilla"/>
  <anchor x="325" y="-500" name="bottom"/>
  <anchor x="680" y="920" name="top"/>
  <outline>
    <contour>
      <point x="1275" y="739" type="line"/>
      <point x="1275" y="809"/>
      <point x="1187" y="859"/>
      <point x="1129" y="859" type="curve" smooth="yes"/>
      <point x="1045" y="859"/>
      <point x="961" y="804"/>
      <point x="901" y="680" type="curve"/>
      <point x="849" y="709" type="line"/>
      <point x="919" y="857"/>
      <point x="1013" y="930"/>
      <point x="1143" y="930" type="curve" smooth="yes"/>
      <point x="1261" y="930"/>
      <point x="1350" y="845"/>
      <point x="1350" y="739" type="curve" smooth="yes"/>
      <point x="1350" y="644"/>
      <point x="1293" y="569"/>
      <point x="1198" y="569" type="curve" smooth="yes"/>
      <point x="1108" y="569"/>
      <point x="1043" y="632"/>
      <point x="1043" y="728" type="curve" smooth="yes"/>
      <point x="1043" y="820"/>
      <point x="1126" y="863"/>
      <point x="1204" y="863" type="curve" smooth="yes"/>
      <point x="1263" y="863"/>
      <point x="1348" y="804"/>
      <point x="1348" y="739" type="curve"/>
    </contour>
    <contour>
      <point x="205" y="-94" type="line"/>
      <point x="171" y="-120"/>
      <point x="119" y="-170"/>
      <point x="119" y="-254" type="curve" smooth="yes"/>
      <point x="119" y="-360"/>
      <point x="195" y="-441"/>
      <point x="372" y="-441" type="curve" smooth="yes"/>
      <point x="538" y="-441"/>
      <point x="729" y="-368"/>
      <point x="729" y="-228" type="curve" smooth="yes"/>
      <point x="729" y="-140"/>
      <point x="680" y="-118"/>
      <point x="610" y="-118" type="curve" smooth="yes"/>
      <point x="548" y="-118"/>
      <point x="337" y="-118"/>
      <point x="293" y="-118" type="curve" smooth="yes"/>
      <point x="113" y="-118"/>
      <point x="-54" y="-31"/>
      <point x="-54" y="123" type="curve" smooth="yes"/>
      <point x="-54" y="300"/>
      <point x="194" y="373"/>
      <point x="394" y="373" type="curve"/>
      <point x="390" y="333" type="line"/>
      <point x="274" y="333"/>
      <point x="199" y="289"/>
      <point x="199" y="251" type="curve" smooth="yes"/>
      <point x="199" y="206"/>
      <point x="265" y="199"/>
      <point x="354" y="199" type="curve" smooth="yes"/>
      <point x="424" y="199"/>
      <point x="559" y="201"/>
      <point x="616" y="201" type="curve" smooth="yes"/>
      <point x="796" y="201"/>
      <point x="921" y="108"/>
      <point x="921" y="-84" type="curve" smooth="yes"/>
      <point x="921" y="-376"/>
      <point x="589" y="-520"/>
      <point x="280" y="-520" type="curve" smooth="yes"/>
      <point x="33" y="-520"/>
      <point x="-170" y="-461"/>
      <point x="-170" y="-301" type="curve" smooth="yes"/>
      <point x="-170" y="-199"/>
      <point x="-63" y="-94"/>
      <point x="168" y="-94" type="curve" smooth="yes"/>
    </contour>
    <contour>
      <point x="488" y="390" type="curve" smooth="yes"/>
      <point x="546" y="390"/>
      <point x="636" y="719"/>
      <point x="636" y="817" type="curve" smooth="yes"/>
      <point x="636" y="845"/>
      <point x="626" y="869"/>
      <point x="608" y="869" type="curve" smooth="yes"/>
      <point x="550" y="869"/>
      <point x="460" y="541"/>
      <point x="460" y="443" type="curve" smooth="yes"/>
      <point x="460" y="415"/>
      <point x="470" y="390"/>
    </contour>
    <contour>
      <point x="498" y="320" type="curve" smooth="yes"/>
      <point x="266" y="320"/>
      <point x="95" y="423"/>
      <point x="95" y="593" type="curve" smooth="yes"/>
      <point x="95" y="784"/>
      <point x="325" y="939"/>
      <point x="598" y="939" type="curve" smooth="yes"/>
      <point x="830" y="939"/>
      <point x="1001" y="827"/>
      <point x="1001" y="657" type="curve" smooth="yes"/>
      <point x="1001" y="466"/>
      <point x="771" y="320"/>
    </contour>
  </outline>
</glyph>
<glyph name="g" format="2">
	<advance width="1439"/>
	<unicode hex="0067"/>
	<anchor x="476" y="-500" name="cedilla"/>
	<anchor x="475" y="-500" name="bottom"/>
	<anchor x="780" y="920" name="top"/>
	<outline>
		<contour>
			<point x="496" y="-520" type="curve" smooth="yes"/>
			<point x="756" y="-520"/>
			<point x="1090" y="-406"/>
			<point x="1090" y="-84" type="curve" smooth="yes"/>
			<point x="1090" y="88"/>
			<point x="992" y="200"/>
			<point x="782" y="200" type="curve" smooth="yes"/>
			<point x="725" y="200"/>
			<point x="593" y="198"/>
			<point x="523" y="198" type="curve" smooth="yes"/>
			<point x="414" y="198"/>
			<point x="344" y="208"/>
			<point x="344" y="242" type="curve" smooth="yes"/>
			<point x="344" y="304"/>
			<point x="491" y="351"/>
			<point x="557" y="351" type="curve"/>
			<point x="561" y="387" type="line"/>
			<point x="351" y="387"/>
			<point x="82" y="306"/>
			<point x="82" y="98" type="curve" smooth="yes"/>
			<point x="82" y="-26"/>
			<point x="228" y="-118"/>
			<point x="408" y="-118" type="curve" smooth="yes"/>
			<point x="452" y="-118"/>
			<point x="674" y="-118"/>
			<point x="716" y="-118" type="curve" smooth="yes"/>
			<point x="825" y="-118"/>
			<point x="891" y="-141"/>
			<point x="891" y="-225" type="curve" smooth="yes"/>
			<point x="891" y="-395"/>
			<point x="673" y="-447"/>
			<point x="525" y="-447" type="curve" smooth="yes"/>
			<point x="334" y="-447"/>
			<point x="216" y="-405"/>
			<point x="216" y="-264" type="curve" smooth="yes"/>
			<point x="216" y="-160"/>
			<point x="353" y="-89"/>
			<point x="432" y="-64" type="curve"/>
			<point x="305" y="-64" type="line" smooth="yes"/>
			<point x="215" y="-64"/>
			<point x="-80" y="-88"/>
			<point x="-80" y="-270" type="curve" smooth="yes"/>
			<point x="-80" y="-459"/>
			<point x="250" y="-520"/>
		</contour>
		<contour>
			<point x="574" y="320" type="curve" smooth="yes"/>
			<point x="856" y="320"/>
			<point x="1109" y="468"/>
			<point x="1109" y="689" type="curve" smooth="yes"/>
			<point x="1109" y="869"/>
			<point x="937" y="939"/>
			<point x="714" y="939" type="curve" smooth="yes"/>
			<point x="432" y="939"/>
			<point x="178" y="791"/>
			<point x="178" y="570" type="curve" smooth="yes"/>
			<point x="178" y="390"/>
			<point x="351" y="320"/>
		</contour>
		<contour>
			<point x="584" y="393" type="curve" smooth="yes"/>
			<point x="546" y="393"/>
			<point x="546" y="435"/>
			<point x="546" y="483" type="curve" smooth="yes"/>
			<point x="546" y="671"/>
			<point x="645" y="867"/>
			<point x="704" y="867" type="curve" smooth="yes"/>
			<point x="742" y="867"/>
			<point x="742" y="825"/>
			<point x="742" y="777" type="curve" smooth="yes"/>
			<point x="742" y="589"/>
			<point x="643" y="393"/>
		</contour>
		<contour>
			<point x="1319" y="569" type="curve" smooth="yes"/>
			<point x="1399" y="569"/>
			<point x="1475" y="644"/>
			<point x="1475" y="729" type="curve" smooth="yes"/>
			<point x="1475" y="855"/>
			<point x="1391" y="930"/>
			<point x="1273" y="930" type="curve" smooth="yes"/>
			<point x="1193" y="930"/>
			<point x="1039" y="847"/>
			<point x="969" y="699" type="curve"/>
			<point x="1021" y="660" type="line"/>
			<point x="1091" y="799"/>
			<point x="1205" y="861"/>
			<point x="1269" y="861" type="curve" smooth="yes"/>
			<point x="1329" y="861"/>
			<point x="1400" y="819"/>
			<point x="1400" y="729" type="curve"/>
			<point x="1473" y="729" type="line"/>
			<point x="1473" y="814"/>
			<point x="1398" y="863"/>
			<point x="1319" y="863" type="curve" smooth="yes"/>
			<point x="1241" y="863"/>
			<point x="1168" y="817"/>
			<point x="1168" y="720" type="curve" smooth="yes"/>
			<point x="1168" y="624"/>
			<point x="1239" y="569"/>
		</contour>
	</outline>
</glyph>
<glyph name="h" format="2">
  <advance width="1236"/>
  <unicode hex="0068"/>
  <anchor x="186" y="0" name="cedilla"/>
  <anchor x="548" y="0" name="bottom"/>
  <anchor x="1035" y="920" name="top"/>
  <outline>
    <contour>
      <point x="711" y="616" type="line" smooth="yes"/>
      <point x="754.888" y="772.349"/>
      <point x="751" y="807"/>
      <point x="729" y="807" type="curve" smooth="yes"/>
      <point x="663" y="807"/>
      <point x="518" y="573"/>
      <point x="435" y="266" type="curve"/>
      <point x="391" y="266" type="line"/>
      <point x="467" y="571"/>
      <point x="609" y="939"/>
      <point x="866" y="939" type="curve" smooth="yes"/>
      <point x="1039" y="939"/>
      <point x="1133.12" y="818.956"/>
      <point x="1081" y="639" type="curve" smooth="yes"/>
      <point x="944" y="166" type="line" smooth="yes"/>
      <point x="941.034" y="155.702"/>
      <point x="937" y="136"/>
      <point x="937" y="126" type="curve" smooth="yes"/>
      <point x="937" y="103"/>
      <point x="944" y="96"/>
      <point x="957" y="96" type="curve" smooth="yes"/>
      <point x="1012" y="96"/>
      <point x="1085" y="158"/>
      <point x="1165" y="330" type="curve"/>
      <point x="1236" y="306" type="line"/>
      <point x="1125" y="54"/>
      <point x="1002" y="-20"/>
      <point x="825" y="-20" type="curve" smooth="yes"/>
      <point x="661" y="-20"/>
      <point x="596" y="58"/>
      <point x="596" y="164" type="curve" smooth="yes"/>
      <point x="596" y="195"/>
      <point x="605.429" y="241.185"/>
      <point x="615" y="274" type="curve" smooth="yes"/>
    </contour>
    <contour>
      <point x="382" y="1427" type="line"/>
      <point x="235" y="1427" type="line"/>
      <point x="235" y="1500" type="line"/>
      <point x="765" y="1500" type="line"/>
      <point x="365" y="0" type="line"/>
      <point x="0" y="0" type="line"/>
    </contour>
  </outline>
</glyph>
<glyph name="i" format="2">
  <advance width="847"/>
  <unicode hex="0069"/>
  <anchor x="325" y="0" name="cedilla"/>
  <anchor x="325" y="0" name="bottom"/>
  <outline>
    <contour>
      <point x="290" y="1300" type="curve" smooth="yes"/>
      <point x="290" y="1426"/>
      <point x="384" y="1520"/>
      <point x="510" y="1520" type="curve" smooth="yes"/>
      <point x="636" y="1520"/>
      <point x="730" y="1426"/>
      <point x="730" y="1300" type="curve" smooth="yes"/>
      <point x="730" y="1174"/>
      <point x="636" y="1080"/>
      <point x="510" y="1080" type="curve" smooth="yes"/>
      <point x="384" y="1080"/>
      <point x="290" y="1174"/>
    </contour>
    <contour>
      <point x="798" y="326" type="line"/>
      <point x="722" y="126"/>
      <point x="584" y="-20"/>
      <point x="352" y="-20" type="curve" smooth="yes"/>
      <point x="188" y="-20"/>
      <point x="109" y="25"/>
      <point x="109" y="166" type="curve" smooth="yes"/>
      <point x="109" y="176"/>
      <point x="111" y="197"/>
      <point x="114" y="210" type="curve" smooth="yes"/>
      <point x="277" y="847" type="line"/>
      <point x="130" y="847" type="line"/>
      <point x="130" y="920" type="line"/>
      <point x="674" y="920" type="line"/>
      <point x="488" y="186" type="line" smooth="yes"/>
      <point x="485" y="174"/>
      <point x="483" y="159"/>
      <point x="483" y="149" type="curve" smooth="yes"/>
      <point x="483" y="128"/>
      <point x="495" y="111"/>
      <point x="520" y="111" type="curve" smooth="yes"/>
      <point x="579" y="111"/>
      <point x="681" y="216"/>
      <point x="727" y="348" type="curve"/>
    </contour>
  </outline>
</glyph>
<glyph name="i" format="2">
	<advance width="847"/>
	<unicode hex="0069"/>
	<anchor x="325" y="0" name="cedilla"/>
	<anchor x="325" y="0" name="bottom"/>
	<outline>
		<contour>
			<point x="352" y="-20" type="curve" smooth="yes"/>
			<point x="584" y="-20"/>
			<point x="722" y="126"/>
			<point x="798" y="326" type="curve"/>
			<point x="727" y="348" type="line"/>
			<point x="681" y="216"/>
			<point x="579" y="111"/>
			<point x="520" y="111" type="curve" smooth="yes"/>
			<point x="495" y="111"/>
			<point x="483" y="128"/>
			<point x="483" y="149" type="curve" smooth="yes"/>
			<point x="483" y="159"/>
			<point x="485" y="174"/>
			<point x="488" y="186" type="curve" smooth="yes"/>
			<point x="674" y="920" type="line"/>
			<point x="130" y="920" type="line"/>
			<point x="130" y="847" type="line"/>
			<point x="277" y="847" type="line"/>
			<point x="114" y="210" type="line" smooth="yes"/>
			<point x="111" y="197"/>
			<point x="109" y="176"/>
			<point x="109" y="166" type="curve" smooth="yes"/>
			<point x="109" y="25"/>
			<point x="188" y="-20"/>
		</contour>
		<contour>
			<point x="510" y="1080" type="curve" smooth="yes"/>
			<point x="636" y="1080"/>
			<point x="730" y="1174"/>
			<point x="730" y="1300" type="curve" smooth="yes"/>
			<point x="730" y="1426"/>
			<point x="636" y="1520"/>
			<point x="510" y="1520" type="curve" smooth="yes"/>
			<point x="384" y="1520"/>
			<point x="290" y="1426"/>
			<point x="290" y="1300" type="curve" smooth="yes"/>
			<point x="290" y="1174"/>
			<point x="384" y="1080"/>
		</contour>
	</outline>
</glyph>
<glyph name="j" format="2">
	<advance width="693"/>
	<unicode hex="006A"/>
	<anchor x="-111" y="-500" name="bottom"/>
	<outline>
		<contour>
			<point x="-109" y="-520" type="curve" smooth="yes"/>
			<point x="151" y="-520"/>
			<point x="438.939" y="-274.76"/>
			<point x="491" y="-23" type="curve" smooth="yes"/>
			<point x="686" y="920" type="line"/>
			<point x="112" y="920" type="line"/>
			<point x="112" y="847" type="line"/>
			<point x="292" y="847" type="line"/>
			<point x="137" y="40" type="line" smooth="yes"/>
			<point x="89.9501" y="-204.963"/>
			<point x="60" y="-451"/>
			<point x="-120" y="-451" type="curve" smooth="yes"/>
			<point x="-259" y="-451"/>
			<point x="-385" y="-392"/>
			<point x="-385" y="-262" type="curve"/>
			<point x="-458" y="-262" type="line"/>
			<point x="-458" y="-322"/>
			<point x="-340" y="-445"/>
			<point x="-242" y="-445" type="curve" smooth="yes"/>
			<point x="-135" y="-445"/>
			<point x="-35" y="-347"/>
			<point x="-35" y="-246" type="curve" smooth="yes"/>
			<point x="-35" y="-126"/>
			<point x="-156" y="-58"/>
			<point x="-246" y="-58" type="curve" smooth="yes"/>
			<point x="-347" y="-58"/>
			<point x="-460" y="-140"/>
			<point x="-460" y="-262" type="curve" smooth="yes"/>
			<point x="-460" y="-415"/>
			<point x="-291" y="-520"/>
		</contour>
		<contour>
			<point x="514" y="1080" type="curve" smooth="yes"/>
			<point x="640" y="1080"/>
			<point x="734" y="1174"/>
			<point x="734" y="1300" type="curve" smooth="yes"/>
			<point x="734" y="1426"/>
			<point x="640" y="1520"/>
			<point x="514" y="1520" type="curve" smooth="yes"/>
			<point x="388" y="1520"/>
			<point x="294" y="1426"/>
			<point x="294" y="1300" type="curve" smooth="yes"/>
			<point x="294" y="1174"/>
			<point x="388" y="1080"/>
		</contour>
	</outline>
</glyph>
<glyph name="l" format="2">
  <advance width="686"/>
  <unicode hex="006C"/>
  <anchor x="246" y="0" name="cedilla"/>
  <anchor x="244" y="0" name="bottom"/>
  <anchor x="498" y="1500" name="top"/>
  <outline>
    <contour>
      <point x="686" y="306" type="line"/>
      <point x="573" y="56"/>
      <point x="440" y="-20"/>
      <point x="265" y="-20" type="curve" smooth="yes"/>
      <point x="111" y="-20"/>
      <point x="40" y="41"/>
      <point x="40" y="126" type="curve" smooth="yes"/>
      <point x="40" y="173"/>
      <point x="47.7998" y="202.128"/>
      <point x="55" y="229" type="curve" smooth="yes"/>
      <point x="376" y="1427" type="line"/>
      <point x="197" y="1427" type="line"/>
      <point x="197" y="1500" type="line"/>
      <point x="754" y="1500" type="line"/>
      <point x="392" y="165" type="line" smooth="yes"/>
      <point x="388.783" y="153.059"/>
      <point x="384" y="139"/>
      <point x="384" y="129" type="curve" smooth="yes"/>
      <point x="384" y="108"/>
      <point x="391" y="96"/>
      <point x="409" y="96" type="curve" smooth="yes"/>
      <point x="460" y="96"/>
      <point x="533" y="158"/>
      <point x="615" y="330" type="curve"/>
    </contour>
  </outline>
</glyph>
<glyph name="m" format="2">
	<advance width="1941"/>
	<unicode hex="006D"/>
	<anchor x="966" y="920" name="top"/>
	<anchor x="695" y="0" name="bottom"/>
	<outline>
		<contour>
			<point x="1477" y="-20" type="curve" smooth="yes"/>
			<point x="1709" y="-20"/>
			<point x="1817" y="126"/>
			<point x="1893" y="326" type="curve"/>
			<point x="1820" y="348" type="line"/>
			<point x="1774" y="216"/>
			<point x="1687" y="84"/>
			<point x="1617" y="84" type="curve" smooth="yes"/>
			<point x="1592" y="84"/>
			<point x="1580" y="101"/>
			<point x="1580" y="122" type="curve" smooth="yes"/>
			<point x="1580" y="132"/>
			<point x="1582" y="146"/>
			<point x="1586" y="158" type="curve" smooth="yes"/>
			<point x="1736" y="594" type="line" smooth="yes"/>
			<point x="1808" y="808"/>
			<point x="1682" y="939"/>
			<point x="1468" y="939" type="curve" smooth="yes"/>
			<point x="1218" y="939"/>
			<point x="1105" y="630"/>
			<point x="1029" y="346" type="curve"/>
			<point x="1084" y="346" type="line"/>
			<point x="1160" y="653"/>
			<point x="1298" y="830"/>
			<point x="1359" y="830" type="curve" smooth="yes"/>
			<point x="1411" y="830"/>
			<point x="1398" y="761"/>
			<point x="1346" y="609" type="curve" smooth="yes"/>
			<point x="1221" y="244" type="line" smooth="yes"/>
			<point x="1213" y="223"/>
			<point x="1210" y="197"/>
			<point x="1210" y="168" type="curve" smooth="yes"/>
			<point x="1210" y="42"/>
			<point x="1303" y="-20"/>
		</contour>
		<contour>
			<point x="50" y="0" type="line"/>
			<point x="430" y="0" type="line"/>
			<point x="650" y="920" type="line"/>
			<point x="130" y="920" type="line"/>
			<point x="130" y="847" type="line"/>
			<point x="252" y="847" type="line"/>
		</contour>
		<contour>
			<point x="620" y="0" type="line"/>
			<point x="1000" y="0" type="line"/>
			<point x="1156" y="639" type="line" smooth="yes"/>
			<point x="1204" y="834"/>
			<point x="1112" y="939"/>
			<point x="898" y="939" type="curve" smooth="yes"/>
			<point x="652" y="939"/>
			<point x="553" y="651"/>
			<point x="457" y="346" type="curve"/>
			<point x="512" y="346" type="line"/>
			<point x="588" y="653"/>
			<point x="727" y="830"/>
			<point x="788" y="830" type="curve" smooth="yes"/>
			<point x="830" y="830"/>
			<point x="808" y="774"/>
			<point x="770" y="616" type="curve" smooth="yes"/>
		</contour>
	</outline>
</glyph>
<glyph name="n" format="2">
  <advance width="1232"/>
  <unicode hex="006E"/>
  <anchor x="146" y="0" name="cedilla"/>
  <anchor x="486" y="0" name="bottom"/>
  <anchor x="686" y="920" name="top"/>
  <outline>
    <contour>
      <point x="227" y="847" type="line"/>
      <point x="105" y="847" type="line"/>
      <point x="105" y="920" type="line"/>
      <point x="610" y="920" type="line"/>
      <point x="359" y="0" type="line"/>
      <point x="0" y="0" type="line"/>
    </contour>
    <contour>
      <point x="707" y="616" type="line" smooth="yes"/>
      <point x="750.888" y="772.349"/>
      <point x="747" y="807"/>
      <point x="725" y="807" type="curve" smooth="yes"/>
      <point x="659" y="807"/>
      <point x="514" y="573"/>
      <point x="431" y="266" type="curve"/>
      <point x="387" y="266" type="line"/>
      <point x="463" y="571"/>
      <point x="605" y="939"/>
      <point x="862" y="939" type="curve" smooth="yes"/>
      <point x="1035" y="939"/>
      <point x="1129.12" y="818.956"/>
      <point x="1077" y="639" type="curve" smooth="yes"/>
      <point x="940" y="166" type="line" smooth="yes"/>
      <point x="937.034" y="155.702"/>
      <point x="933" y="136"/>
      <point x="933" y="126" type="curve" smooth="yes"/>
      <point x="933" y="103"/>
      <point x="940" y="96"/>
      <point x="953" y="96" type="curve" smooth="yes"/>
      <point x="1008" y="96"/>
      <point x="1081" y="158"/>
      <point x="1161" y="330" type="curve"/>
      <point x="1232" y="306" type="line"/>
      <point x="1121" y="54"/>
      <point x="998" y="-20"/>
      <point x="821" y="-20" type="curve" smooth="yes"/>
      <point x="657" y="-20"/>
      <point x="592" y="58"/>
      <point x="592" y="164" type="curve" smooth="yes"/>
      <point x="592" y="195"/>
      <point x="601.429" y="241.185"/>
      <point x="611" y="274" type="curve" smooth="yes"/>
    </contour>
  </outline>
</glyph>
<glyph name="o" format="2">
	<advance width="1183"/>
	<unicode hex="006F"/>
	<anchor x="629" y="920" name="top"/>
	<anchor x="396" y="0" name="bottom"/>
	<outline>
		<contour>
			<point x="479" y="-20" type="curve" smooth="yes"/>
			<point x="801" y="-20"/>
			<point x="1113" y="200"/>
			<point x="1113" y="580" type="curve" smooth="yes"/>
			<point x="1113" y="820"/>
			<point x="878" y="939"/>
			<point x="676" y="939" type="curve" smooth="yes"/>
			<point x="354" y="939"/>
			<point x="40" y="720"/>
			<point x="40" y="340" type="curve" smooth="yes"/>
			<point x="40" y="100"/>
			<point x="277" y="-20"/>
		</contour>
		<contour>
			<point x="479" y="55" type="curve" smooth="yes"/>
			<point x="431" y="55"/>
			<point x="408" y="86"/>
			<point x="408" y="174" type="curve" smooth="yes"/>
			<point x="408" y="422"/>
			<point x="537" y="865"/>
			<point x="676" y="865" type="curve" smooth="yes"/>
			<point x="724" y="865"/>
			<point x="746" y="834"/>
			<point x="746" y="746" type="curve" smooth="yes"/>
			<point x="746" y="498"/>
			<point x="618" y="55"/>
		</contour>
	</outline>
</glyph>
<glyph name="p" format="2">
  <advance width="1319"/>
  <unicode hex="0070"/>
  <anchor x="716" y="0" name="bottom"/>
  <anchor x="706" y="920" name="top"/>
  <outline>
    <contour>
      <point x="547" y="310" type="curve" smooth="yes"/>
      <point x="547" y="205"/>
      <point x="582" y="141"/>
      <point x="624" y="141" type="curve" smooth="yes"/>
      <point x="712" y="141"/>
      <point x="852" y="380"/>
      <point x="852" y="648" type="curve" smooth="yes"/>
      <point x="852" y="716"/>
      <point x="824" y="756"/>
      <point x="782" y="756" type="curve" smooth="yes"/>
      <point x="680" y="756"/>
      <point x="547" y="518"/>
    </contour>
    <contour>
      <point x="492" y="300" type="curve" smooth="yes"/>
      <point x="492" y="516"/>
      <point x="660" y="938"/>
      <point x="942" y="938" type="curve" smooth="yes"/>
      <point x="1081" y="938"/>
      <point x="1260" y="858"/>
      <point x="1260" y="598" type="curve" smooth="yes"/>
      <point x="1260" y="198"/>
      <point x="947" y="-20"/>
      <point x="729" y="-20" type="curve" smooth="yes"/>
      <point x="557" y="-20"/>
      <point x="492" y="101"/>
    </contour>
    <contour>
      <point x="-170" y="-427" type="line"/>
      <point x="480" y="-427" type="line"/>
      <point x="480" y="-500" type="line"/>
      <point x="-170" y="-500" type="line"/>
    </contour>
    <contour>
      <point x="260" y="847" type="line"/>
      <point x="134" y="847" type="line"/>
      <point x="134" y="920" type="line"/>
      <point x="658" y="920" type="line"/>
      <point x="580" y="588" type="line"/>
      <point x="529" y="426" type="line"/>
      <point x="518" y="305" type="line"/>
      <point x="330" y="-500" type="line"/>
      <point x="-50" y="-500" type="line"/>
    </contour>
  </outline>
</glyph>
<glyph name="q" format="2">
  <advance width="1092"/>
  <unicode hex="0071"/>
  <anchor x="246" y="0" name="bottom"/>
  <anchor x="686" y="919" name="top"/>
  <outline>
    <contour>
      <point x="928" y="-427" type="line"/>
      <point x="928" y="-500" type="line"/>
      <point x="238" y="-500" type="line"/>
      <point x="238" y="-427" type="line"/>
    </contour>
    <contour>
      <point x="745" y="-500" type="line"/>
      <point x="388" y="-500" type="line"/>
      <point x="622" y="363" type="line"/>
      <point x="641" y="421"/>
      <point x="693" y="471"/>
      <point x="710" y="525" type="curve"/>
      <point x="698" y="648" type="line"/>
      <point x="765" y="900" type="line"/>
      <point x="1132" y="940" type="line"/>
    </contour>
    <contour>
      <point x="688" y="727" type="curve" smooth="yes"/>
      <point x="688" y="772"/>
      <point x="673" y="807"/>
      <point x="643" y="807" type="curve" smooth="yes"/>
      <point x="563" y="807"/>
      <point x="413" y="406"/>
      <point x="413" y="196" type="curve" smooth="yes"/>
      <point x="413" y="152"/>
      <point x="428" y="117"/>
      <point x="458" y="117" type="curve" smooth="yes"/>
      <point x="538" y="117"/>
      <point x="688" y="517"/>
    </contour>
    <contour>
      <point x="744" y="703" type="curve" smooth="yes"/>
      <point x="744" y="577"/>
      <point x="635" y="-20"/>
      <point x="313" y="-20" type="curve" smooth="yes"/>
      <point x="114" y="-20"/>
      <point x="40" y="110"/>
      <point x="40" y="305" type="curve" smooth="yes"/>
      <point x="40" y="611"/>
      <point x="291" y="940"/>
      <point x="547" y="940" type="curve" smooth="yes"/>
      <point x="639" y="940"/>
      <point x="744" y="887"/>
    </contour>
  </outline>
</glyph>
<glyph name="r" format="2">
	<advance width="1133"/>
	<unicode hex="0072"/>
	<anchor x="246" y="0" name="cedilla"/>
	<anchor x="246" y="0" name="bottom"/>
	<anchor x="733" y="920" name="top"/>
	<outline>
		<contour>
			<point x="62" y="0" type="line"/>
			<point x="440" y="0" type="line"/>
			<point x="650" y="920" type="line"/>
			<point x="132" y="920" type="line"/>
			<point x="132" y="847" type="line"/>
			<point x="262" y="847" type="line"/>
		</contour>
		<contour>
			<point x="477" y="346" type="curve"/>
			<point x="518" y="346" type="line"/>
			<point x="572" y="582"/>
			<point x="736" y="874"/>
			<point x="898" y="874" type="curve" smooth="yes"/>
			<point x="1008" y="874"/>
			<point x="1094" y="813"/>
			<point x="1094" y="683" type="curve"/>
			<point x="1168" y="683" type="line"/>
			<point x="1168" y="783"/>
			<point x="1067" y="865"/>
			<point x="960" y="865" type="curve" smooth="yes"/>
			<point x="853" y="865"/>
			<point x="746" y="780"/>
			<point x="746" y="661" type="curve" smooth="yes"/>
			<point x="746" y="551"/>
			<point x="843" y="460"/>
			<point x="959" y="460" type="curve" smooth="yes"/>
			<point x="1075" y="460"/>
			<point x="1170" y="565"/>
			<point x="1170" y="683" type="curve" smooth="yes"/>
			<point x="1170" y="831"/>
			<point x="1056" y="939"/>
			<point x="895" y="939" type="curve" smooth="yes"/>
			<point x="668" y="939"/>
			<point x="521" y="586"/>
		</contour>
	</outline>
</glyph>
<glyph name="s" format="2">
	<advance width="1043"/>
	<unicode hex="0073"/>
	<anchor x="398" y="0" name="cedilla"/>
	<anchor x="398" y="0" name="bottom"/>
	<anchor x="577" y="920" name="top"/>
	<outline>
		<contour>
			<point x="400" y="-23" type="curve" smooth="yes"/>
			<point x="633" y="-23"/>
			<point x="874" y="106"/>
			<point x="874" y="314" type="curve" smooth="yes"/>
			<point x="874" y="610"/>
			<point x="424" y="581"/>
			<point x="424" y="781" type="curve" smooth="yes"/>
			<point x="424" y="838"/>
			<point x="486" y="875"/>
			<point x="578" y="875" type="curve" smooth="yes"/>
			<point x="666" y="875"/>
			<point x="872" y="840"/>
			<point x="872" y="730" type="curve"/>
			<point x="942" y="730" type="line"/>
			<point x="942" y="810"/>
			<point x="864" y="857"/>
			<point x="794" y="857" type="curve" smooth="yes"/>
			<point x="705.982" y="857"/>
			<point x="650" y="810"/>
			<point x="650" y="718" type="curve" smooth="yes"/>
			<point x="650" y="648"/>
			<point x="714" y="577"/>
			<point x="794" y="577" type="curve" smooth="yes"/>
			<point x="885" y="577"/>
			<point x="944" y="648"/>
			<point x="944" y="730" type="curve" smooth="yes"/>
			<point x="944" y="854"/>
			<point x="784" y="938"/>
			<point x="578" y="938" type="curve" smooth="yes"/>
			<point x="372" y="938"/>
			<point x="151" y="812"/>
			<point x="151" y="614" type="curve" smooth="yes"/>
			<point x="151" y="322"/>
			<point x="628" y="288"/>
			<point x="628" y="145" type="curve" smooth="yes"/>
			<point x="628" y="63"/>
			<point x="491" y="39"/>
			<point x="400" y="39" type="curve" smooth="yes"/>
			<point x="229" y="39"/>
			<point x="70" y="110"/>
			<point x="70" y="230" type="curve"/>
			<point x="2" y="230" type="line"/>
			<point x="2" y="140"/>
			<point x="89.3838" y="94"/>
			<point x="162" y="94" type="curve" smooth="yes"/>
			<point x="242" y="94"/>
			<point x="318" y="162"/>
			<point x="318" y="243" type="curve" smooth="yes"/>
			<point x="318" y="343"/>
			<point x="234" y="394"/>
			<point x="164" y="394" type="curve" smooth="yes"/>
			<point x="83" y="394"/>
			<point x="0" y="332"/>
			<point x="0" y="230" type="curve" smooth="yes"/>
			<point x="0" y="61"/>
			<point x="202" y="-23"/>
		</contour>
	</outline>
</glyph>
<glyph name="t" format="2">
  <advance width="744"/>
  <unicode hex="0074"/>
  <anchor x="296" y="0" name="cedilla"/>
  <anchor x="296" y="0" name="bottom"/>
  <anchor x="483" y="1120" name="top"/>
  <outline>
    <contour>
      <point x="64" y="920" type="line"/>
      <point x="804" y="920" type="line"/>
      <point x="804" y="846" type="line"/>
      <point x="64" y="846" type="line"/>
    </contour>
    <contour>
      <point x="690" y="326" type="line"/>
      <point x="584" y="86"/>
      <point x="491" y="-20"/>
      <point x="304" y="-20" type="curve" smooth="yes"/>
      <point x="120" y="-20"/>
      <point x="60" y="58"/>
      <point x="60" y="137" type="curve" smooth="yes"/>
      <point x="60" y="178"/>
      <point x="77.5566" y="229.835"/>
      <point x="88" y="270" type="curve" smooth="yes"/>
      <point x="309" y="1120" type="line"/>
      <point x="669" y="1120" type="line"/>
      <point x="422" y="191" type="line" smooth="yes"/>
      <point x="418.141" y="176.484"/>
      <point x="413" y="158"/>
      <point x="413" y="140" type="curve" smooth="yes"/>
      <point x="413" y="118"/>
      <point x="419" y="102"/>
      <point x="440" y="102" type="curve" smooth="yes"/>
      <point x="482" y="102"/>
      <point x="541" y="176"/>
      <point x="618" y="348" type="curve"/>
    </contour>
  </outline>
</glyph>
<glyph name="u" format="2">
	<advance width="1427"/>
	<unicode hex="0075"/>
	<anchor x="842" y="0" name="cedilla"/>
	<anchor x="506" y="0" name="bottom"/>
	<anchor x="626" y="920" name="top"/>
	<outline>
		<contour>
			<point x="389" y="-20" type="curve" smooth="yes"/>
			<point x="635" y="-20"/>
			<point x="732" y="269"/>
			<point x="828" y="574" type="curve"/>
			<point x="775" y="574" type="line"/>
			<point x="699" y="267"/>
			<point x="557" y="90"/>
			<point x="496" y="90" type="curve" smooth="yes"/>
			<point x="444" y="90"/>
			<point x="474" y="147"/>
			<point x="510" y="305" type="curve" smooth="yes"/>
			<point x="654" y="920" type="line"/>
			<point x="130" y="920" type="line"/>
			<point x="130" y="847" type="line"/>
			<point x="255" y="847" type="line"/>
			<point x="128" y="282" type="line" smooth="yes"/>
			<point x="92" y="118"/>
			<point x="196" y="-20"/>
		</contour>
		<contour>
			<point x="932" y="-20" type="curve" smooth="yes"/>
			<point x="1159" y="-20"/>
			<point x="1302" y="126"/>
			<point x="1378" y="326" type="curve"/>
			<point x="1307" y="348" type="line"/>
			<point x="1261" y="216"/>
			<point x="1155" y="111"/>
			<point x="1096" y="111" type="curve" smooth="yes"/>
			<point x="1071" y="111"/>
			<point x="1060" y="128"/>
			<point x="1060" y="149" type="curve" smooth="yes"/>
			<point x="1060" y="159"/>
			<point x="1061" y="174"/>
			<point x="1064" y="186" type="curve" smooth="yes"/>
			<point x="1234" y="920" type="line"/>
			<point x="852" y="920" type="line"/>
			<point x="689" y="210" type="line" smooth="yes"/>
			<point x="687" y="198"/>
			<point x="686" y="176"/>
			<point x="686" y="166" type="curve" smooth="yes"/>
			<point x="686" y="25"/>
			<point x="768" y="-20"/>
		</contour>
	</outline>
</glyph>
<glyph name="v" format="2">
	<advance width="1371"/>
	<unicode hex="0076"/>
	<anchor x="876" y="920" name="top"/>
	<anchor x="676" y="0" name="bottom"/>
	<outline>
		<contour>
			<point x="615" y="-20" type="curve" smooth="yes"/>
			<point x="961" y="-20"/>
			<point x="1332" y="363"/>
			<point x="1332" y="668" type="curve" smooth="yes"/>
			<point x="1332" y="840"/>
			<point x="1232" y="938"/>
			<point x="1076" y="938" type="curve" smooth="yes"/>
			<point x="952" y="938"/>
			<point x="854" y="835"/>
			<point x="854" y="724" type="curve" smooth="yes"/>
			<point x="854" y="624"/>
			<point x="936" y="510"/>
			<point x="1066" y="510" type="curve" smooth="yes"/>
			<point x="1178.83" y="510"/>
			<point x="1284" y="609.859"/>
			<point x="1284" y="724" type="curve" smooth="yes"/>
			<point x="1284" y="844.062"/>
			<point x="1190.2" y="935.874"/>
			<point x="1076" y="936" type="curve"/>
			<point x="1076" y="863" type="line"/>
			<point x="1166" y="863"/>
			<point x="1259" y="827"/>
			<point x="1259" y="668" type="curve" smooth="yes"/>
			<point x="1259" y="391"/>
			<point x="909" y="75"/>
			<point x="718" y="75" type="curve" smooth="yes"/>
			<point x="607" y="75"/>
			<point x="630" y="169"/>
			<point x="655" y="327" type="curve" smooth="yes"/>
			<point x="712" y="676" type="line" smooth="yes"/>
			<point x="718.516" y="719.321"/>
			<point x="720" y="735"/>
			<point x="720" y="764" type="curve" smooth="yes"/>
			<point x="720" y="890"/>
			<point x="611" y="939"/>
			<point x="497" y="939" type="curve" smooth="yes"/>
			<point x="235" y="939"/>
			<point x="123" y="774"/>
			<point x="29" y="574" type="curve"/>
			<point x="99" y="553" type="line"/>
			<point x="149" y="675"/>
			<point x="233" y="789"/>
			<point x="317" y="789" type="curve" smooth="yes"/>
			<point x="342" y="789"/>
			<point x="355" y="772"/>
			<point x="355" y="751" type="curve" smooth="yes"/>
			<point x="355" y="741"/>
			<point x="352" y="727"/>
			<point x="350" y="715" type="curve" smooth="yes"/>
			<point x="264" y="262" type="line" smooth="yes"/>
			<point x="229.275" y="79.0869"/>
			<point x="422" y="-20"/>
		</contour>
	</outline>
</glyph>
<glyph name="w" format="2">
  <advance width="1706"/>
  <unicode hex="0077"/>
  <anchor x="786" y="0" name="bottom"/>
  <anchor x="1066" y="920" name="top"/>
  <outline>
    <contour>
      <point x="504" y="305" type="line" smooth="yes"/>
      <point x="449.826" y="148.295"/>
      <point x="418" y="74"/>
      <point x="460" y="74" type="curve" smooth="yes"/>
      <point x="556" y="74"/>
      <point x="710" y="267"/>
      <point x="792" y="574" type="curve"/>
      <point x="855" y="574" type="line"/>
      <point x="773" y="269"/>
      <point x="629" y="-20"/>
      <point x="362" y="-20" type="curve" smooth="yes"/>
      <point x="169" y="-20"/>
      <point x="57.415" y="77.998"/>
      <point x="127" y="282" type="curve" smooth="yes"/>
      <point x="285" y="744" type="line" smooth="yes"/>
      <point x="289.191" y="756.276"/>
      <point x="297" y="778"/>
      <point x="297" y="795" type="curve" smooth="yes"/>
      <point x="297" y="813"/>
      <point x="287" y="818"/>
      <point x="274" y="818" type="curve" smooth="yes"/>
      <point x="235" y="818"/>
      <point x="147" y="762"/>
      <point x="71" y="590" type="curve"/>
      <point x="0" y="614" type="line"/>
      <point x="76" y="814"/>
      <point x="239" y="940"/>
      <point x="411" y="940" type="curve" smooth="yes"/>
      <point x="555" y="940"/>
      <point x="656" y="875"/>
      <point x="656" y="789" type="curve" smooth="yes"/>
      <point x="656" y="756"/>
      <point x="644.597" y="713.76"/>
      <point x="635" y="686" type="curve" smooth="yes"/>
    </contour>
    <contour>
      <point x="883" y="920" type="line"/>
      <point x="1243" y="920" type="line"/>
      <point x="1108" y="411" type="line" smooth="yes"/>
      <point x="1063.76" y="244.183"/>
      <point x="982" y="65"/>
      <point x="1145" y="65" type="curve" smooth="yes"/>
      <point x="1386" y="65"/>
      <point x="1626" y="462"/>
      <point x="1626" y="678" type="curve" smooth="yes"/>
      <point x="1626" y="795.358"/>
      <point x="1580.72" y="862.61"/>
      <point x="1488" y="863" type="curve"/>
      <point x="1488" y="936" type="line"/>
      <point x="1607.71" y="935.438"/>
      <point x="1696" y="829"/>
      <point x="1696" y="724" type="curve" smooth="yes"/>
      <point x="1696" y="593.786"/>
      <point x="1594" y="510"/>
      <point x="1483" y="510" type="curve" smooth="yes"/>
      <point x="1373" y="510"/>
      <point x="1276" y="594"/>
      <point x="1276" y="719" type="curve" smooth="yes"/>
      <point x="1276" y="845"/>
      <point x="1374" y="938"/>
      <point x="1488" y="938" type="curve" smooth="yes"/>
      <point x="1614" y="938"/>
      <point x="1706" y="840"/>
      <point x="1706" y="678" type="curve" smooth="yes"/>
      <point x="1706" y="457"/>
      <point x="1484" y="-20"/>
      <point x="1114" y="-20" type="curve" smooth="yes"/>
      <point x="936" y="-20"/>
      <point x="734" y="76"/>
      <point x="734" y="355" type="curve"/>
    </contour>
  </outline>
</glyph>
<glyph name="w" format="2">
	<advance width="2017"/>
	<unicode hex="0077"/>
	<anchor x="1196" y="920" name="top"/>
	<anchor x="966" y="0" name="bottom"/>
	<outline>
		<contour>
			<point x="1278" y="-20" type="curve" smooth="yes"/>
			<point x="1728" y="-20"/>
			<point x="1978" y="467"/>
			<point x="1978" y="688" type="curve" smooth="yes"/>
			<point x="1978" y="860"/>
			<point x="1846" y="938"/>
			<point x="1720" y="938" type="curve" smooth="yes"/>
			<point x="1586" y="938"/>
			<point x="1498" y="835"/>
			<point x="1498" y="724" type="curve" smooth="yes"/>
			<point x="1498" y="624"/>
			<point x="1580" y="510"/>
			<point x="1710" y="510" type="curve" smooth="yes"/>
			<point x="1831" y="510"/>
			<point x="1948" y="613.786"/>
			<point x="1948" y="724" type="curve" smooth="yes"/>
			<point x="1948" y="819"/>
			<point x="1839.71" y="935.438"/>
			<point x="1720" y="936" type="curve"/>
			<point x="1720" y="863" type="line"/>
			<point x="1802.72" y="862.61"/>
			<point x="1903" y="795.358"/>
			<point x="1903" y="688" type="curve" smooth="yes"/>
			<point x="1903" y="472"/>
			<point x="1635" y="82"/>
			<point x="1387" y="82" type="curve" smooth="yes"/>
			<point x="1224" y="82"/>
			<point x="1240" y="243"/>
			<point x="1280" y="411" type="curve" smooth="yes"/>
			<point x="1400" y="920" type="line"/>
			<point x="1020" y="920" type="line"/>
			<point x="886" y="355" type="line"/>
			<point x="886" y="76"/>
			<point x="1100" y="-20"/>
		</contour>
		<contour>
			<point x="484" y="-20" type="curve" smooth="yes"/>
			<point x="795" y="-20"/>
			<point x="905" y="219"/>
			<point x="991" y="574" type="curve"/>
			<point x="938" y="574" type="line"/>
			<point x="862" y="267"/>
			<point x="748" y="93"/>
			<point x="632" y="93" type="curve" smooth="yes"/>
			<point x="540" y="93"/>
			<point x="524" y="151"/>
			<point x="576" y="305" type="curve" smooth="yes"/>
			<point x="711" y="696" type="line" smooth="yes"/>
			<point x="717" y="714"/>
			<point x="723" y="736"/>
			<point x="723" y="765" type="curve" smooth="yes"/>
			<point x="723" y="891"/>
			<point x="625" y="940"/>
			<point x="471" y="940" type="curve" smooth="yes"/>
			<point x="239" y="940"/>
			<point x="126" y="808"/>
			<point x="29" y="594" type="curve"/>
			<point x="102" y="572" type="line"/>
			<point x="153" y="699"/>
			<point x="235" y="808"/>
			<point x="313" y="808" type="curve" smooth="yes"/>
			<point x="338" y="808"/>
			<point x="350" y="792"/>
			<point x="350" y="771" type="curve" smooth="yes"/>
			<point x="350" y="761"/>
			<point x="349" y="746"/>
			<point x="345" y="734" type="curve" smooth="yes"/>
			<point x="189" y="282" type="line" smooth="yes"/>
			<point x="118.702" y="78.3153"/>
			<point x="291" y="-20"/>
		</contour>
	</outline>
</glyph>
<glyph name="x" format="2">
	<advance width="1431"/>
	<unicode hex="0078"/>
	<anchor x="626" y="920" name="top"/>
	<anchor x="586" y="0" name="bottom"/>
	<outline>
		<contour>
			<point x="960" y="-20" type="curve" smooth="yes"/>
			<point x="1144" y="-20"/>
			<point x="1256" y="58"/>
			<point x="1320" y="218" type="curve"/>
			<point x="1253" y="250" type="line"/>
			<point x="1219" y="158"/>
			<point x="1162" y="86"/>
			<point x="1116" y="86" type="curve" smooth="yes"/>
			<point x="1091" y="86"/>
			<point x="1069" y="113"/>
			<point x="1061" y="134" type="curve" smooth="yes"/>
			<point x="991" y="327"/>
			<point x="924" y="564"/>
			<point x="854" y="738" type="curve" smooth="yes"/>
			<point x="797" y="875"/>
			<point x="743" y="939"/>
			<point x="550" y="939" type="curve" smooth="yes"/>
			<point x="346" y="939"/>
			<point x="246" y="858"/>
			<point x="184" y="698" type="curve"/>
			<point x="252" y="660" type="line"/>
			<point x="286" y="752"/>
			<point x="336" y="828"/>
			<point x="398" y="828" type="curve" smooth="yes"/>
			<point x="434" y="828"/>
			<point x="439" y="800"/>
			<point x="447" y="779" type="curve" smooth="yes"/>
			<point x="499" y="634"/>
			<point x="580" y="352"/>
			<point x="648" y="186" type="curve" smooth="yes"/>
			<point x="705" y="49"/>
			<point x="767" y="-20"/>
		</contour>
		<contour>
			<point x="242" y="-20" type="curve" smooth="yes"/>
			<point x="450" y="-20"/>
			<point x="590" y="225"/>
			<point x="710" y="420" type="curve"/>
			<point x="647" y="453" type="line"/>
			<point x="536" y="264"/>
			<point x="502.074" y="212.001"/>
			<point x="442" y="153" type="curve" smooth="yes"/>
			<point x="386" y="98"/>
			<point x="339" y="51"/>
			<point x="242" y="51" type="curve" smooth="yes"/>
			<point x="153" y="51"/>
			<point x="74" y="112"/>
			<point x="74" y="212" type="curve"/>
			<point x="1" y="212" type="line"/>
			<point x="1" y="117"/>
			<point x="106" y="32"/>
			<point x="196" y="32" type="curve" smooth="yes"/>
			<point x="324" y="32"/>
			<point x="386" y="127"/>
			<point x="386" y="218" type="curve" smooth="yes"/>
			<point x="386" y="308"/>
			<point x="316" y="412"/>
			<point x="196" y="412" type="curve" smooth="yes"/>
			<point x="80" y="412"/>
			<point x="-1" y="324"/>
			<point x="-1" y="212" type="curve" smooth="yes"/>
			<point x="-1" y="118"/>
			<point x="80" y="-20"/>
		</contour>
		<contour>
			<point x="815" y="466" type="line"/>
			<point x="926" y="655"/>
			<point x="959.926" y="706.999"/>
			<point x="1020" y="766" type="curve" smooth="yes"/>
			<point x="1076" y="821"/>
			<point x="1123" y="868"/>
			<point x="1220" y="868" type="curve" smooth="yes"/>
			<point x="1309" y="868"/>
			<point x="1388" y="807"/>
			<point x="1388" y="707" type="curve"/>
			<point x="1461" y="707" type="line"/>
			<point x="1461" y="802"/>
			<point x="1356" y="887"/>
			<point x="1266" y="887" type="curve" smooth="yes"/>
			<point x="1138" y="887"/>
			<point x="1076" y="792"/>
			<point x="1076" y="701" type="curve" smooth="yes"/>
			<point x="1076" y="611"/>
			<point x="1146" y="507"/>
			<point x="1266" y="507" type="curve" smooth="yes"/>
			<point x="1382" y="507"/>
			<point x="1463" y="595"/>
			<point x="1463" y="707" type="curve" smooth="yes"/>
			<point x="1463" y="801"/>
			<point x="1382" y="939"/>
			<point x="1220" y="939" type="curve" smooth="yes"/>
			<point x="1012" y="939"/>
			<point x="872" y="694"/>
			<point x="752" y="499" type="curve"/>
		</contour>
	</outline>
</glyph>
<glyph name="y" format="2">
	<advance width="1421"/>
	<unicode hex="0079"/>
	<anchor x="746" y="920" name="top"/>
	<anchor x="516" y="-500" name="bottom"/>
	<outline>
		<contour>
			<point x="321" y="-520" type="curve" smooth="yes"/>
			<point x="781" y="-520"/>
			<point x="1382" y="462"/>
			<point x="1382" y="722" type="curve" smooth="yes"/>
			<point x="1382" y="824"/>
			<point x="1308" y="939"/>
			<point x="1156" y="939" type="curve" smooth="yes"/>
			<point x="1042" y="939"/>
			<point x="952" y="857"/>
			<point x="952" y="746" type="curve" smooth="yes"/>
			<point x="952" y="646"/>
			<point x="1038" y="552"/>
			<point x="1158" y="552" type="curve" smooth="yes"/>
			<point x="1266" y="552"/>
			<point x="1362" y="639"/>
			<point x="1362" y="746" type="curve" smooth="yes"/>
			<point x="1362" y="852"/>
			<point x="1270" y="937"/>
			<point x="1156" y="937" type="curve"/>
			<point x="1156" y="864" type="line"/>
			<point x="1238" y="864"/>
			<point x="1305" y="807"/>
			<point x="1305" y="710" type="curve" smooth="yes"/>
			<point x="1305" y="504"/>
			<point x="729" y="-447"/>
			<point x="319" y="-447" type="curve" smooth="yes"/>
			<point x="183" y="-447"/>
			<point x="108" y="-322"/>
			<point x="108" y="-222" type="curve"/>
			<point x="35" y="-222" type="line"/>
			<point x="35" y="-312"/>
			<point x="155" y="-387"/>
			<point x="247" y="-387" type="curve" smooth="yes"/>
			<point x="337" y="-387"/>
			<point x="428" y="-303"/>
			<point x="428" y="-197" type="curve" smooth="yes"/>
			<point x="428" y="-81"/>
			<point x="326" y="-10"/>
			<point x="236" y="-10" type="curve" smooth="yes"/>
			<point x="120" y="-10"/>
			<point x="33" y="-116"/>
			<point x="33" y="-222" type="curve" smooth="yes"/>
			<point x="33" y="-382"/>
			<point x="147" y="-520"/>
		</contour>
		<contour>
			<point x="720" y="-253" type="curve"/>
			<point x="768" y="-191"/>
			<point x="961" y="-12"/>
			<point x="1001" y="47" type="curve"/>
			<point x="871" y="240"/>
			<point x="801" y="550"/>
			<point x="748" y="731" type="curve" smooth="yes"/>
			<point x="711" y="857"/>
			<point x="637" y="939"/>
			<point x="444" y="939" type="curve" smooth="yes"/>
			<point x="260" y="939"/>
			<point x="143" y="873"/>
			<point x="77" y="693" type="curve"/>
			<point x="149" y="662" type="line"/>
			<point x="187" y="773"/>
			<point x="229" y="798"/>
			<point x="290" y="798" type="curve" smooth="yes"/>
			<point x="326" y="798"/>
			<point x="343" y="770"/>
			<point x="351" y="749" type="curve" smooth="yes"/>
			<point x="406" y="604"/>
			<point x="574" y="-1"/>
		</contour>
	</outline>
</glyph>
<glyph name="z" format="2">
  <advance width="1049"/>
  <unicode hex="007A"/>
  <anchor x="377" y="0" name="bottom"/>
  <anchor x="557" y="920" name="top"/>
  <outline>
    <contour>
      <point x="36" y="380" type="line"/>
      <point x="170" y="939" type="line"/>
      <point x="277" y="878"/>
      <point x="437" y="856"/>
      <point x="529" y="856" type="curve" smooth="yes"/>
      <point x="625" y="856"/>
      <point x="880" y="875"/>
      <point x="944" y="939" type="curve"/>
      <point x="989" y="883" type="line"/>
      <point x="781" y="763"/>
      <point x="489" y="505"/>
      <point x="348" y="505" type="curve" smooth="yes"/>
      <point x="260" y="505"/>
      <point x="213" y="541"/>
      <point x="161" y="571" type="curve"/>
      <point x="108" y="380" type="line"/>
    </contour>
    <contour>
      <point x="25" y="40" type="line"/>
      <point x="-80" y="36" type="line"/>
      <point x="878" y="879" type="line"/>
      <point x="989" y="883" type="line"/>
    </contour>
    <contour>
      <point x="944" y="420" type="curve"/>
      <point x="1017" y="420" type="line"/>
      <point x="1017" y="330"/>
      <point x="927" y="252"/>
      <point x="819" y="252" type="curve" smooth="yes"/>
      <point x="713" y="252"/>
      <point x="645" y="321"/>
      <point x="645" y="432" type="curve" smooth="yes"/>
      <point x="645" y="532"/>
      <point x="730" y="614"/>
      <point x="830" y="614" type="curve" smooth="yes"/>
      <point x="941" y="614"/>
      <point x="1019" y="532"/>
      <point x="1019" y="420" type="curve" smooth="yes"/>
      <point x="1019" y="200"/>
      <point x="790" y="-20"/>
      <point x="606" y="-20" type="curve" smooth="yes"/>
      <point x="454" y="-20"/>
      <point x="337" y="78"/>
      <point x="205" y="78" type="curve" smooth="yes"/>
      <point x="109" y="78"/>
      <point x="33" y="44"/>
      <point x="-31" y="-20" type="curve"/>
      <point x="-80" y="36" type="line"/>
      <point x="128" y="166"/>
      <point x="361" y="325"/>
      <point x="486" y="325" type="curve" smooth="yes"/>
      <point x="623" y="325"/>
      <point x="703" y="174"/>
      <point x="793" y="174" type="curve" smooth="yes"/>
      <point x="878" y="174"/>
      <point x="944" y="270"/>
    </contour>
  </outline>
</glyph>
<glyph name="z" format="2">
	<advance width="1061"/>
	<unicode hex="007A"/>
	<anchor x="586" y="920" name="top"/>
	<anchor x="406" y="0" name="bottom"/>
	<outline>
		<contour>
			<point x="-51" y="36" type="line"/>
			<point x="54" y="40" type="line"/>
			<point x="1018" y="883" type="line"/>
			<point x="907" y="879" type="line"/>
		</contour>
		<contour>
			<point x="-2" y="-20" type="line"/>
			<point x="62" y="44"/>
			<point x="138" y="78"/>
			<point x="234" y="78" type="curve" smooth="yes"/>
			<point x="366" y="78"/>
			<point x="483" y="-20"/>
			<point x="635" y="-20" type="curve" smooth="yes"/>
			<point x="819" y="-20"/>
			<point x="1048" y="200"/>
			<point x="1048" y="420" type="curve" smooth="yes"/>
			<point x="1048" y="532"/>
			<point x="950" y="614"/>
			<point x="859" y="614" type="curve" smooth="yes"/>
			<point x="779" y="614"/>
			<point x="674" y="532"/>
			<point x="674" y="432" type="curve" smooth="yes"/>
			<point x="674" y="341"/>
			<point x="772" y="252"/>
			<point x="848" y="252" type="curve" smooth="yes"/>
			<point x="926" y="252"/>
			<point x="1046" y="330"/>
			<point x="1046" y="420" type="curve"/>
			<point x="973" y="420" type="line"/>
			<point x="973" y="270"/>
			<point x="917" y="204"/>
			<point x="832" y="204" type="curve" smooth="yes"/>
			<point x="662" y="204"/>
			<point x="652" y="345"/>
			<point x="535" y="345" type="curve" smooth="yes"/>
			<point x="410" y="345"/>
			<point x="157" y="156"/>
			<point x="-51" y="36" type="curve"/>
		</contour>
		<contour>
			<point x="65" y="380" type="line"/>
			<point x="137" y="380" type="line"/>
			<point x="190" y="571" type="line"/>
			<point x="242" y="541"/>
			<point x="289" y="505"/>
			<point x="377" y="505" type="curve" smooth="yes"/>
			<point x="518" y="505"/>
			<point x="810" y="763"/>
			<point x="1018" y="883" type="curve"/>
			<point x="973" y="939" type="line"/>
			<point x="909" y="875"/>
			<point x="654" y="856"/>
			<point x="558" y="856" type="curve" smooth="yes"/>
			<point x="466" y="856"/>
			<point x="306" y="878"/>
			<point x="199" y="939" type="curve"/>
		</contour>
	</outline>
</glyph>
<glyph name="braceleft" format="2">
	<advance width="743"/>
	<unicode hex="007B"/>
	<outline>
		<contour>
			<point x="170" y="620" type="line"/>
			<point x="378" y="640"/>
			<point x="729" y="714"/>
			<point x="729" y="941" type="curve" smooth="yes"/>
			<point x="729" y="1061"/>
			<point x="700" y="1123"/>
			<point x="700" y="1234" type="curve" smooth="yes"/>
			<point x="700" y="1420"/>
			<point x="840" y="1486"/>
			<point x="964" y="1486" type="curve"/>
			<point x="964" y="1561" type="line"/>
			<point x="634" y="1561"/>
			<point x="305" y="1420"/>
			<point x="305" y="1143" type="curve" smooth="yes"/>
			<point x="305" y="969"/>
			<point x="359" y="974"/>
			<point x="359" y="848" type="curve" smooth="yes"/>
			<point x="359" y="746"/>
			<point x="231" y="704"/>
			<point x="170" y="684" type="curve"/>
		</contour>
		<contour>
			<point x="544" y="-300" type="curve"/>
			<point x="544" y="-227" type="line"/>
			<point x="420" y="-227"/>
			<point x="396" y="-145"/>
			<point x="396" y="-59" type="curve" smooth="yes"/>
			<point x="396" y="93"/>
			<point x="584" y="200"/>
			<point x="584" y="400" type="curve" smooth="yes"/>
			<point x="584" y="586"/>
			<point x="378" y="621"/>
			<point x="170" y="641" type="curve"/>
			<point x="170" y="576" type="line"/>
			<point x="231" y="556"/>
			<point x="270" y="539"/>
			<point x="270" y="457" type="curve" smooth="yes"/>
			<point x="270" y="331"/>
			<point x="10" y="234"/>
			<point x="10" y="-20" type="curve" smooth="yes"/>
			<point x="10" y="-238"/>
			<point x="214" y="-300"/>
		</contour>
	</outline>
</glyph>
<glyph name="cent" format="2">
  <advance width="1035"/>
  <unicode hex="00A2"/>
  <outline>
    <contour>
      <point x="740" y="1109" type="line"/>
      <point x="400" y="-170" type="line"/>
      <point x="361" y="-170" type="line"/>
      <point x="700" y="1109" type="line"/>
    </contour>
    <component base="c"/>
  </outline>
</glyph>
<glyph name="sterling" format="2">
	<advance width="1433"/>
	<unicode hex="00A3"/>
	<outline>
		<contour>
			<point x="64" y="-40" type="curve"/>
			<point x="133" y="-40" type="line"/>
			<point x="127" y="419"/>
			<point x="859" y="439"/>
			<point x="859" y="859" type="curve" smooth="yes"/>
			<point x="859" y="1009"/>
			<point x="818" y="1042"/>
			<point x="818" y="1160" type="curve" smooth="yes"/>
			<point x="818" y="1308"/>
			<point x="932" y="1435"/>
			<point x="1130" y="1435" type="curve" smooth="yes"/>
			<point x="1234" y="1435"/>
			<point x="1337" y="1397"/>
			<point x="1394" y="1307" type="curve"/>
			<point x="1371" y="1334"/>
			<point x="1309" y="1350"/>
			<point x="1266" y="1350" type="curve" smooth="yes"/>
			<point x="1148" y="1350"/>
			<point x="1032" y="1271"/>
			<point x="1032" y="1141" type="curve" smooth="yes"/>
			<point x="1032" y="1000"/>
			<point x="1136" y="908"/>
			<point x="1266" y="908" type="curve" smooth="yes"/>
			<point x="1386" y="908"/>
			<point x="1494" y="1009"/>
			<point x="1494" y="1152" type="curve" smooth="yes"/>
			<point x="1494" y="1356"/>
			<point x="1374" y="1520"/>
			<point x="1050" y="1520" type="curve" smooth="yes"/>
			<point x="689" y="1520"/>
			<point x="316" y="1340"/>
			<point x="316" y="1040" type="curve" smooth="yes"/>
			<point x="316" y="870"/>
			<point x="378" y="750"/>
			<point x="378" y="622" type="curve" smooth="yes"/>
			<point x="378" y="374"/>
			<point x="46" y="237"/>
		</contour>
		<contour>
			<point x="884" y="-61" type="curve" smooth="yes"/>
			<point x="1161" y="-61"/>
			<point x="1344" y="265"/>
			<point x="1384" y="555" type="curve"/>
			<point x="1311" y="555" type="line"/>
			<point x="1271" y="391"/>
			<point x="1149" y="366"/>
			<point x="1023" y="366" type="curve" smooth="yes"/>
			<point x="871" y="366"/>
			<point x="864" y="434"/>
			<point x="684" y="434" type="curve" smooth="yes"/>
			<point x="512" y="434"/>
			<point x="162" y="189"/>
			<point x="82" y="-40" type="curve"/>
			<point x="137" y="-40" type="line"/>
			<point x="177" y="21"/>
			<point x="245" y="61"/>
			<point x="327" y="61" type="curve" smooth="yes"/>
			<point x="453" y="61"/>
			<point x="611" y="-61"/>
		</contour>
		<contour>
			<point x="130" y="736" type="line"/>
			<point x="1230" y="736" type="line"/>
			<point x="1230" y="811" type="line"/>
			<point x="130" y="811" type="line"/>
		</contour>
	</outline>
</glyph>
<glyph name="brokenbar" format="2">
	<advance width="439"/>
	<unicode hex="00A6"/>
	<outline>
		<contour>
			<point x="-9" y="-500" type="line"/>
			<point x="61" y="-500" type="line"/>
			<point x="252" y="332" type="line"/>
			<point x="184" y="332" type="line"/>
		</contour>
		<contour>
			<point x="295" y="818" type="line"/>
			<point x="365" y="818" type="line"/>
			<point x="537" y="1561" type="line"/>
			<point x="467" y="1561" type="line"/>
		</contour>
	</outline>
</glyph>
<glyph name="section" format="2">
	<advance width="947"/>
	<unicode hex="00A7"/>
	<outline>
		<contour>
			<point x="350" y="-20" type="curve" smooth="yes"/>
			<point x="620" y="-20"/>
			<point x="880" y="176"/>
			<point x="880" y="384" type="curve" smooth="yes"/>
			<point x="880" y="668"/>
			<point x="385" y="692"/>
			<point x="385" y="854" type="curve" smooth="yes"/>
			<point x="385" y="915"/>
			<point x="450" y="976"/>
			<point x="477" y="980" type="curve"/>
			<point x="424" y="980" type="line"/>
			<point x="317" y="948"/>
			<point x="139" y="795"/>
			<point x="139" y="650" type="curve" smooth="yes"/>
			<point x="139" y="364"/>
			<point x="641" y="389"/>
			<point x="641" y="217" type="curve" smooth="yes"/>
			<point x="641" y="162"/>
			<point x="556" y="47"/>
			<point x="350" y="47" type="curve" smooth="yes"/>
			<point x="246" y="47"/>
			<point x="139" y="66"/>
			<point x="77" y="127" type="curve"/>
			<point x="100" y="115"/>
			<point x="133" y="109"/>
			<point x="156" y="109" type="curve" smooth="yes"/>
			<point x="254" y="109"/>
			<point x="330" y="182"/>
			<point x="330" y="286" type="curve" smooth="yes"/>
			<point x="330" y="378"/>
			<point x="258" y="432"/>
			<point x="158" y="432" type="curve" smooth="yes"/>
			<point x="38" y="432"/>
			<point x="-38" y="350"/>
			<point x="-38" y="248" type="curve" smooth="yes"/>
			<point x="-38" y="57"/>
			<point x="174" y="-20"/>
		</contour>
		<contour>
			<point x="702" y="527" type="line"/>
			<point x="809" y="599"/>
			<point x="977" y="656"/>
			<point x="977" y="820" type="curve" smooth="yes"/>
			<point x="977" y="1127"/>
			<point x="521" y="1066"/>
			<point x="521" y="1278" type="curve" smooth="yes"/>
			<point x="521" y="1391"/>
			<point x="610" y="1451"/>
			<point x="756" y="1451" type="curve" smooth="yes"/>
			<point x="881" y="1451"/>
			<point x="935" y="1412"/>
			<point x="955" y="1394" type="curve"/>
			<point x="939" y="1400"/>
			<point x="924" y="1402"/>
			<point x="891" y="1402" type="curve" smooth="yes"/>
			<point x="813" y="1402"/>
			<point x="736" y="1336"/>
			<point x="736" y="1252" type="curve" smooth="yes"/>
			<point x="736" y="1141"/>
			<point x="804" y="1080"/>
			<point x="904" y="1080" type="curve" smooth="yes"/>
			<point x="1013" y="1080"/>
			<point x="1090" y="1149"/>
			<point x="1090" y="1271" type="curve" smooth="yes"/>
			<point x="1090" y="1403"/>
			<point x="951" y="1520"/>
			<point x="756" y="1520" type="curve" smooth="yes"/>
			<point x="526" y="1520"/>
			<point x="275" y="1334"/>
			<point x="275" y="1126" type="curve" smooth="yes"/>
			<point x="275" y="782"/>
			<point x="729" y="848"/>
			<point x="729" y="686" type="curve" smooth="yes"/>
			<point x="729" y="606"/>
			<point x="705" y="584"/>
			<point x="657" y="540" type="curve"/>
		</contour>
	</outline>
</glyph>
<glyph name="guillemotleft" format="2">
  <advance width="1389"/>
  <unicode hex="00AB"/>
  <outline>
    <contour>
      <point x="1162" y="775" type="line"/>
      <point x="1310" y="330" type="line"/>
      <point x="1270" y="290" type="line"/>
      <point x="710" y="750" type="line"/>
      <point x="710" y="800" type="line"/>
      <point x="1490" y="1260" type="line"/>
      <point x="1529" y="1221" type="line"/>
    </contour>
    <contour>
      <point x="602" y="775" type="line"/>
      <point x="750" y="330" type="line"/>
      <point x="710" y="290" type="line"/>
      <point x="150" y="750" type="line"/>
      <point x="150" y="800" type="line"/>
      <point x="930" y="1260" type="line"/>
      <point x="970" y="1221" type="line"/>
    </contour>
  </outline>
</glyph>
<glyph name="acute" format="2">
  <advance width="789"/>
  <unicode hex="00B4"/>
  <outline>
    <contour>
      <point x="949" y="1439" type="curve" smooth="yes"/>
      <point x="464" y="1403" type="line"/>
      <point x="445" y="1477" type="line"/>
      <point x="930" y="1576" type="line" smooth="yes"/>
      <point x="987" y="1588"/>
      <point x="1020" y="1548"/>
      <point x="1020" y="1510" type="curve" smooth="yes"/>
      <point x="1020" y="1472"/>
      <point x="987" y="1442"/>
    </contour>
  </outline>
</glyph>
<glyph name="acute" format="2">
	<advance width="789"/>
	<unicode hex="00B4"/>
	<outline>
		<contour>
			<point x="464" y="1403" type="line"/>
			<point x="949" y="1439" type="line" smooth="yes"/>
			<point x="987" y="1442"/>
			<point x="1020" y="1472"/>
			<point x="1020" y="1510" type="curve" smooth="yes"/>
			<point x="1020" y="1548"/>
			<point x="987" y="1588"/>
			<point x="930" y="1576" type="curve" smooth="yes"/>
			<point x="445" y="1477" type="line"/>
		</contour>
	</outline>
</glyph>
<glyph name="mu" format="2">
  <advance width="1243"/>
  <unicode hex="00B5"/>
  <outline>
    <contour>
      <point x="371.322" y="-146" type="curve" smooth="yes"/>
      <point x="477.322" y="-146"/>
      <point x="554.322" y="-224"/>
      <point x="554.322" y="-330" type="curve" smooth="yes"/>
      <point x="554.322" y="-438"/>
      <point x="473.322" y="-520"/>
      <point x="327.322" y="-520" type="curve" smooth="yes"/>
      <point x="156.322" y="-520"/>
      <point x="-49.7881" y="-451.401"/>
      <point x="-2.67773" y="-242" type="curve" smooth="yes"/>
      <point x="242.322" y="847" type="line"/>
      <point x="314.322" y="847" type="line"/>
      <point x="69.3223" y="-242" type="line" smooth="yes"/>
      <point x="28.6357" y="-422.847"/>
      <point x="193.322" y="-455"/>
      <point x="333.322" y="-455" type="curve"/>
      <point x="333.322" y="-517" type="line"/>
      <point x="253.322" y="-517"/>
      <point x="188.322" y="-418"/>
      <point x="188.322" y="-322" type="curve" smooth="yes"/>
      <point x="188.322" y="-226"/>
      <point x="265.322" y="-146"/>
    </contour>
    <component base="u"/>
  </outline>
</glyph>
<glyph name="mu" format="2">
	<advance width="1427"/>
	<unicode hex="00B5"/>
	<outline>
		<contour>
			<point x="340" y="-520" type="curve" smooth="yes"/>
			<point x="486" y="-520"/>
			<point x="567" y="-438"/>
			<point x="567" y="-330" type="curve" smooth="yes"/>
			<point x="567" y="-224"/>
			<point x="490" y="-146"/>
			<point x="384" y="-146" type="curve" smooth="yes"/>
			<point x="278" y="-146"/>
			<point x="201" y="-226"/>
			<point x="201" y="-322" type="curve" smooth="yes"/>
			<point x="201" y="-418"/>
			<point x="266" y="-517"/>
			<point x="346" y="-517" type="curve"/>
			<point x="346" y="-455" type="line"/>
			<point x="206" y="-455"/>
			<point x="41.3137" y="-422.847"/>
			<point x="82" y="-242" type="curve" smooth="yes"/>
			<point x="327" y="847" type="line"/>
			<point x="255" y="847" type="line"/>
			<point x="10" y="-242" type="line" smooth="yes"/>
			<point x="-37.1105" y="-451.401"/>
			<point x="169" y="-520"/>
		</contour>
		<component base="u"/>
	</outline>
</glyph>
<glyph name="paragraph" format="2">
  <advance width="1462"/>
  <unicode hex="00B6"/>
  <outline>
    <contour>
      <point x="1331" y="1500" type="line"/>
      <point x="1258" y="1500" type="line"/>
      <point x="843" y="-300" type="line"/>
      <point x="916" y="-300" type="line"/>
    </contour>
    <contour>
      <point x="1173" y="1500" type="line"/>
      <point x="1100" y="1500" type="line"/>
      <point x="685" y="-300" type="line"/>
      <point x="758" y="-300" type="line"/>
    </contour>
    <contour>
      <point x="1096" y="-227" type="line"/>
      <point x="505" y="-227" type="line"/>
      <point x="505" y="-300" type="line"/>
      <point x="1096" y="-300" type="line"/>
    </contour>
    <contour>
      <point x="701" y="379" type="curve" smooth="yes"/>
      <point x="861" y="379" type="line"/>
      <point x="1141" y="1427" type="line"/>
      <point x="1501" y="1427" type="line"/>
      <point x="1501" y="1500" type="line"/>
      <point x="981" y="1500" type="line" smooth="yes"/>
      <point x="530" y="1500"/>
      <point x="171" y="1229"/>
      <point x="171" y="799" type="curve" smooth="yes"/>
      <point x="171" y="479"/>
      <point x="460" y="379"/>
    </contour>
  </outline>
</glyph>
<glyph name="cedilla" format="2">
	<advance width="1099"/>
	<unicode hex="00B8"/>
	<anchor x="563" y="0" name="_cedilla"/>
	<outline>
		<contour>
			<point x="244" y="-509" type="line"/>
			<point x="506" y="-509"/>
			<point x="750" y="-451"/>
			<point x="750" y="-291" type="curve" smooth="yes"/>
			<point x="750" y="-187"/>
			<point x="622" y="-156"/>
			<point x="483" y="-149" type="curve"/>
			<point x="645" y="12" type="line"/>
			<point x="531" y="12" type="line"/>
			<point x="291" y="-228" type="line"/>
			<point x="381" y="-228"/>
			<point x="440" y="-264"/>
			<point x="440" y="-330" type="curve" smooth="yes"/>
			<point x="440" y="-426"/>
			<point x="351" y="-437"/>
			<point x="244" y="-437" type="curve"/>
		</contour>
	</outline>
</glyph>
<glyph name="threequarters" format="2">
  <advance width="1401"/>
  <unicode hex="00BE"/>
  <outline>
    <contour>
      <point x="1324" y="1300" type="line"/>
      <point x="1393" y="1300" type="line"/>
      <point x="154" y="-200" type="line"/>
      <point x="86" y="-200" type="line"/>
    </contour>
    <component base="three" xScale="0.6" yScale="0.6" xOffset="170" yOffset="708"/>
    <component base="four" xScale="0.6" yScale="0.6" xOffset="600" yOffset="-206"/>
  </outline>
</glyph>
<glyph name="AE" format="2">
	<advance width="2212"/>
	<unicode hex="00C6"/>
	<outline>
		<contour>
			<point x="12" y="0" type="line"/>
			<point x="110" y="0" type="line"/>
			<point x="1311" y="1500" type="line"/>
			<point x="1222" y="1500" type="line"/>
		</contour>
		<contour>
			<point x="-90" y="0" type="line"/>
			<point x="351" y="0" type="line"/>
			<point x="351" y="73" type="line"/>
			<point x="-90" y="73" type="line"/>
		</contour>
		<contour>
			<point x="470" y="453" type="line"/>
			<point x="1069" y="453" type="line"/>
			<point x="1069" y="526" type="line"/>
			<point x="470" y="526" type="line"/>
		</contour>
		<contour>
			<point x="760" y="0" type="line"/>
			<point x="2029" y="0" type="line"/>
			<point x="2134" y="450" type="line"/>
			<point x="2061" y="450" type="line"/>
			<point x="1952" y="196"/>
			<point x="1750" y="73"/>
			<point x="1477" y="73" type="curve" smooth="yes"/>
			<point x="760" y="73" type="line"/>
		</contour>
		<contour>
			<point x="931" y="0" type="line"/>
			<point x="1360" y="0" type="line"/>
			<point x="1708" y="1500" type="line"/>
			<point x="1278" y="1500" type="line"/>
		</contour>
		<contour>
			<point x="1775" y="497" type="curve"/>
			<point x="1848" y="497" type="line"/>
			<point x="1977" y="1046" type="line"/>
			<point x="1903" y="1046" type="line"/>
			<point x="1824" y="912"/>
			<point x="1689" y="812"/>
			<point x="1576" y="812" type="curve" smooth="yes"/>
			<point x="1464" y="812" type="line"/>
			<point x="1464" y="739" type="line"/>
			<point x="1576" y="739" type="line" smooth="yes"/>
			<point x="1689" y="739"/>
			<point x="1754" y="631"/>
		</contour>
		<contour>
			<point x="2189" y="1090" type="curve"/>
			<point x="2262" y="1090" type="line"/>
			<point x="2358" y="1500" type="line"/>
			<point x="1317" y="1500" type="line"/>
			<point x="1317" y="1427" type="line"/>
			<point x="1825" y="1427" type="line" smooth="yes"/>
			<point x="2059" y="1427"/>
			<point x="2189" y="1304"/>
		</contour>
	</outline>
</glyph>
<glyph name="Eth" format="2">
	<advance width="1639"/>
	<unicode hex="00D0"/>
	<outline>
		<contour>
			<point x="-52" y="0" type="line"/>
			<point x="777" y="0" type="line" smooth="yes"/>
			<point x="1263" y="0"/>
			<point x="1668" y="410"/>
			<point x="1668" y="956" type="curve" smooth="yes"/>
			<point x="1668" y="1282"/>
			<point x="1443" y="1500"/>
			<point x="1117" y="1500" type="curve" smooth="yes"/>
			<point x="268" y="1500" type="line"/>
			<point x="268" y="1427" type="line"/>
			<point x="957" y="1427" type="line" smooth="yes"/>
			<point x="1205" y="1427"/>
			<point x="1213" y="1336"/>
			<point x="1213" y="1152" type="curve" smooth="yes"/>
			<point x="1213" y="728"/>
			<point x="1025" y="73"/>
			<point x="666" y="73" type="curve" smooth="yes"/>
			<point x="-52" y="73" type="line"/>
		</contour>
		<contour>
			<point x="128" y="0" type="line"/>
			<point x="558" y="0" type="line"/>
			<point x="898" y="1500" type="line"/>
			<point x="469" y="1500" type="line"/>
		</contour>
		<contour>
			<point x="158" y="713" type="line"/>
			<point x="962" y="713" type="line"/>
			<point x="962" y="787" type="line"/>
			<point x="158" y="787" type="line"/>
		</contour>
	</outline>
</glyph>
<glyph name="Thorn" format="2">
  <advance width="1469"/>
  <unicode hex="00DE"/>
  <outline>
    <contour>
      <point x="750" y="359" type="curve" smooth="yes"/>
      <point x="529" y="359" type="line"/>
      <point x="529" y="434" type="line"/>
      <point x="650" y="434" type="line" smooth="yes"/>
      <point x="882" y="434"/>
      <point x="975" y="709"/>
      <point x="975" y="927" type="curve" smooth="yes"/>
      <point x="975" y="1045"/>
      <point x="942" y="1127"/>
      <point x="850" y="1127" type="curve" smooth="yes"/>
      <point x="520" y="1127" type="line"/>
      <point x="520" y="1200" type="line"/>
      <point x="950" y="1200" type="line" smooth="yes"/>
      <point x="1212" y="1200"/>
      <point x="1430" y="1120"/>
      <point x="1430" y="880" type="curve" smooth="yes"/>
      <point x="1430" y="580"/>
      <point x="1152" y="359"/>
    </contour>
    <contour>
      <point x="-90" y="73" type="line"/>
      <point x="700" y="73" type="line"/>
      <point x="700" y="0" type="line"/>
      <point x="-90" y="0" type="line"/>
    </contour>
    <contour>
      <point x="250" y="1500" type="line"/>
      <point x="1040" y="1500" type="line"/>
      <point x="1040" y="1427" type="line"/>
      <point x="250" y="1427" type="line"/>
    </contour>
    <contour>
      <point x="420" y="1500" type="line"/>
      <point x="850" y="1500" type="line"/>
      <point x="500" y="0" type="line"/>
      <point x="70" y="0" type="line"/>
    </contour>
  </outline>
</glyph>
<glyph name="germandbls" format="2">
	<advance width="1701"/>
	<unicode hex="00DF"/>
	<outline>
		<contour>
			<point x="130" y="0" type="line"/>
			<point x="550" y="0" type="line"/>
			<point x="770" y="962" type="line" smooth="yes"/>
			<point x="832" y="1232"/>
			<point x="898" y="1453"/>
			<point x="1186" y="1453" type="curve" smooth="yes"/>
			<point x="1274" y="1453"/>
			<point x="1340" y="1407"/>
			<point x="1340" y="1262" type="curve" smooth="yes"/>
			<point x="1340" y="1094"/>
			<point x="1283" y="847"/>
			<point x="1025" y="847" type="curve"/>
			<point x="1025" y="802" type="line"/>
			<point x="1427" y="802"/>
			<point x="1771" y="942"/>
			<point x="1771" y="1202" type="curve" smooth="yes"/>
			<point x="1771" y="1448"/>
			<point x="1472" y="1520"/>
			<point x="1206" y="1520" type="curve" smooth="yes"/>
			<point x="761" y="1520"/>
			<point x="445" y="1366"/>
			<point x="359" y="982" type="curve" smooth="yes"/>
		</contour>
		<contour>
			<point x="-50" y="0" type="line"/>
			<point x="730" y="0" type="line"/>
			<point x="730" y="73" type="line"/>
			<point x="-50" y="73" type="line"/>
		</contour>
		<contour>
			<point x="992" y="-20" type="curve" smooth="yes"/>
			<point x="1274" y="-20"/>
			<point x="1643" y="100"/>
			<point x="1643" y="480" type="curve" smooth="yes"/>
			<point x="1643" y="740"/>
			<point x="1386" y="820"/>
			<point x="1025" y="820" type="curve"/>
			<point x="1025" y="775" type="line"/>
			<point x="1143" y="775"/>
			<point x="1221" y="688"/>
			<point x="1221" y="500" type="curve" smooth="yes"/>
			<point x="1221" y="312"/>
			<point x="1151" y="57"/>
			<point x="973" y="57" type="curve" smooth="yes"/>
			<point x="864" y="57"/>
			<point x="806" y="126"/>
			<point x="781" y="204" type="curve"/>
			<point x="815" y="190"/>
			<point x="842" y="180"/>
			<point x="904" y="180" type="curve" smooth="yes"/>
			<point x="1002" y="180"/>
			<point x="1118" y="266"/>
			<point x="1118" y="370" type="curve" smooth="yes"/>
			<point x="1118" y="481"/>
			<point x="1030" y="562"/>
			<point x="910" y="562" type="curve" smooth="yes"/>
			<point x="780" y="562"/>
			<point x="695" y="444"/>
			<point x="695" y="312" type="curve" smooth="yes"/>
			<point x="695" y="148"/>
			<point x="774" y="-20"/>
		</contour>
	</outline>
</glyph>
<glyph name="eth" format="2">
	<advance width="1319"/>
	<unicode hex="00F0"/>
	<outline>
		<contour>
			<point x="572" y="-20" type="curve" smooth="yes"/>
			<point x="933" y="-20"/>
			<point x="1314" y="340"/>
			<point x="1314" y="760" type="curve" smooth="yes"/>
			<point x="1314" y="1205"/>
			<point x="1036" y="1520"/>
			<point x="490" y="1520" type="curve"/>
			<point x="490" y="1453" type="line"/>
			<point x="818" y="1453"/>
			<point x="935" y="1144"/>
			<point x="874" y="740" type="curve"/>
			<point x="848" y="787" type="line"/>
			<point x="848" y="459"/>
			<point x="684" y="53"/>
			<point x="566" y="53" type="curve" smooth="yes"/>
			<point x="507" y="53"/>
			<point x="494" y="85"/>
			<point x="494" y="213" type="curve" smooth="yes"/>
			<point x="494" y="421"/>
			<point x="624" y="889"/>
			<point x="782" y="889" type="curve" smooth="yes"/>
			<point x="816" y="889"/>
			<point x="848" y="867"/>
			<point x="848" y="787" type="curve"/>
			<point x="915" y="660" type="line"/>
			<point x="935" y="894"/>
			<point x="895" y="980"/>
			<point x="713" y="980" type="curve" smooth="yes"/>
			<point x="471" y="980"/>
			<point x="80" y="760"/>
			<point x="80" y="380" type="curve" smooth="yes"/>
			<point x="80" y="120"/>
			<point x="270" y="-20"/>
		</contour>
		<contour>
			<point x="520" y="1188" type="line"/>
			<point x="1439" y="1188" type="line"/>
			<point x="1439" y="1260" type="line"/>
			<point x="520" y="1260" type="line"/>
		</contour>
	</outline>
</glyph>
<glyph name="divide" format="2">
  <advance width="1219"/>
  <unicode hex="00F7"/>
  <outline>
    <contour>
      <point x="189" y="826" type="line"/>
      <point x="1309" y="826" type="line"/>
      <point x="1309" y="754" type="line"/>
      <point x="189" y="754" type="line"/>
    </contour>
    <contour>
      <point x="439" y="381" type="curve" smooth="yes"/>
      <point x="439" y="513"/>
      <point x="548" y="620"/>
      <point x="680" y="620" type="curve" smooth="yes"/>
      <point x="812" y="620"/>
      <point x="920" y="513"/>
      <point x="920" y="381" type="curve" smooth="yes"/>
      <point x="920" y="249"/>
      <point x="812" y="141"/>
      <point x="680" y="141" type="curve" smooth="yes"/>
      <point x="548" y="141"/>
      <point x="439" y="249"/>
    </contour>
    <contour>
      <point x="600" y="1190" type="curve" smooth="yes"/>
      <point x="600" y="1322"/>
      <point x="708" y="1430"/>
      <point x="840" y="1430" type="curve" smooth="yes"/>
      <point x="972" y="1430"/>
      <point x="1080" y="1322"/>
      <point x="1080" y="1190" type="curve" smooth="yes"/>
      <point x="1080" y="1058"/>
      <point x="972" y="950"/>
      <point x="840" y="950" type="curve" smooth="yes"/>
      <point x="708" y="950"/>
      <point x="600" y="1058"/>
    </contour>
  </outline>
</glyph>
<glyph name="thorn" format="2">
	<advance width="1299"/>
	<unicode hex="00FE"/>
	<outline>
		<contour>
			<point x="-61" y="-500" type="line"/>
			<point x="320" y="-500" type="line"/>
			<point x="508" y="305" type="line"/>
			<point x="520" y="426" type="line"/>
			<point x="570" y="588" type="line"/>
			<point x="782" y="1500" type="line"/>
			<point x="258" y="1500" type="line"/>
			<point x="258" y="1460" type="line"/>
			<point x="393" y="1460" type="line"/>
		</contour>
		<contour>
			<point x="-189" y="-500" type="line"/>
			<point x="460" y="-500" type="line"/>
			<point x="460" y="-460" type="line"/>
			<point x="-189" y="-460" type="line"/>
		</contour>
		<contour>
			<point x="604" y="116" type="curve" smooth="yes"/>
			<point x="562" y="116"/>
			<point x="532" y="185"/>
			<point x="532" y="290" type="curve" smooth="yes"/>
			<point x="532" y="498"/>
			<point x="669" y="800"/>
			<point x="771" y="800" type="curve" smooth="yes"/>
			<point x="813" y="800"/>
			<point x="842" y="746"/>
			<point x="842" y="678" type="curve" smooth="yes"/>
			<point x="842" y="410"/>
			<point x="692" y="116"/>
		</contour>
		<contour>
			<point x="738" y="-20" type="curve" smooth="yes"/>
			<point x="936" y="-20"/>
			<point x="1250" y="198"/>
			<point x="1250" y="598" type="curve" smooth="yes"/>
			<point x="1250" y="858"/>
			<point x="1071" y="938"/>
			<point x="932" y="938" type="curve" smooth="yes"/>
			<point x="650" y="938"/>
			<point x="500" y="506"/>
			<point x="500" y="290" type="curve" smooth="yes"/>
			<point x="500" y="106"/>
			<point x="586" y="-20"/>
		</contour>
	</outline>
</glyph>
<glyph name="dotlessi" format="2">
  <advance width="705"/>
  <unicode hex="0131"/>
  <anchor x="392" y="920" name="top"/>
  <outline>
    <contour>
      <point x="705" y="306" type="line"/>
      <point x="594" y="56"/>
      <point x="459" y="-20"/>
      <point x="286" y="-20" type="curve" smooth="yes"/>
      <point x="132" y="-20"/>
      <point x="60" y="41"/>
      <point x="60" y="127" type="curve" smooth="yes"/>
      <point x="60" y="177"/>
      <point x="69.084" y="207.993"/>
      <point x="75" y="230" type="curve" smooth="yes"/>
      <point x="237" y="847" type="line"/>
      <point x="101" y="847" type="line"/>
      <point x="101" y="920" type="line"/>
      <point x="614" y="920" type="line"/>
      <point x="412" y="165" type="line" smooth="yes"/>
      <point x="408.988" y="153.724"/>
      <point x="404" y="137"/>
      <point x="404" y="123" type="curve" smooth="yes"/>
      <point x="404" y="106"/>
      <point x="412" y="96"/>
      <point x="429" y="96" type="curve" smooth="yes"/>
      <point x="480" y="96"/>
      <point x="552" y="158"/>
      <point x="634" y="330" type="curve"/>
    </contour>
  </outline>
</glyph>
<glyph name="kgreenlandic" format="2">
  <advance width="1166"/>
  <unicode hex="0138"/>
  <anchor x="178" y="0" name="cedilla"/>
  <anchor x="556" y="0" name="bottom"/>
  <anchor x="686" y="920" name="top"/>
  <outline>
    <contour>
      <point x="1117" y="306" type="line"/>
      <point x="1031" y="76"/>
      <point x="902" y="-20"/>
      <point x="726" y="-20" type="curve" smooth="yes"/>
      <point x="622" y="-20"/>
      <point x="539" y="17"/>
      <point x="539" y="107" type="curve" smooth="yes"/>
      <point x="539" y="142"/>
      <point x="551.212" y="186.891"/>
      <point x="562" y="220" type="curve" smooth="yes"/>
      <point x="591" y="309" type="line" smooth="yes"/>
      <point x="634.953" y="431.842"/>
      <point x="657" y="542"/>
      <point x="569" y="542" type="curve" smooth="yes"/>
      <point x="496" y="542"/>
      <point x="477" y="448"/>
      <point x="457" y="380" type="curve"/>
      <point x="415" y="380" type="line"/>
      <point x="459" y="564"/>
      <point x="512" y="601"/>
      <point x="614" y="601" type="curve" smooth="yes"/>
      <point x="793" y="601"/>
      <point x="976.222" y="460.357"/>
      <point x="915" y="262" type="curve" smooth="yes"/>
      <point x="890" y="181" type="line" smooth="yes"/>
      <point x="887.844" y="174.013"/>
      <point x="887" y="163"/>
      <point x="887" y="159" type="curve" smooth="yes"/>
      <point x="887" y="148"/>
      <point x="894" y="141"/>
      <point x="909" y="141" type="curve" smooth="yes"/>
      <point x="938" y="141"/>
      <point x="970" y="148"/>
      <point x="1046" y="330" type="curve"/>
    </contour>
    <contour>
      <point x="448" y="439" type="curve"/>
      <point x="476" y="509" type="line"/>
      <point x="492" y="484"/>
      <point x="501" y="482"/>
      <point x="516" y="482" type="curve" smooth="yes"/>
      <point x="567" y="482"/>
      <point x="599" y="597"/>
      <point x="651" y="715" type="curve" smooth="yes"/>
      <point x="710.837" y="850.785"/>
      <point x="787" y="939"/>
      <point x="932" y="939" type="curve" smooth="yes"/>
      <point x="1062" y="939"/>
      <point x="1146" y="841"/>
      <point x="1146" y="747" type="curve" smooth="yes"/>
      <point x="1146" y="637"/>
      <point x="1063" y="558"/>
      <point x="953" y="558" type="curve" smooth="yes"/>
      <point x="843" y="558"/>
      <point x="764" y="632"/>
      <point x="764" y="748" type="curve" smooth="yes"/>
      <point x="764" y="855"/>
      <point x="843" y="932"/>
      <point x="940" y="932" type="curve" smooth="yes"/>
      <point x="1021.8" y="932"/>
      <point x="1144" y="857"/>
      <point x="1144" y="747" type="curve"/>
      <point x="1071" y="747" type="line"/>
      <point x="1071" y="807"/>
      <point x="1013" y="871"/>
      <point x="929" y="871" type="curve" smooth="yes"/>
      <point x="837" y="871"/>
      <point x="773.199" y="819.659"/>
      <point x="722" y="702" type="curve" smooth="yes"/>
      <point x="666.775" y="575.09"/>
      <point x="621" y="412"/>
      <point x="516" y="412" type="curve" smooth="yes"/>
      <point x="488" y="412"/>
      <point x="472" y="418"/>
    </contour>
    <contour>
      <point x="223" y="847" type="line"/>
      <point x="50" y="847" type="line"/>
      <point x="50" y="920" type="line"/>
      <point x="605" y="920" type="line"/>
      <point x="353" y="0" type="line"/>
      <point x="0" y="0" type="line"/>
    </contour>
  </outline>
</glyph>
<glyph name="Lslash" format="2">
	<advance width="1336"/>
	<unicode hex="0141"/>
	<outline>
		<contour>
			<point x="90" y="636" type="line"/>
			<point x="1001" y="1076" type="line"/>
			<point x="1001" y="1160" type="line"/>
			<point x="90" y="721" type="line"/>
		</contour>
		<component base="L"/>
	</outline>
</glyph>
<glyph name="lslash" format="2">
  <advance width="686"/>
  <unicode hex="0142"/>
  <outline>
    <contour>
      <point x="62" y="800" type="line"/>
      <point x="792" y="1160" type="line"/>
      <point x="792" y="1072" type="line"/>
      <point x="62" y="712" type="line"/>
    </contour>
    <component base="l"/>
  </outline>
</glyph>
<glyph name="Eng" format="2">
	<advance width="1587"/>
	<unicode hex="014A"/>
	<outline>
		<contour>
			<point x="658" y="-520" type="curve" smooth="yes"/>
			<point x="918" y="-520"/>
			<point x="1276" y="-283"/>
			<point x="1336" y="-23" type="curve" smooth="yes"/>
			<point x="1589" y="1069" type="line"/>
			<point x="1200" y="1032" type="line"/>
			<point x="971" y="40" type="line" smooth="yes"/>
			<point x="912" y="-214"/>
			<point x="853" y="-451"/>
			<point x="653" y="-451" type="curve" smooth="yes"/>
			<point x="554" y="-451"/>
			<point x="412" y="-372"/>
			<point x="437" y="-262" type="curve"/>
			<point x="364" y="-262" type="line"/>
			<point x="346" y="-342"/>
			<point x="419" y="-445"/>
			<point x="537" y="-445" type="curve" smooth="yes"/>
			<point x="664" y="-445"/>
			<point x="762" y="-367"/>
			<point x="788" y="-256" type="curve" smooth="yes"/>
			<point x="813" y="-146"/>
			<point x="733" y="-58"/>
			<point x="623" y="-58" type="curve" smooth="yes"/>
			<point x="502" y="-58"/>
			<point x="388" y="-150"/>
			<point x="362" y="-262" type="curve" smooth="yes"/>
			<point x="327" y="-415"/>
			<point x="466" y="-520"/>
		</contour>
		<contour>
			<point x="-88" y="0" type="line"/>
			<point x="571" y="0" type="line"/>
			<point x="588" y="73" type="line"/>
			<point x="-71" y="73" type="line"/>
		</contour>
		<contour>
			<point x="52" y="0" type="line"/>
			<point x="433" y="0" type="line"/>
			<point x="779" y="1500" type="line"/>
			<point x="258" y="1500" type="line"/>
			<point x="241" y="1427" type="line"/>
			<point x="381" y="1427" type="line"/>
		</contour>
		<contour>
			<point x="581" y="881" type="curve"/>
			<point x="636" y="881" type="line"/>
			<point x="698" y="1148"/>
			<point x="872" y="1362"/>
			<point x="1063" y="1362" type="curve" smooth="yes"/>
			<point x="1200" y="1362"/>
			<point x="1260" y="1290"/>
			<point x="1200" y="1032" type="curve"/>
			<point x="1589" y="1069" type="line"/>
			<point x="1652" y="1343"/>
			<point x="1562" y="1519"/>
			<point x="1233" y="1519" type="curve" smooth="yes"/>
			<point x="845" y="1519"/>
			<point x="642" y="1146"/>
		</contour>
	</outline>
</glyph>
<glyph name="eng" format="2">
	<advance width="1287"/>
	<unicode hex="014B"/>
	<outline>
		<contour>
			<point x="358" y="-520" type="curve" smooth="yes"/>
			<point x="618" y="-520"/>
			<point x="976" y="-283"/>
			<point x="1036" y="-23" type="curve" smooth="yes"/>
			<point x="1190" y="639" type="line"/>
			<point x="801" y="602" type="line"/>
			<point x="671" y="40" type="line" smooth="yes"/>
			<point x="612" y="-214"/>
			<point x="553" y="-451"/>
			<point x="353" y="-451" type="curve" smooth="yes"/>
			<point x="254" y="-451"/>
			<point x="112" y="-372"/>
			<point x="137" y="-262" type="curve"/>
			<point x="64" y="-262" type="line"/>
			<point x="46" y="-342"/>
			<point x="119" y="-445"/>
			<point x="237" y="-445" type="curve" smooth="yes"/>
			<point x="364" y="-445"/>
			<point x="462" y="-367"/>
			<point x="488" y="-256" type="curve" smooth="yes"/>
			<point x="513" y="-146"/>
			<point x="433" y="-58"/>
			<point x="323" y="-58" type="curve" smooth="yes"/>
			<point x="202" y="-58"/>
			<point x="88" y="-150"/>
			<point x="62" y="-262" type="curve" smooth="yes"/>
			<point x="27" y="-415"/>
			<point x="166" y="-520"/>
		</contour>
		<contour>
			<point x="-88" y="0" type="line"/>
			<point x="571" y="0" type="line"/>
			<point x="588" y="73" type="line"/>
			<point x="-71" y="73" type="line"/>
		</contour>
		<contour>
			<point x="52" y="0" type="line"/>
			<point x="433" y="0" type="line"/>
			<point x="645" y="920" type="line"/>
			<point x="124" y="920" type="line"/>
			<point x="108" y="847" type="line"/>
			<point x="248" y="847" type="line"/>
		</contour>
		<contour>
			<point x="482" y="451" type="curve"/>
			<point x="537" y="451" type="line"/>
			<point x="576" y="618"/>
			<point x="689" y="782"/>
			<point x="780" y="782" type="curve" smooth="yes"/>
			<point x="817" y="782"/>
			<point x="837" y="760"/>
			<point x="801" y="602" type="curve"/>
			<point x="1190" y="639" type="line"/>
			<point x="1230" y="813"/>
			<point x="1178" y="939"/>
			<point x="949" y="939" type="curve" smooth="yes"/>
			<point x="661" y="939"/>
			<point x="520" y="616"/>
		</contour>
	</outline>
</glyph>
<glyph name="OE" format="2">
  <advance width="2157"/>
  <unicode hex="0152"/>
  <outline>
    <contour>
      <point x="1078" y="1500" type="curve"/>
      <point x="1078" y="1427" type="line"/>
      <point x="750" y="1427"/>
      <point x="538" y="775"/>
      <point x="538" y="311" type="curve" smooth="yes"/>
      <point x="538" y="127"/>
      <point x="592" y="73"/>
      <point x="740" y="73" type="curve"/>
      <point x="740" y="0" type="line"/>
      <point x="433" y="0"/>
      <point x="98" y="103"/>
      <point x="98" y="490" type="curve" smooth="yes"/>
      <point x="98" y="1116"/>
      <point x="572" y="1500"/>
    </contour>
    <component base="E" xOffset="840"/>
  </outline>
</glyph>
<glyph name="longs" format="2">
	<advance width="1007"/>
	<unicode hex="017F"/>
	<outline>
		<contour>
			<point x="-74" y="-520" type="curve" smooth="yes"/>
			<point x="286" y="-520"/>
			<point x="495.28" y="-348.843"/>
			<point x="552" y="-23" type="curve" smooth="yes"/>
			<point x="744" y="1080" type="line" smooth="yes"/>
			<point x="784.07" y="1322.84"/>
			<point x="874" y="1447"/>
			<point x="1015" y="1447" type="curve" smooth="yes"/>
			<point x="1140" y="1447"/>
			<point x="1247" y="1352"/>
			<point x="1247" y="1262" type="curve"/>
			<point x="1320" y="1262" type="line"/>
			<point x="1320" y="1362"/>
			<point x="1197" y="1448"/>
			<point x="1100" y="1448" type="curve" smooth="yes"/>
			<point x="991" y="1448"/>
			<point x="904" y="1347"/>
			<point x="904" y="1247" type="curve" smooth="yes"/>
			<point x="904" y="1137"/>
			<point x="1019" y="1058"/>
			<point x="1129" y="1058" type="curve" smooth="yes"/>
			<point x="1250" y="1058"/>
			<point x="1322" y="1150"/>
			<point x="1322" y="1262" type="curve" smooth="yes"/>
			<point x="1322" y="1346"/>
			<point x="1227" y="1520"/>
			<point x="975" y="1520" type="curve" smooth="yes"/>
			<point x="605" y="1520"/>
			<point x="423.954" y="1331.35"/>
			<point x="370" y="1023" type="curve" smooth="yes"/>
			<point x="177" y="-80" type="line" smooth="yes"/>
			<point x="134.661" y="-321.966"/>
			<point x="37" y="-447"/>
			<point x="-104" y="-447" type="curve" smooth="yes"/>
			<point x="-189" y="-447"/>
			<point x="-325" y="-372"/>
			<point x="-325" y="-252" type="curve"/>
			<point x="-398" y="-252" type="line"/>
			<point x="-398" y="-362"/>
			<point x="-266" y="-438"/>
			<point x="-182" y="-438" type="curve" smooth="yes"/>
			<point x="-93" y="-438"/>
			<point x="6" y="-347"/>
			<point x="6" y="-237" type="curve" smooth="yes"/>
			<point x="6" y="-117"/>
			<point x="-106" y="-58"/>
			<point x="-196" y="-58" type="curve" smooth="yes"/>
			<point x="-297" y="-58"/>
			<point x="-400" y="-130"/>
			<point x="-400" y="-252" type="curve" smooth="yes"/>
			<point x="-400" y="-376"/>
			<point x="-276" y="-520"/>
		</contour>
	</outline>
</glyph>
<glyph name="florin" format="2">
  <advance width="917"/>
  <unicode hex="0192"/>
  <outline>
    <contour>
      <point x="133" y="920" type="line"/>
      <point x="944" y="920" type="line"/>
      <point x="944" y="847" type="line"/>
      <point x="133" y="847" type="line"/>
    </contour>
    <contour>
      <point x="1162" y="1277" type="line"/>
      <point x="1162" y="1372"/>
      <point x="1065" y="1452"/>
      <point x="920" y="1452" type="curve" smooth="yes"/>
      <point x="719" y="1452"/>
      <point x="747.833" y="1204.37"/>
      <point x="675" y="897" type="curve" smooth="yes"/>
      <point x="465" y="-23" type="line" smooth="yes"/>
      <point x="387.385" y="-363.026"/>
      <point x="227" y="-520"/>
      <point x="-85" y="-520" type="curve" smooth="yes"/>
      <point x="-301" y="-520"/>
      <point x="-432" y="-406"/>
      <point x="-432" y="-277" type="curve" smooth="yes"/>
      <point x="-432" y="-155"/>
      <point x="-334" y="-68"/>
      <point x="-228" y="-68" type="curve" smooth="yes"/>
      <point x="-108" y="-68"/>
      <point x="-24" y="-155"/>
      <point x="-24" y="-267" type="curve" smooth="yes"/>
      <point x="-24" y="-377"/>
      <point x="-135" y="-468"/>
      <point x="-224" y="-468" type="curve" smooth="yes"/>
      <point x="-328" y="-468"/>
      <point x="-430" y="-332"/>
      <point x="-430" y="-277" type="curve"/>
      <point x="-357" y="-277" type="line"/>
      <point x="-357" y="-373"/>
      <point x="-259" y="-452"/>
      <point x="-115" y="-452" type="curve" smooth="yes"/>
      <point x="86" y="-452"/>
      <point x="65.2676" y="-203.946"/>
      <point x="138" y="103" type="curve" smooth="yes"/>
      <point x="348" y="1023" type="line" smooth="yes"/>
      <point x="428.872" y="1364.29"/>
      <point x="580" y="1520"/>
      <point x="890" y="1520" type="curve" smooth="yes"/>
      <point x="1107" y="1520"/>
      <point x="1237" y="1406"/>
      <point x="1237" y="1277" type="curve" smooth="yes"/>
      <point x="1237" y="1160"/>
      <point x="1144" y="1068"/>
      <point x="1033" y="1068" type="curve" smooth="yes"/>
      <point x="923" y="1068"/>
      <point x="829" y="1154"/>
      <point x="829" y="1267" type="curve" smooth="yes"/>
      <point x="829" y="1382"/>
      <point x="936" y="1468"/>
      <point x="1035" y="1468" type="curve" smooth="yes"/>
      <point x="1122" y="1468"/>
      <point x="1235" y="1332"/>
      <point x="1235" y="1277" type="curve"/>
    </contour>
  </outline>
</glyph>
<glyph name="uni0237" format="2">
  <advance width="693"/>
  <unicode hex="0237"/>
  <outline>
    <contour>
      <point x="686" y="920" type="line"/>
      <point x="491" y="-23" type="line" smooth="yes"/>
      <point x="438.939" y="-274.76"/>
      <point x="151" y="-520"/>
      <point x="-109" y="-520" type="curve" smooth="yes"/>
      <point x="-291" y="-520"/>
      <point x="-460" y="-415"/>
      <point x="-460" y="-262" type="curve" smooth="yes"/>
      <point x="-460" y="-140"/>
      <point x="-347" y="-58"/>
      <point x="-246" y="-58" type="curve" smooth="yes"/>
      <point x="-156" y="-58"/>
      <point x="-35" y="-126"/>
      <point x="-35" y="-246" type="curve" smooth="yes"/>
      <point x="-35" y="-347"/>
      <point x="-135" y="-445"/>
      <point x="-242" y="-445" type="curve" smooth="yes"/>
      <point x="-340" y="-445"/>
      <point x="-458" y="-322"/>
      <point x="-458" y="-262" type="curve"/>
      <point x="-385" y="-262" type="line"/>
      <point x="-385" y="-392"/>
      <point x="-259" y="-451"/>
      <point x="-120" y="-451" type="curve" smooth="yes"/>
      <point x="60" y="-451"/>
      <point x="89.9501" y="-204.963"/>
      <point x="137" y="40" type="curve" smooth="yes"/>
      <point x="292" y="847" type="line"/>
      <point x="112" y="847" type="line"/>
      <point x="112" y="920" type="line"/>
    </contour>
  </outline>
</glyph>
<glyph name="circumflex" format="2">
	<advance width="769"/>
	<unicode hex="02C6"/>
	<anchor x="334" y="1500" name="_top"/>
	<outline>
		<contour>
			<point x="36" y="1680" type="line"/>
			<point x="421" y="1849" type="line"/>
			<point x="732" y="1685" type="line"/>
			<point x="767" y="1720" type="line"/>
			<point x="531" y="2039" type="line"/>
			<point x="322" y="2039" type="line"/>
			<point x="-3" y="1720" type="line"/>
		</contour>
	</outline>
</glyph>
<glyph name="caron" format="2">
	<advance width="769"/>
	<unicode hex="02C7"/>
	<anchor x="334" y="1500" name="_top"/>
	<outline>
		<contour>
			<point x="279" y="1700" type="line"/>
			<point x="489" y="1700" type="line"/>
			<point x="814" y="2021" type="line"/>
			<point x="779" y="2056" type="line"/>
			<point x="389" y="1892" type="line"/>
			<point x="83" y="2061" type="line"/>
			<point x="43" y="2021" type="line"/>
		</contour>
	</outline>
</glyph>
<glyph name="breve" format="2">
  <advance width="559"/>
  <unicode hex="02D8"/>
  <anchor x="229" y="1500" name="_top"/>
  <outline>
    <contour>
      <point x="145" y="2059" type="line"/>
      <point x="135" y="1985"/>
      <point x="185" y="1951"/>
      <point x="292" y="1951" type="curve" smooth="yes"/>
      <point x="399" y="1951"/>
      <point x="487" y="1961"/>
      <point x="519" y="2059" type="curve"/>
      <point x="592" y="2059" type="line"/>
      <point x="572" y="1937"/>
      <point x="512" y="1682"/>
      <point x="272" y="1682" type="curve" smooth="yes"/>
      <point x="51" y="1682"/>
      <point x="52" y="1937"/>
      <point x="72" y="2059" type="curve"/>
    </contour>
  </outline>
</glyph>
<glyph name="ring" format="2">
	<advance width="639"/>
	<unicode hex="02DA"/>
	<anchor x="270" y="1500" name="_top"/>
	<outline>
		<contour>
			<point x="320" y="1680" type="curve" smooth="yes"/>
			<point x="463" y="1680"/>
			<point x="549" y="1757"/>
			<point x="549" y="1859" type="curve" smooth="yes"/>
			<point x="549" y="1961"/>
			<point x="463" y="2040"/>
			<point x="320" y="2040" type="curve" smooth="yes"/>
			<point x="177" y="2040"/>
			<point x="89" y="1961"/>
			<point x="89" y="1859" type="curve" smooth="yes"/>
			<point x="89" y="1757"/>
			<point x="177" y="1680"/>
		</contour>
		<contour>
			<point x="288" y="1721" type="curve" smooth="yes"/>
			<point x="254" y="1721"/>
			<point x="255" y="1747"/>
			<point x="255" y="1770" type="curve" smooth="yes"/>
			<point x="255" y="1834"/>
			<point x="294" y="2000"/>
			<point x="349" y="2000" type="curve" smooth="yes"/>
			<point x="383" y="2000"/>
			<point x="383" y="1973"/>
			<point x="383" y="1950" type="curve" smooth="yes"/>
			<point x="383" y="1886"/>
			<point x="343" y="1721"/>
		</contour>
	</outline>
</glyph>
<glyph name="ogonek" format="2">
  <advance width="1099"/>
  <unicode hex="02DB"/>
  <anchor x="563" y="32" name="_cedilla"/>
  <outline>
    <contour>
      <point x="711" y="-256" type="line"/>
      <point x="682" y="-313"/>
      <point x="583" y="-441"/>
      <point x="381" y="-441" type="curve" smooth="yes"/>
      <point x="238" y="-441"/>
      <point x="131" y="-391"/>
      <point x="131" y="-291" type="curve" smooth="yes"/>
      <point x="131" y="-131"/>
      <point x="398" y="21"/>
      <point x="600" y="82" type="curve"/>
      <point x="631" y="35" type="line"/>
      <point x="569" y="-7"/>
      <point x="493" y="-114"/>
      <point x="493" y="-240" type="curve" smooth="yes"/>
      <point x="493" y="-304"/>
      <point x="498" y="-324"/>
      <point x="536" y="-324" type="curve" smooth="yes"/>
      <point x="573" y="-324"/>
      <point x="630" y="-268"/>
      <point x="651" y="-226" type="curve"/>
    </contour>
  </outline>
</glyph>
<glyph name="tilde" format="2">
  <advance width="895"/>
  <unicode hex="02DC"/>
  <anchor x="394" y="1500" name="_top"/>
  <outline>
    <contour>
      <point x="309" y="1777" type="curve" smooth="yes"/>
      <point x="263" y="1777"/>
      <point x="228" y="1764"/>
      <point x="188" y="1700" type="curve"/>
      <point x="115" y="1700" type="line"/>
      <point x="155" y="1870"/>
      <point x="226" y="2014"/>
      <point x="384" y="2014" type="curve" smooth="yes"/>
      <point x="525" y="2014"/>
      <point x="585" y="1855"/>
      <point x="677" y="1855" type="curve" smooth="yes"/>
      <point x="723" y="1855"/>
      <point x="758" y="1870"/>
      <point x="798" y="1934" type="curve"/>
      <point x="871" y="1934" type="line"/>
      <point x="831" y="1745"/>
      <point x="781" y="1620"/>
      <point x="623" y="1620" type="curve" smooth="yes"/>
      <point x="469" y="1620"/>
      <point x="414" y="1777"/>
    </contour>
  </outline>
</glyph>
<glyph name="gravecomb" format="2">
	<advance width="0"/>
	<unicode hex="0300"/>
	<anchor x="-228" y="1500" name="_top"/>
	<outline>
		<contour>
			<point x="-18" y="1660" type="line"/>
			<point x="14" y="1708" type="line"/>
			<point x="-135" y="1956" type="line" smooth="yes"/>
			<point x="-220.793" y="2098.8"/>
			<point x="-386.411" y="2079.31"/>
			<point x="-440" y="2001" type="curve" smooth="yes"/>
			<point x="-505.549" y="1905.21"/>
			<point x="-447.752" y="1751.64"/>
			<point x="-290" y="1718" type="curve" smooth="yes"/>
		</contour>
	</outline>
</glyph>
<glyph name="acutecomb" format="2">
	<advance width="0"/>
	<unicode hex="0301"/>
	<anchor x="-462" y="1500" name="_top"/>
	<outline>
		<contour>
			<point x="-508" y="1660" type="line"/>
			<point x="-236" y="1718" type="line" smooth="yes"/>
			<point x="-78" y="1752"/>
			<point x="-20" y="1905"/>
			<point x="-86" y="2001" type="curve" smooth="yes"/>
			<point x="-140" y="2079"/>
			<point x="-305" y="2099"/>
			<point x="-391" y="1956" type="curve" smooth="yes"/>
			<point x="-540" y="1708" type="line"/>
		</contour>
	</outline>
</glyph>
<glyph name="uni0307" format="2">
  <unicode hex="0307"/>
  <outline>
    <contour>
      <point x="-460" y="1152" type="curve" smooth="yes"/>
      <point x="-460" y="1200"/>
      <point x="-404" y="1248"/>
      <point x="-356" y="1248" type="curve" smooth="yes"/>
      <point x="-302" y="1248"/>
      <point x="-260" y="1192"/>
      <point x="-260" y="1144" type="curve" smooth="yes"/>
      <point x="-260" y="1102"/>
      <point x="-308" y="1048"/>
      <point x="-364" y="1048" type="curve" smooth="yes"/>
      <point x="-412" y="1048"/>
      <point x="-460" y="1100"/>
    </contour>
  </outline>
</glyph>
<glyph name="uni0394" format="2">
	<advance width="1427"/>
	<unicode hex="0394"/>
	<outline>
		<contour>
			<point x="-60" y="0" type="line"/>
			<point x="24" y="0" type="line"/>
			<point x="650" y="1081" type="line"/>
			<point x="751" y="0" type="line"/>
			<point x="1247" y="0" type="line"/>
			<point x="1070" y="1529" type="line"/>
			<point x="835" y="1529" type="line"/>
		</contour>
		<contour>
			<point x="-9" y="0" type="line"/>
			<point x="1031" y="0" type="line"/>
			<point x="1048" y="73" type="line"/>
			<point x="8" y="73" type="line"/>
		</contour>
	</outline>
</glyph>
<glyph name="pi" format="2">
	<advance width="1401"/>
	<unicode hex="03C0"/>
	<outline>
		<contour>
			<point x="86" y="391" type="line"/>
			<point x="159" y="391" type="line"/>
			<point x="195" y="540" type="line"/>
			<point x="1322" y="540" type="line"/>
			<point x="1432" y="920" type="line"/>
			<point x="214" y="920" type="line"/>
		</contour>
		<contour>
			<point x="248" y="-20" type="curve" smooth="yes"/>
			<point x="523" y="-20"/>
			<point x="538" y="190"/>
			<point x="616" y="486" type="curve" smooth="yes"/>
			<point x="727" y="900" type="line"/>
			<point x="613" y="900" type="line"/>
			<point x="520" y="598" type="line" smooth="yes"/>
			<point x="392" y="186"/>
			<point x="70" y="412"/>
			<point x="70" y="137" type="curve" smooth="yes"/>
			<point x="70" y="47"/>
			<point x="146" y="-20"/>
		</contour>
		<contour>
			<point x="936" y="-20" type="curve" smooth="yes"/>
			<point x="1122" y="-20"/>
			<point x="1226" y="65"/>
			<point x="1292" y="206" type="curve"/>
			<point x="1237" y="236" type="line"/>
			<point x="1199" y="168"/>
			<point x="1157" y="130"/>
			<point x="1121" y="130" type="curve" smooth="yes"/>
			<point x="1093" y="130"/>
			<point x="1066" y="149"/>
			<point x="1086" y="223" type="curve" smooth="yes"/>
			<point x="1252" y="840" type="line"/>
			<point x="832" y="840" type="line"/>
			<point x="682" y="258" type="line" smooth="yes"/>
			<point x="650" y="128"/>
			<point x="743" y="-20"/>
		</contour>
	</outline>
</glyph>
<glyph name="uni1E9E" format="2">
	<advance width="1821"/>
	<unicode hex="1E9E"/>
	<outline>
		<contour>
			<point x="130" y="0" type="line"/>
			<point x="550" y="0" type="line"/>
			<point x="770" y="962" type="line" smooth="yes"/>
			<point x="832" y="1232"/>
			<point x="918" y="1453"/>
			<point x="1246" y="1453" type="curve" smooth="yes"/>
			<point x="1374" y="1453"/>
			<point x="1460" y="1407"/>
			<point x="1460" y="1262" type="curve" smooth="yes"/>
			<point x="1460" y="1094"/>
			<point x="1404" y="847"/>
			<point x="1146" y="847" type="curve"/>
			<point x="1146" y="802" type="line"/>
			<point x="1548" y="802"/>
			<point x="1893" y="942"/>
			<point x="1893" y="1202" type="curve" smooth="yes"/>
			<point x="1893" y="1448"/>
			<point x="1592" y="1520"/>
			<point x="1266" y="1520" type="curve" smooth="yes"/>
			<point x="760" y="1520"/>
			<point x="445" y="1366"/>
			<point x="359" y="982" type="curve" smooth="yes"/>
		</contour>
		<contour>
			<point x="-50" y="0" type="line"/>
			<point x="730" y="0" type="line"/>
			<point x="730" y="73" type="line"/>
			<point x="-50" y="73" type="line"/>
		</contour>
		<contour>
			<point x="1111" y="-20" type="curve" smooth="yes"/>
			<point x="1393" y="-20"/>
			<point x="1762" y="100"/>
			<point x="1762" y="480" type="curve" smooth="yes"/>
			<point x="1762" y="740"/>
			<point x="1507" y="820"/>
			<point x="1146" y="820" type="curve"/>
			<point x="1146" y="775" type="line"/>
			<point x="1264" y="775"/>
			<point x="1340" y="688"/>
			<point x="1340" y="500" type="curve" smooth="yes"/>
			<point x="1340" y="312"/>
			<point x="1270" y="57"/>
			<point x="1092" y="57" type="curve" smooth="yes"/>
			<point x="988" y="57"/>
			<point x="891" y="97"/>
			<point x="855" y="201" type="curve"/>
			<point x="884" y="187"/>
			<point x="917" y="180"/>
			<point x="964" y="180" type="curve" smooth="yes"/>
			<point x="1062" y="180"/>
			<point x="1178" y="266"/>
			<point x="1178" y="370" type="curve" smooth="yes"/>
			<point x="1178" y="481"/>
			<point x="1091" y="562"/>
			<point x="971" y="562" type="curve" smooth="yes"/>
			<point x="841" y="562"/>
			<point x="756" y="444"/>
			<point x="756" y="312" type="curve" smooth="yes"/>
			<point x="756" y="132"/>
			<point x="863" y="-20"/>
		</contour>
	</outline>
</glyph>
<glyph name="daggerdbl" format="2">
	<advance width="1288"/>
	<unicode hex="2021"/>
	<outline>
		<contour>
			<point x="1039" y="749" type="curve" smooth="yes"/>
			<point x="1157" y="749"/>
			<point x="1265" y="851"/>
			<point x="1292" y="969" type="curve" smooth="yes"/>
			<point x="1319" y="1087"/>
			<point x="1259" y="1189"/>
			<point x="1141" y="1189" type="curve" smooth="yes"/>
			<point x="1129" y="1189"/>
			<point x="1118" y="1189"/>
			<point x="1104" y="1187" type="curve" smooth="yes"/>
			<point x="981" y="1172"/>
			<point x="896" y="1005"/>
			<point x="756" y="1005" type="curve"/>
			<point x="739" y="933" type="line"/>
			<point x="879" y="933"/>
			<point x="886" y="766"/>
			<point x="1003" y="751" type="curve" smooth="yes"/>
			<point x="1017" y="749"/>
			<point x="1027" y="749"/>
		</contour>
		<contour>
			<point x="404" y="-520" type="curve" smooth="yes"/>
			<point x="522" y="-520"/>
			<point x="644" y="-436"/>
			<point x="671" y="-318" type="curve" smooth="yes"/>
			<point x="674" y="-306"/>
			<point x="676" y="-296"/>
			<point x="677" y="-282" type="curve" smooth="yes"/>
			<point x="690" y="-162"/>
			<point x="534" y="-116"/>
			<point x="566" y="24" type="curve"/>
			<point x="494" y="24" type="line"/>
			<point x="462" y="-116"/>
			<point x="284" y="-162"/>
			<point x="241" y="-282" type="curve" smooth="yes"/>
			<point x="236" y="-296"/>
			<point x="234" y="-306"/>
			<point x="231" y="-318" type="curve" smooth="yes"/>
			<point x="204" y="-436"/>
			<point x="286" y="-520"/>
		</contour>
		<contour>
			<point x="138" y="-189" type="curve" smooth="yes"/>
			<point x="150" y="-189"/>
			<point x="161" y="-189"/>
			<point x="175" y="-187" type="curve" smooth="yes"/>
			<point x="298" y="-172"/>
			<point x="383" y="-5"/>
			<point x="523" y="-5" type="curve"/>
			<point x="539" y="67" type="line"/>
			<point x="399" y="67"/>
			<point x="392" y="234"/>
			<point x="275" y="249" type="curve" smooth="yes"/>
			<point x="261" y="251"/>
			<point x="252" y="251"/>
			<point x="240" y="251" type="curve" smooth="yes"/>
			<point x="122" y="251"/>
			<point x="14" y="149"/>
			<point x="-13" y="31" type="curve" smooth="yes"/>
			<point x="-40" y="-87"/>
			<point x="20" y="-189"/>
		</contour>
		<contour>
			<point x="822" y="-189" type="curve" smooth="yes"/>
			<point x="940" y="-189"/>
			<point x="1048" y="-87"/>
			<point x="1075" y="31" type="curve" smooth="yes"/>
			<point x="1102" y="149"/>
			<point x="1042" y="251"/>
			<point x="924" y="251" type="curve" smooth="yes"/>
			<point x="912" y="251"/>
			<point x="901" y="251"/>
			<point x="887" y="249" type="curve" smooth="yes"/>
			<point x="764" y="234"/>
			<point x="679" y="67"/>
			<point x="539" y="67" type="curve"/>
			<point x="523" y="-5" type="line"/>
			<point x="663" y="-5"/>
			<point x="670" y="-172"/>
			<point x="787" y="-187" type="curve" smooth="yes"/>
			<point x="801" y="-189"/>
			<point x="810" y="-189"/>
		</contour>
		<contour>
			<point x="493" y="23" type="curve"/>
			<point x="565" y="23" type="line"/>
			<point x="627" y="293"/>
			<point x="752" y="400"/>
			<point x="845" y="500" type="curve"/>
			<point x="433" y="500" type="line"/>
			<point x="480" y="400"/>
			<point x="555" y="293"/>
		</contour>
		<contour>
			<point x="433" y="500" type="curve"/>
			<point x="845" y="500" type="line"/>
			<point x="798" y="600"/>
			<point x="724" y="707"/>
			<point x="786" y="977" type="curve"/>
			<point x="714" y="977" type="line"/>
			<point x="652" y="707"/>
			<point x="526" y="600"/>
		</contour>
		<contour>
			<point x="355" y="749" type="curve" smooth="yes"/>
			<point x="367" y="749"/>
			<point x="377" y="749"/>
			<point x="391" y="751" type="curve" smooth="yes"/>
			<point x="514" y="766"/>
			<point x="599" y="933"/>
			<point x="739" y="933" type="curve"/>
			<point x="756" y="1005" type="line"/>
			<point x="616" y="1005"/>
			<point x="609" y="1172"/>
			<point x="492" y="1187" type="curve" smooth="yes"/>
			<point x="478" y="1189"/>
			<point x="469" y="1189"/>
			<point x="457" y="1189" type="curve" smooth="yes"/>
			<point x="339" y="1189"/>
			<point x="231" y="1087"/>
			<point x="204" y="969" type="curve" smooth="yes"/>
			<point x="177" y="851"/>
			<point x="237" y="749"/>
		</contour>
		<contour>
			<point x="713" y="976" type="curve"/>
			<point x="785" y="976" type="line"/>
			<point x="817" y="1116"/>
			<point x="995" y="1162"/>
			<point x="1038" y="1282" type="curve" smooth="yes"/>
			<point x="1043" y="1296"/>
			<point x="1045" y="1306"/>
			<point x="1048" y="1318" type="curve" smooth="yes"/>
			<point x="1075" y="1436"/>
			<point x="993" y="1520"/>
			<point x="875" y="1520" type="curve" smooth="yes"/>
			<point x="757" y="1520"/>
			<point x="635" y="1436"/>
			<point x="608" y="1318" type="curve" smooth="yes"/>
			<point x="605" y="1306"/>
			<point x="603" y="1296"/>
			<point x="602" y="1282" type="curve" smooth="yes"/>
			<point x="589" y="1162"/>
			<point x="745" y="1116"/>
		</contour>
	</outline>
</glyph>
<glyph name="uni203D" format="2">
	<advance width="1279"/>
	<unicode hex="203D"/>
	<outline>
		<contour>
			<point x="594" y="670" type="line"/>
			<point x="955" y="670"/>
			<point x="1370" y="860"/>
			<point x="1370" y="1180" type="curve" smooth="yes"/>
			<point x="1370" y="1440"/>
			<point x="1094" y="1520"/>
			<point x="792" y="1520" type="curve" smooth="yes"/>
			<point x="487" y="1520"/>
			<point x="141" y="1306"/>
			<point x="141" y="1102" type="curve" smooth="yes"/>
			<point x="141" y="980"/>
			<point x="214" y="898"/>
			<point x="314" y="898" type="curve" smooth="yes"/>
			<point x="404" y="898"/>
			<point x="527" y="959"/>
			<point x="527" y="1100" type="curve" smooth="yes"/>
			<point x="527" y="1220"/>
			<point x="452" y="1284"/>
			<point x="374" y="1284" type="curve" smooth="yes"/>
			<point x="353" y="1284"/>
			<point x="334" y="1283"/>
			<point x="303" y="1275" type="curve"/>
			<point x="377" y="1351"/>
			<point x="562" y="1445"/>
			<point x="771" y="1445" type="curve" smooth="yes"/>
			<point x="969" y="1445"/>
			<point x="1008" y="1369"/>
			<point x="1008" y="1221" type="curve" smooth="yes"/>
			<point x="1008" y="975"/>
			<point x="828" y="775"/>
			<point x="594" y="713" type="curve"/>
		</contour>
		<contour>
			<point x="541" y="557" type="curve"/>
			<point x="615" y="557" type="line"/>
			<point x="695" y="857"/>
			<point x="884" y="904"/>
			<point x="916" y="1118" type="curve" smooth="yes"/>
			<point x="932" y="1220"/>
			<point x="857" y="1296"/>
			<point x="748" y="1296" type="curve" smooth="yes"/>
			<point x="609" y="1296"/>
			<point x="561" y="1190"/>
			<point x="561" y="1038" type="curve" smooth="yes"/>
			<point x="561" y="886"/>
			<point x="602" y="857"/>
		</contour>
		<component base="period" xOffset="218"/>
	</outline>
</glyph>
<glyph name="Euro" format="2">
	<advance width="1639"/>
	<unicode hex="20AC"/>
	<outline>
		<contour>
			<point x="906" y="-20" type="curve" smooth="yes"/>
			<point x="1148" y="-20"/>
			<point x="1394" y="162"/>
			<point x="1466" y="355" type="curve"/>
			<point x="1384" y="355" type="line"/>
			<point x="1314" y="189"/>
			<point x="1114" y="69"/>
			<point x="971" y="69" type="curve" smooth="yes"/>
			<point x="832" y="69"/>
			<point x="698" y="101"/>
			<point x="698" y="330" type="curve" smooth="yes"/>
			<point x="698" y="758"/>
			<point x="860" y="1445"/>
			<point x="1238" y="1445" type="curve" smooth="yes"/>
			<point x="1352" y="1445"/>
			<point x="1445" y="1398"/>
			<point x="1483" y="1369" type="curve"/>
			<point x="1481" y="1369"/>
			<point x="1479" y="1370"/>
			<point x="1477" y="1370" type="curve" smooth="yes"/>
			<point x="1379" y="1370"/>
			<point x="1262" y="1290"/>
			<point x="1262" y="1160" type="curve" smooth="yes"/>
			<point x="1262" y="1019"/>
			<point x="1387" y="948"/>
			<point x="1477" y="948" type="curve" smooth="yes"/>
			<point x="1577" y="948"/>
			<point x="1689" y="1029"/>
			<point x="1689" y="1172" type="curve" smooth="yes"/>
			<point x="1689" y="1336"/>
			<point x="1462" y="1520"/>
			<point x="1218" y="1520" type="curve" smooth="yes"/>
			<point x="697" y="1520"/>
			<point x="266" y="1130"/>
			<point x="266" y="550" type="curve" smooth="yes"/>
			<point x="266" y="130"/>
			<point x="624" y="-20"/>
		</contour>
		<component base="equal" xOffset="-61" yOffset="-141"/>
	</outline>
</glyph>
<glyph name="summation" format="2">
  <advance width="1395"/>
  <unicode hex="2211"/>
  <outline>
    <contour>
      <point x="312" y="1500" type="line"/>
      <point x="1486" y="1500" type="line"/>
      <point x="1392" y="1090" type="line"/>
      <point x="1318" y="1090" type="line"/>
      <point x="1317" y="1304"/>
      <point x="1180" y="1427"/>
      <point x="946" y="1427" type="curve" smooth="yes"/>
      <point x="785" y="1427" type="line"/>
      <point x="1055" y="813" type="line"/>
      <point x="129" y="73" type="line"/>
      <point x="603" y="73" type="line" smooth="yes"/>
      <point x="876" y="73"/>
      <point x="1081" y="196"/>
      <point x="1190" y="450" type="curve"/>
      <point x="1263" y="450" type="line"/>
      <point x="1159" y="0" type="line"/>
      <point x="-64" y="0" type="line"/>
      <point x="657" y="600" type="line"/>
      <point x="295" y="1427" type="line"/>
    </contour>
  </outline>
</glyph>
<glyph name="radical" format="2">
	<advance width="1190"/>
	<unicode hex="221A"/>
	<outline>
		<contour>
			<point x="414" y="-20" type="line"/>
			<point x="552" y="-20" type="line"/>
			<point x="1236" y="1428" type="line"/>
			<point x="1400" y="1428" type="line"/>
			<point x="1416" y="1500" type="line"/>
			<point x="1195" y="1500" type="line"/>
			<point x="654" y="358" type="line"/>
			<point x="543" y="676" type="line"/>
			<point x="95" y="450" type="line"/>
			<point x="109" y="383" type="line"/>
			<point x="235" y="441" type="line"/>
		</contour>
	</outline>
</glyph>
<glyph name="infinity" format="2">
  <advance width="2023"/>
  <unicode hex="221E"/>
  <outline>
    <contour>
      <point x="1065" y="560" type="curve" smooth="yes"/>
      <point x="889" y="380"/>
      <point x="693" y="181"/>
      <point x="431" y="181" type="curve" smooth="yes"/>
      <point x="159" y="181"/>
      <point x="24" y="320"/>
      <point x="79" y="560" type="curve"/>
      <point x="480" y="560" type="line"/>
      <point x="453" y="442"/>
      <point x="441" y="283"/>
      <point x="564" y="283" type="curve" smooth="yes"/>
      <point x="687" y="283"/>
      <point x="832" y="423"/>
      <point x="966" y="560" type="curve" smooth="yes"/>
      <point x="1144" y="742"/>
      <point x="1339" y="939"/>
      <point x="1601" y="939" type="curve" smooth="yes"/>
      <point x="1873" y="939"/>
      <point x="2017" y="800"/>
      <point x="1962" y="560" type="curve"/>
      <point x="1551" y="560" type="line"/>
      <point x="1578" y="678"/>
      <point x="1580" y="837"/>
      <point x="1467" y="837" type="curve" smooth="yes"/>
      <point x="1344" y="837"/>
      <point x="1200" y="698"/>
    </contour>
    <contour>
      <point x="966" y="560" type="curve" smooth="yes"/>
      <point x="895" y="698"/>
      <point x="815" y="837"/>
      <point x="692" y="837" type="curve" smooth="yes"/>
      <point x="569" y="837"/>
      <point x="507" y="678"/>
      <point x="480" y="560" type="curve"/>
      <point x="79" y="560" type="line"/>
      <point x="134" y="800"/>
      <point x="334" y="939"/>
      <point x="606" y="939" type="curve" smooth="yes"/>
      <point x="868" y="939"/>
      <point x="971" y="742"/>
      <point x="1065" y="560" type="curve" smooth="yes"/>
      <point x="1135" y="423"/>
      <point x="1216" y="283"/>
      <point x="1339" y="283" type="curve" smooth="yes"/>
      <point x="1452" y="283"/>
      <point x="1524" y="442"/>
      <point x="1551" y="560" type="curve"/>
      <point x="1962" y="560" type="line"/>
      <point x="1907" y="320"/>
      <point x="1698" y="181"/>
      <point x="1426" y="181" type="curve" smooth="yes"/>
      <point x="1164" y="181"/>
      <point x="1058" y="380"/>
    </contour>
  </outline>
</glyph>
<glyph name="approxequal" format="2">
	<advance width="1200"/>
	<unicode hex="2248"/>
	<outline>
		<contour>
			<point x="798" y="744" type="curve" smooth="yes"/>
			<point x="936" y="744"/>
			<point x="1048" y="886"/>
			<point x="1012" y="1036" type="curve"/>
			<point x="929" y="1036" type="line"/>
			<point x="961" y="916"/>
			<point x="910" y="827"/>
			<point x="788" y="827" type="curve" smooth="yes"/>
			<point x="728" y="827"/>
			<point x="685" y="860"/>
			<point x="635" y="918" type="curve" smooth="yes"/>
			<point x="582" y="979"/>
			<point x="504" y="1054"/>
			<point x="388" y="1054" type="curve" smooth="yes"/>
			<point x="216" y="1054"/>
			<point x="96" y="902"/>
			<point x="136" y="762" type="curve"/>
			<point x="219" y="762" type="line"/>
			<point x="191" y="880"/>
			<point x="250" y="971"/>
			<point x="388" y="971" type="curve" smooth="yes"/>
			<point x="448" y="971"/>
			<point x="505" y="941"/>
			<point x="557" y="880" type="curve" smooth="yes"/>
			<point x="611" y="816"/>
			<point x="690" y="744"/>
		</contour>
		<contour>
			<point x="678" y="244" type="curve" smooth="yes"/>
			<point x="816" y="244"/>
			<point x="928" y="386"/>
			<point x="892" y="536" type="curve"/>
			<point x="809" y="536" type="line"/>
			<point x="841" y="416"/>
			<point x="790" y="327"/>
			<point x="668" y="327" type="curve" smooth="yes"/>
			<point x="608" y="327"/>
			<point x="565" y="360"/>
			<point x="515" y="418" type="curve" smooth="yes"/>
			<point x="462" y="479"/>
			<point x="384" y="554"/>
			<point x="268" y="554" type="curve" smooth="yes"/>
			<point x="96" y="554"/>
			<point x="-24" y="402"/>
			<point x="16" y="262" type="curve"/>
			<point x="99" y="262" type="line"/>
			<point x="71" y="380"/>
			<point x="130" y="471"/>
			<point x="268" y="471" type="curve" smooth="yes"/>
			<point x="328" y="471"/>
			<point x="385" y="441"/>
			<point x="437" y="380" type="curve" smooth="yes"/>
			<point x="491" y="316"/>
			<point x="570" y="244"/>
		</contour>
	</outline>
</glyph>
<glyph name="uniFB01" format="2">
	<advance width="1586"/>
	<unicode hex="FB01"/>
	<outline>
		<contour>
			<point x="-74" y="-520" type="curve" smooth="yes"/>
			<point x="286" y="-520"/>
			<point x="495.28" y="-348.843"/>
			<point x="552" y="-23" type="curve" smooth="yes"/>
			<point x="744" y="1080" type="line" smooth="yes"/>
			<point x="784.07" y="1322.84"/>
			<point x="924" y="1447"/>
			<point x="1065" y="1447" type="curve" smooth="yes"/>
			<point x="1240" y="1447"/>
			<point x="1347" y="1352"/>
			<point x="1347" y="1262" type="curve"/>
			<point x="1420" y="1262" type="line"/>
			<point x="1420" y="1362"/>
			<point x="1297" y="1448"/>
			<point x="1200" y="1448" type="curve" smooth="yes"/>
			<point x="1091" y="1448"/>
			<point x="1004" y="1347"/>
			<point x="1004" y="1247" type="curve" smooth="yes"/>
			<point x="1004" y="1137"/>
			<point x="1119" y="1058"/>
			<point x="1229" y="1058" type="curve" smooth="yes"/>
			<point x="1350" y="1058"/>
			<point x="1422" y="1150"/>
			<point x="1422" y="1262" type="curve" smooth="yes"/>
			<point x="1422" y="1346"/>
			<point x="1327" y="1520"/>
			<point x="1025" y="1520" type="curve" smooth="yes"/>
			<point x="655" y="1520"/>
			<point x="423.954" y="1331.35"/>
			<point x="370" y="1023" type="curve" smooth="yes"/>
			<point x="177" y="-80" type="line" smooth="yes"/>
			<point x="134.661" y="-321.966"/>
			<point x="37" y="-447"/>
			<point x="-104" y="-447" type="curve" smooth="yes"/>
			<point x="-189" y="-447"/>
			<point x="-325" y="-372"/>
			<point x="-325" y="-252" type="curve"/>
			<point x="-398" y="-252" type="line"/>
			<point x="-398" y="-362"/>
			<point x="-266" y="-438"/>
			<point x="-182" y="-438" type="curve" smooth="yes"/>
			<point x="-93" y="-438"/>
			<point x="6" y="-347"/>
			<point x="6" y="-237" type="curve" smooth="yes"/>
			<point x="6" y="-117"/>
			<point x="-106" y="-58"/>
			<point x="-196" y="-58" type="curve" smooth="yes"/>
			<point x="-297" y="-58"/>
			<point x="-400" y="-130"/>
			<point x="-400" y="-252" type="curve" smooth="yes"/>
			<point x="-400" y="-376"/>
			<point x="-276" y="-520"/>
		</contour>
		<contour>
			<point x="1092" y="-20" type="curve" smooth="yes"/>
			<point x="1324" y="-20"/>
			<point x="1461" y="126"/>
			<point x="1537" y="326" type="curve"/>
			<point x="1466" y="348" type="line"/>
			<point x="1420" y="216"/>
			<point x="1319" y="111"/>
			<point x="1260" y="111" type="curve" smooth="yes"/>
			<point x="1235" y="111"/>
			<point x="1223" y="128"/>
			<point x="1223" y="149" type="curve" smooth="yes"/>
			<point x="1223" y="159"/>
			<point x="1225" y="174"/>
			<point x="1228" y="186" type="curve" smooth="yes"/>
			<point x="1414" y="920" type="line"/>
			<point x="182" y="920" type="line"/>
			<point x="182" y="847" type="line"/>
			<point x="1017" y="847" type="line"/>
			<point x="854" y="210" type="line" smooth="yes"/>
			<point x="851" y="197"/>
			<point x="850" y="176"/>
			<point x="850" y="166" type="curve" smooth="yes"/>
			<point x="850" y="25"/>
			<point x="928" y="-20"/>
		</contour>
	</outline>
</glyph>
<glyph name="uniFB02" format="2">
  <advance width="1696"/>
  <unicode hex="FB02"/>
  <outline>
    <contour>
      <point x="1307" y="1262" type="line"/>
      <point x="1307" y="1362"/>
      <point x="1180" y="1447"/>
      <point x="1055" y="1447" type="curve" smooth="yes"/>
      <point x="884" y="1447"/>
      <point x="788.331" y="1322.06"/>
      <point x="744" y="1080" type="curve" smooth="yes"/>
      <point x="552" y="-23" type="line" smooth="yes"/>
      <point x="495.28" y="-348.843"/>
      <point x="266" y="-520"/>
      <point x="-24" y="-520" type="curve" smooth="yes"/>
      <point x="-256" y="-520"/>
      <point x="-400" y="-396"/>
      <point x="-400" y="-262" type="curve" smooth="yes"/>
      <point x="-400" y="-140"/>
      <point x="-307" y="-58"/>
      <point x="-196" y="-58" type="curve" smooth="yes"/>
      <point x="-96" y="-58"/>
      <point x="6" y="-127"/>
      <point x="6" y="-247" type="curve" smooth="yes"/>
      <point x="6" y="-377"/>
      <point x="-103" y="-438"/>
      <point x="-192" y="-438" type="curve" smooth="yes"/>
      <point x="-276" y="-438"/>
      <point x="-398" y="-392"/>
      <point x="-398" y="-262" type="curve"/>
      <point x="-325" y="-262" type="line"/>
      <point x="-325" y="-392"/>
      <point x="-189" y="-447"/>
      <point x="-104" y="-447" type="curve" smooth="yes"/>
      <point x="37" y="-447"/>
      <point x="134.661" y="-321.966"/>
      <point x="177" y="-80" type="curve" smooth="yes"/>
      <point x="370" y="1023" type="line" smooth="yes"/>
      <point x="432.443" y="1379.86"/>
      <point x="655" y="1520"/>
      <point x="1025" y="1520" type="curve" smooth="yes"/>
      <point x="1257" y="1520"/>
      <point x="1382" y="1376"/>
      <point x="1382" y="1262" type="curve" smooth="yes"/>
      <point x="1382" y="1150"/>
      <point x="1280" y="1058"/>
      <point x="1179" y="1058" type="curve" smooth="yes"/>
      <point x="1089" y="1058"/>
      <point x="974" y="1137"/>
      <point x="974" y="1247" type="curve" smooth="yes"/>
      <point x="974" y="1357"/>
      <point x="1081" y="1438"/>
      <point x="1170" y="1438" type="curve" smooth="yes"/>
      <point x="1247" y="1438"/>
      <point x="1380" y="1372"/>
      <point x="1380" y="1262" type="curve"/>
    </contour>
    <contour>
      <point x="1648" y="326" type="line"/>
      <point x="1572" y="126"/>
      <point x="1429" y="-20"/>
      <point x="1211" y="-20" type="curve" smooth="yes"/>
      <point x="987" y="-20"/>
      <point x="960" y="66"/>
      <point x="960" y="166" type="curve" smooth="yes"/>
      <point x="960" y="176"/>
      <point x="962" y="198"/>
      <point x="965" y="210" type="curve" smooth="yes"/>
      <point x="1250" y="1450" type="line"/>
      <point x="1648" y="1540" type="line"/>
      <point x="1335" y="185" type="line" smooth="yes"/>
      <point x="1332" y="173"/>
      <point x="1331" y="159"/>
      <point x="1331" y="149" type="curve" smooth="yes"/>
      <point x="1331" y="128"/>
      <point x="1341" y="110"/>
      <point x="1366" y="110" type="curve" smooth="yes"/>
      <point x="1424" y="110"/>
      <point x="1531" y="216"/>
      <point x="1577" y="348" type="curve"/>
    </contour>
    <contour>
      <point x="183" y="920" type="line"/>
      <point x="1003" y="920" type="line"/>
      <point x="1003" y="847" type="line"/>
      <point x="183" y="847" type="line"/>
    </contour>
  </outline>
</glyph>
<glyph name="uniFB03" format="2">
	<advance width="2265"/>
	<unicode hex="FB03"/>
	<outline>
		<contour>
			<point x="620" y="-420" type="curve" smooth="yes"/>
			<point x="980" y="-420"/>
			<point x="1189.28" y="-248.844"/>
			<point x="1246" y="77" type="curve" smooth="yes"/>
			<point x="1424" y="1080" type="line" smooth="yes"/>
			<point x="1464.07" y="1322.84"/>
			<point x="1604" y="1447"/>
			<point x="1745" y="1447" type="curve" smooth="yes"/>
			<point x="1930" y="1447"/>
			<point x="2027" y="1352"/>
			<point x="2027" y="1262" type="curve"/>
			<point x="2100" y="1262" type="line"/>
			<point x="2100" y="1362"/>
			<point x="1977" y="1448"/>
			<point x="1880" y="1448" type="curve" smooth="yes"/>
			<point x="1771" y="1448"/>
			<point x="1684" y="1347"/>
			<point x="1684" y="1247" type="curve" smooth="yes"/>
			<point x="1684" y="1137"/>
			<point x="1799" y="1058"/>
			<point x="1909" y="1058" type="curve" smooth="yes"/>
			<point x="2030" y="1058"/>
			<point x="2102" y="1150"/>
			<point x="2102" y="1262" type="curve" smooth="yes"/>
			<point x="2102" y="1346"/>
			<point x="2017" y="1520"/>
			<point x="1705" y="1520" type="curve" smooth="yes"/>
			<point x="1335" y="1520"/>
			<point x="1103.95" y="1331.35"/>
			<point x="1050" y="1023" type="curve" smooth="yes"/>
			<point x="871" y="20" type="line" smooth="yes"/>
			<point x="828.661" y="-221.966"/>
			<point x="731" y="-347"/>
			<point x="590" y="-347" type="curve" smooth="yes"/>
			<point x="505" y="-347"/>
			<point x="369" y="-272"/>
			<point x="369" y="-152" type="curve"/>
			<point x="296" y="-152" type="line"/>
			<point x="296" y="-262"/>
			<point x="428" y="-338"/>
			<point x="512" y="-338" type="curve" smooth="yes"/>
			<point x="601" y="-338"/>
			<point x="700" y="-247"/>
			<point x="700" y="-137" type="curve" smooth="yes"/>
			<point x="700" y="-17"/>
			<point x="588" y="42"/>
			<point x="498" y="42" type="curve" smooth="yes"/>
			<point x="397" y="42"/>
			<point x="294" y="-30"/>
			<point x="294" y="-152" type="curve" smooth="yes"/>
			<point x="294" y="-276"/>
			<point x="418" y="-420"/>
		</contour>
		<contour>
			<point x="-80" y="-520" type="curve" smooth="yes"/>
			<point x="280" y="-520"/>
			<point x="489.28" y="-348.844"/>
			<point x="546" y="-23" type="curve" smooth="yes"/>
			<point x="724" y="980" type="line" smooth="yes"/>
			<point x="764.07" y="1222.84"/>
			<point x="854" y="1347"/>
			<point x="995" y="1347" type="curve" smooth="yes"/>
			<point x="1120" y="1347"/>
			<point x="1227" y="1252"/>
			<point x="1227" y="1162" type="curve"/>
			<point x="1300" y="1162" type="line"/>
			<point x="1300" y="1262"/>
			<point x="1177" y="1348"/>
			<point x="1080" y="1348" type="curve" smooth="yes"/>
			<point x="971" y="1348"/>
			<point x="884" y="1247"/>
			<point x="884" y="1147" type="curve" smooth="yes"/>
			<point x="884" y="1037"/>
			<point x="999" y="958"/>
			<point x="1109" y="958" type="curve" smooth="yes"/>
			<point x="1230" y="958"/>
			<point x="1302" y="1050"/>
			<point x="1302" y="1162" type="curve" smooth="yes"/>
			<point x="1302" y="1246"/>
			<point x="1207" y="1420"/>
			<point x="955" y="1420" type="curve" smooth="yes"/>
			<point x="585" y="1420"/>
			<point x="403.954" y="1231.35"/>
			<point x="350" y="923" type="curve" smooth="yes"/>
			<point x="171" y="-80" type="line" smooth="yes"/>
			<point x="128.661" y="-321.966"/>
			<point x="31" y="-447"/>
			<point x="-110" y="-447" type="curve" smooth="yes"/>
			<point x="-195" y="-447"/>
			<point x="-331" y="-372"/>
			<point x="-331" y="-252" type="curve"/>
			<point x="-404" y="-252" type="line"/>
			<point x="-404" y="-362"/>
			<point x="-272" y="-438"/>
			<point x="-188" y="-438" type="curve" smooth="yes"/>
			<point x="-99" y="-438"/>
			<point x="0" y="-347"/>
			<point x="0" y="-237" type="curve" smooth="yes"/>
			<point x="0" y="-117"/>
			<point x="-112" y="-58"/>
			<point x="-202" y="-58" type="curve" smooth="yes"/>
			<point x="-303" y="-58"/>
			<point x="-406" y="-130"/>
			<point x="-406" y="-252" type="curve" smooth="yes"/>
			<point x="-406" y="-376"/>
			<point x="-282" y="-520"/>
		</contour>
		<contour>
			<point x="1770" y="-20" type="curve" smooth="yes"/>
			<point x="2002" y="-20"/>
			<point x="2141" y="126"/>
			<point x="2217" y="326" type="curve"/>
			<point x="2145" y="348" type="line"/>
			<point x="2099" y="216"/>
			<point x="1997" y="111"/>
			<point x="1938" y="111" type="curve" smooth="yes"/>
			<point x="1913" y="111"/>
			<point x="1902" y="128"/>
			<point x="1902" y="149" type="curve" smooth="yes"/>
			<point x="1902" y="159"/>
			<point x="1903" y="174"/>
			<point x="1906" y="186" type="curve" smooth="yes"/>
			<point x="2092" y="920" type="line"/>
			<point x="182" y="920" type="line"/>
			<point x="182" y="847" type="line"/>
			<point x="1695" y="847" type="line"/>
			<point x="1533" y="210" type="line" smooth="yes"/>
			<point x="1530" y="197"/>
			<point x="1527" y="176"/>
			<point x="1527" y="166" type="curve" smooth="yes"/>
			<point x="1527" y="25"/>
			<point x="1606" y="-20"/>
		</contour>
	</outline>
</glyph>
<glyph name="uniFB04" format="2">
	<advance width="2375"/>
	<unicode hex="FB04"/>
	<outline>
		<contour>
			<point x="620" y="-420" type="curve" smooth="yes"/>
			<point x="980" y="-420"/>
			<point x="1189.28" y="-248.844"/>
			<point x="1246" y="77" type="curve" smooth="yes"/>
			<point x="1424" y="1080" type="line" smooth="yes"/>
			<point x="1464.07" y="1322.84"/>
			<point x="1564" y="1447"/>
			<point x="1755" y="1447" type="curve" smooth="yes"/>
			<point x="1880" y="1447"/>
			<point x="1987" y="1352"/>
			<point x="1987" y="1262" type="curve"/>
			<point x="2060" y="1262" type="line"/>
			<point x="2060" y="1362"/>
			<point x="1937" y="1448"/>
			<point x="1840" y="1448" type="curve" smooth="yes"/>
			<point x="1731" y="1448"/>
			<point x="1644" y="1347"/>
			<point x="1644" y="1247" type="curve" smooth="yes"/>
			<point x="1644" y="1137"/>
			<point x="1759" y="1058"/>
			<point x="1869" y="1058" type="curve" smooth="yes"/>
			<point x="1990" y="1058"/>
			<point x="2062" y="1150"/>
			<point x="2062" y="1262" type="curve" smooth="yes"/>
			<point x="2062" y="1346"/>
			<point x="1967" y="1520"/>
			<point x="1715" y="1520" type="curve" smooth="yes"/>
			<point x="1295" y="1520"/>
			<point x="1103.95" y="1331.35"/>
			<point x="1050" y="1023" type="curve" smooth="yes"/>
			<point x="871" y="20" type="line" smooth="yes"/>
			<point x="828.661" y="-221.966"/>
			<point x="731" y="-347"/>
			<point x="590" y="-347" type="curve" smooth="yes"/>
			<point x="505" y="-347"/>
			<point x="369" y="-272"/>
			<point x="369" y="-152" type="curve"/>
			<point x="296" y="-152" type="line"/>
			<point x="296" y="-262"/>
			<point x="428" y="-338"/>
			<point x="512" y="-338" type="curve" smooth="yes"/>
			<point x="601" y="-338"/>
			<point x="700" y="-247"/>
			<point x="700" y="-137" type="curve" smooth="yes"/>
			<point x="700" y="-17"/>
			<point x="588" y="42"/>
			<point x="498" y="42" type="curve" smooth="yes"/>
			<point x="397" y="42"/>
			<point x="294" y="-30"/>
			<point x="294" y="-152" type="curve" smooth="yes"/>
			<point x="294" y="-276"/>
			<point x="418" y="-420"/>
		</contour>
		<contour>
			<point x="-80" y="-520" type="curve" smooth="yes"/>
			<point x="280" y="-520"/>
			<point x="489.28" y="-348.844"/>
			<point x="546" y="-23" type="curve" smooth="yes"/>
			<point x="724" y="980" type="line" smooth="yes"/>
			<point x="764.07" y="1222.84"/>
			<point x="854" y="1347"/>
			<point x="995" y="1347" type="curve" smooth="yes"/>
			<point x="1120" y="1347"/>
			<point x="1227" y="1252"/>
			<point x="1227" y="1162" type="curve"/>
			<point x="1300" y="1162" type="line"/>
			<point x="1300" y="1262"/>
			<point x="1177" y="1348"/>
			<point x="1080" y="1348" type="curve" smooth="yes"/>
			<point x="971" y="1348"/>
			<point x="884" y="1247"/>
			<point x="884" y="1147" type="curve" smooth="yes"/>
			<point x="884" y="1037"/>
			<point x="999" y="958"/>
			<point x="1109" y="958" type="curve" smooth="yes"/>
			<point x="1230" y="958"/>
			<point x="1302" y="1050"/>
			<point x="1302" y="1162" type="curve" smooth="yes"/>
			<point x="1302" y="1246"/>
			<point x="1207" y="1420"/>
			<point x="955" y="1420" type="curve" smooth="yes"/>
			<point x="585" y="1420"/>
			<point x="403.954" y="1231.35"/>
			<point x="350" y="923" type="curve" smooth="yes"/>
			<point x="171" y="-80" type="line" smooth="yes"/>
			<point x="128.661" y="-321.966"/>
			<point x="31" y="-447"/>
			<point x="-110" y="-447" type="curve" smooth="yes"/>
			<point x="-195" y="-447"/>
			<point x="-331" y="-372"/>
			<point x="-331" y="-252" type="curve"/>
			<point x="-404" y="-252" type="line"/>
			<point x="-404" y="-362"/>
			<point x="-272" y="-438"/>
			<point x="-188" y="-438" type="curve" smooth="yes"/>
			<point x="-99" y="-438"/>
			<point x="0" y="-347"/>
			<point x="0" y="-237" type="curve" smooth="yes"/>
			<point x="0" y="-117"/>
			<point x="-112" y="-58"/>
			<point x="-202" y="-58" type="curve" smooth="yes"/>
			<point x="-303" y="-58"/>
			<point x="-406" y="-130"/>
			<point x="-406" y="-252" type="curve" smooth="yes"/>
			<point x="-406" y="-376"/>
			<point x="-282" y="-520"/>
		</contour>
		<contour>
			<point x="182" y="847" type="line"/>
			<point x="1684" y="847" type="line"/>
			<point x="1684" y="920" type="line"/>
			<point x="182" y="920" type="line"/>
		</contour>
		<contour>
			<point x="1879" y="-20" type="curve" smooth="yes"/>
			<point x="2111" y="-20"/>
			<point x="2250" y="126"/>
			<point x="2326" y="326" type="curve"/>
			<point x="2254" y="348" type="line"/>
			<point x="2208" y="216"/>
			<point x="2108" y="111"/>
			<point x="2049" y="111" type="curve" smooth="yes"/>
			<point x="2024" y="111"/>
			<point x="2012" y="128"/>
			<point x="2012" y="149" type="curve" smooth="yes"/>
			<point x="2012" y="159"/>
			<point x="2013" y="174"/>
			<point x="2016" y="186" type="curve" smooth="yes"/>
			<point x="2326" y="1540" type="line"/>
			<point x="1929" y="1460" type="line"/>
			<point x="1643" y="210" type="line" smooth="yes"/>
			<point x="1641" y="198"/>
			<point x="1638" y="176"/>
			<point x="1638" y="166" type="curve" smooth="yes"/>
			<point x="1638" y="25"/>
			<point x="1715" y="-20"/>
		</contour>
	</outline>
</glyph>
<glyph name="uniFB05" format="2">
	<advance width="1649"/>
	<unicode hex="FB05"/>
	<outline>
		<contour>
			<point x="-104" y="-520" type="curve" smooth="yes"/>
			<point x="256" y="-520"/>
			<point x="484.192" y="-338.654"/>
			<point x="542" y="-23" type="curve" smooth="yes"/>
			<point x="744" y="1080" type="line" smooth="yes"/>
			<point x="788" y="1322"/>
			<point x="884" y="1447"/>
			<point x="995" y="1447" type="curve" smooth="yes"/>
			<point x="1120" y="1447"/>
			<point x="1146" y="1302"/>
			<point x="1100" y="1080" type="curve" smooth="yes"/>
			<point x="876" y="206" type="line" smooth="yes"/>
			<point x="873" y="194"/>
			<point x="871" y="172"/>
			<point x="871" y="162" type="curve" smooth="yes"/>
			<point x="871" y="72"/>
			<point x="906" y="-20"/>
			<point x="1120" y="-20" type="curve" smooth="yes"/>
			<point x="1347" y="-20"/>
			<point x="1490" y="126"/>
			<point x="1566" y="326" type="curve"/>
			<point x="1494" y="348" type="line"/>
			<point x="1448" y="216"/>
			<point x="1353" y="111"/>
			<point x="1285" y="111" type="curve" smooth="yes"/>
			<point x="1260" y="111"/>
			<point x="1248" y="128"/>
			<point x="1248" y="149" type="curve" smooth="yes"/>
			<point x="1248" y="159"/>
			<point x="1249" y="173"/>
			<point x="1252" y="185" type="curve" smooth="yes"/>
			<point x="1467" y="1023" type="line" smooth="yes"/>
			<point x="1532.91" y="1335.8"/>
			<point x="1337" y="1520"/>
			<point x="995" y="1520" type="curve" smooth="yes"/>
			<point x="665" y="1520"/>
			<point x="430.73" y="1370.07"/>
			<point x="370" y="1023" type="curve" smooth="yes"/>
			<point x="177" y="-80" type="line" smooth="yes"/>
			<point x="135" y="-322"/>
			<point x="37" y="-447"/>
			<point x="-104" y="-447" type="curve" smooth="yes"/>
			<point x="-184" y="-447"/>
			<point x="-325" y="-382"/>
			<point x="-325" y="-262" type="curve"/>
			<point x="-398" y="-262" type="line"/>
			<point x="-398" y="-322"/>
			<point x="-292.809" y="-437"/>
			<point x="-196" y="-437" type="curve" smooth="yes"/>
			<point x="-98" y="-437"/>
			<point x="6" y="-333"/>
			<point x="6" y="-247" type="curve" smooth="yes"/>
			<point x="6" y="-127"/>
			<point x="-86" y="-58"/>
			<point x="-196" y="-58" type="curve" smooth="yes"/>
			<point x="-307" y="-58"/>
			<point x="-400" y="-140"/>
			<point x="-400" y="-262" type="curve" smooth="yes"/>
			<point x="-400" y="-396"/>
			<point x="-266" y="-520"/>
		</contour>
		<contour>
			<point x="890" y="846" type="line"/>
			<point x="1630" y="846" type="line"/>
			<point x="1630" y="920" type="line"/>
			<point x="890" y="920" type="line"/>
		</contour>
	</outline>
</glyph>
